G04 #@! TF.GenerationSoftware,KiCad,Pcbnew,6.0.2+dfsg-1*
G04 #@! TF.CreationDate,2022-03-12T18:16:22-05:00*
G04 #@! TF.ProjectId,PortaNet,506f7274-614e-4657-942e-6b696361645f,rev?*
G04 #@! TF.SameCoordinates,Original*
G04 #@! TF.FileFunction,Copper,L2,Bot*
G04 #@! TF.FilePolarity,Positive*
%FSLAX46Y46*%
G04 Gerber Fmt 4.6, Leading zero omitted, Abs format (unit mm)*
G04 Created by KiCad (PCBNEW 6.0.2+dfsg-1) date 2022-03-12 18:16:22*
%MOMM*%
%LPD*%
G01*
G04 APERTURE LIST*
G04 #@! TA.AperFunction,WasherPad*
%ADD10C,1.524000*%
G04 #@! TD*
G04 #@! TA.AperFunction,ComponentPad*
%ADD11C,1.750000*%
G04 #@! TD*
G04 #@! TA.AperFunction,ComponentPad*
%ADD12C,1.600000*%
G04 #@! TD*
G04 #@! TA.AperFunction,ComponentPad*
%ADD13O,3.500000X2.000000*%
G04 #@! TD*
G04 #@! TA.AperFunction,ComponentPad*
%ADD14C,0.500000*%
G04 #@! TD*
G04 #@! TA.AperFunction,SMDPad,CuDef*
%ADD15R,2.500000X2.500000*%
G04 #@! TD*
G04 #@! TA.AperFunction,ComponentPad*
%ADD16R,1.000000X1.000000*%
G04 #@! TD*
G04 #@! TA.AperFunction,ComponentPad*
%ADD17O,1.000000X1.000000*%
G04 #@! TD*
G04 #@! TA.AperFunction,ComponentPad*
%ADD18R,1.700000X1.700000*%
G04 #@! TD*
G04 #@! TA.AperFunction,ComponentPad*
%ADD19O,1.700000X1.700000*%
G04 #@! TD*
G04 #@! TA.AperFunction,SMDPad,CuDef*
%ADD20R,1.000000X1.000000*%
G04 #@! TD*
G04 #@! TA.AperFunction,ViaPad*
%ADD21C,0.800000*%
G04 #@! TD*
G04 #@! TA.AperFunction,Conductor*
%ADD22C,0.500000*%
G04 #@! TD*
G04 #@! TA.AperFunction,Conductor*
%ADD23C,0.250000*%
G04 #@! TD*
G04 APERTURE END LIST*
D10*
X124460000Y-68870000D03*
X124460000Y-73370000D03*
D11*
X126560000Y-74620000D03*
D12*
X126560000Y-72120000D03*
X126560000Y-70120000D03*
D11*
X126560000Y-67620000D03*
D13*
X124460000Y-76820000D03*
X124460000Y-65420000D03*
D14*
X152384000Y-71501000D03*
X150384000Y-72501000D03*
X151384000Y-70501000D03*
X152384000Y-70501000D03*
X151384000Y-71501000D03*
X152384000Y-72501000D03*
D15*
X151384000Y-71501000D03*
D14*
X151384000Y-72501000D03*
X150384000Y-70501000D03*
X150384000Y-71501000D03*
D16*
X157744000Y-64780000D03*
D17*
X157744000Y-66050000D03*
X156474000Y-64780000D03*
X156474000Y-66050000D03*
X155204000Y-64780000D03*
X155204000Y-66050000D03*
X153934000Y-64780000D03*
X153934000Y-66050000D03*
X152664000Y-64780000D03*
X152664000Y-66050000D03*
D18*
X144287000Y-64999000D03*
D19*
X146827000Y-64999000D03*
X149367000Y-64999000D03*
D18*
X160909000Y-67310000D03*
D19*
X160909000Y-69850000D03*
X160909000Y-72390000D03*
X160909000Y-74930000D03*
D20*
X135509000Y-67945000D03*
X163830000Y-67818000D03*
X140843000Y-65659000D03*
D21*
X154051000Y-67945000D03*
X136779000Y-72644000D03*
X148336000Y-75184000D03*
X145542000Y-68580000D03*
X163957000Y-65786000D03*
X159512000Y-73787000D03*
X150622000Y-75184000D03*
X152019000Y-67818000D03*
X146685000Y-73787000D03*
X132842000Y-67945000D03*
X147193000Y-70739000D03*
X147447000Y-69469000D03*
X135128000Y-76327000D03*
X135128000Y-74930000D03*
X152019000Y-75184000D03*
X156210000Y-75311000D03*
X154940000Y-74676000D03*
X155067000Y-73152000D03*
D22*
X156845000Y-63627000D02*
X156464000Y-64008000D01*
D23*
X141732000Y-65659000D02*
X142392000Y-64999000D01*
D22*
X158750000Y-63627000D02*
X156845000Y-63627000D01*
X159004000Y-65405000D02*
X159004000Y-63881000D01*
X151384000Y-68453000D02*
X151384000Y-70501000D01*
D23*
X142392000Y-64999000D02*
X144287000Y-64999000D01*
X147971000Y-72501000D02*
X146685000Y-73787000D01*
D22*
X159004000Y-63881000D02*
X158750000Y-63627000D01*
X156464000Y-64008000D02*
X156474000Y-64018000D01*
X156474000Y-64018000D02*
X156474000Y-64780000D01*
D23*
X150384000Y-72501000D02*
X147971000Y-72501000D01*
D22*
X160909000Y-67310000D02*
X159004000Y-65405000D01*
X152019000Y-67818000D02*
X151384000Y-68453000D01*
D23*
X140843000Y-65659000D02*
X141732000Y-65659000D01*
X135509000Y-67945000D02*
X132842000Y-67945000D01*
X146722489Y-65103511D02*
X146827000Y-64999000D01*
X147193000Y-70739000D02*
X146722489Y-70268489D01*
X146722489Y-70268489D02*
X146722489Y-65103511D01*
X147447000Y-68072000D02*
X149367000Y-66152000D01*
X147447000Y-69469000D02*
X147447000Y-68072000D01*
X149367000Y-66152000D02*
X149367000Y-64999000D01*
X126560000Y-72120000D02*
X127746000Y-72120000D01*
X127746000Y-72120000D02*
X131953000Y-76327000D01*
X131953000Y-76327000D02*
X135128000Y-76327000D01*
X130318000Y-70120000D02*
X126560000Y-70120000D01*
X135128000Y-74930000D02*
X130318000Y-70120000D01*
X153035000Y-76200000D02*
X152019000Y-75184000D01*
X156210000Y-75311000D02*
X155321000Y-76200000D01*
X155321000Y-76200000D02*
X153035000Y-76200000D01*
X157744000Y-72253000D02*
X157744000Y-66050000D01*
X155321000Y-74676000D02*
X157744000Y-72253000D01*
X154940000Y-74676000D02*
X155321000Y-74676000D01*
X155067000Y-67183000D02*
X153934000Y-66050000D01*
X155067000Y-73152000D02*
X155067000Y-67183000D01*
G04 #@! TA.AperFunction,Conductor*
G36*
X155916043Y-63266002D02*
G01*
X155962536Y-63319658D01*
X155972640Y-63389932D01*
X155943146Y-63454512D01*
X155931332Y-63466439D01*
X155895596Y-63498000D01*
X155891368Y-63503983D01*
X155858368Y-63550677D01*
X155854287Y-63556132D01*
X155814266Y-63606716D01*
X155811167Y-63613347D01*
X155810246Y-63615318D01*
X155798999Y-63634682D01*
X155793516Y-63642440D01*
X155769387Y-63702311D01*
X155766696Y-63708499D01*
X155739378Y-63766950D01*
X155739378Y-63766951D01*
X155738607Y-63766591D01*
X155701549Y-63819981D01*
X155635960Y-63847158D01*
X155585217Y-63842247D01*
X155407768Y-63787318D01*
X155401643Y-63786674D01*
X155401642Y-63786674D01*
X155217204Y-63767289D01*
X155217202Y-63767289D01*
X155211075Y-63766645D01*
X155128576Y-63774153D01*
X155020251Y-63784011D01*
X155020248Y-63784012D01*
X155014112Y-63784570D01*
X155008206Y-63786308D01*
X155008202Y-63786309D01*
X154940251Y-63806308D01*
X154824381Y-63840410D01*
X154818923Y-63843263D01*
X154818919Y-63843265D01*
X154723135Y-63893340D01*
X154649110Y-63932040D01*
X154644310Y-63935900D01*
X154639153Y-63939274D01*
X154637769Y-63937158D01*
X154582365Y-63960027D01*
X154512512Y-63947334D01*
X154502898Y-63941709D01*
X154500675Y-63939870D01*
X154326701Y-63845802D01*
X154137768Y-63787318D01*
X154131643Y-63786674D01*
X154131642Y-63786674D01*
X153947204Y-63767289D01*
X153947202Y-63767289D01*
X153941075Y-63766645D01*
X153858576Y-63774153D01*
X153750251Y-63784011D01*
X153750248Y-63784012D01*
X153744112Y-63784570D01*
X153738206Y-63786308D01*
X153738202Y-63786309D01*
X153670251Y-63806308D01*
X153554381Y-63840410D01*
X153548923Y-63843263D01*
X153548919Y-63843265D01*
X153453135Y-63893340D01*
X153379110Y-63932040D01*
X153374310Y-63935900D01*
X153369153Y-63939274D01*
X153367769Y-63937158D01*
X153312365Y-63960027D01*
X153242512Y-63947334D01*
X153232898Y-63941709D01*
X153230675Y-63939870D01*
X153056701Y-63845802D01*
X152867768Y-63787318D01*
X152861643Y-63786674D01*
X152861642Y-63786674D01*
X152677204Y-63767289D01*
X152677202Y-63767289D01*
X152671075Y-63766645D01*
X152588576Y-63774153D01*
X152480251Y-63784011D01*
X152480248Y-63784012D01*
X152474112Y-63784570D01*
X152468206Y-63786308D01*
X152468202Y-63786309D01*
X152400251Y-63806308D01*
X152284381Y-63840410D01*
X152278923Y-63843263D01*
X152278919Y-63843265D01*
X152188147Y-63890720D01*
X152109110Y-63932040D01*
X151954975Y-64055968D01*
X151827846Y-64207474D01*
X151824879Y-64212872D01*
X151824875Y-64212877D01*
X151746831Y-64354840D01*
X151732567Y-64380787D01*
X151730706Y-64386654D01*
X151730705Y-64386656D01*
X151675510Y-64560654D01*
X151672765Y-64569306D01*
X151650719Y-64765851D01*
X151667268Y-64962934D01*
X151668967Y-64968858D01*
X151715481Y-65131071D01*
X151721783Y-65153050D01*
X151812187Y-65328956D01*
X151816016Y-65333787D01*
X151817839Y-65336088D01*
X151818414Y-65337509D01*
X151819353Y-65338966D01*
X151819076Y-65339144D01*
X151844474Y-65401898D01*
X151831301Y-65471662D01*
X151827846Y-65477474D01*
X151732567Y-65650787D01*
X151730706Y-65656654D01*
X151730705Y-65656656D01*
X151698398Y-65758500D01*
X151672765Y-65839306D01*
X151650719Y-66035851D01*
X151651235Y-66041995D01*
X151665643Y-66213576D01*
X151667268Y-66232934D01*
X151680939Y-66280611D01*
X151719556Y-66415283D01*
X151721783Y-66423050D01*
X151812187Y-66598956D01*
X151835828Y-66628784D01*
X151912656Y-66725718D01*
X151939293Y-66791528D01*
X151926122Y-66861292D01*
X151877324Y-66912861D01*
X151840109Y-66927228D01*
X151736712Y-66949206D01*
X151730682Y-66951891D01*
X151730681Y-66951891D01*
X151568278Y-67024197D01*
X151568276Y-67024198D01*
X151562248Y-67026882D01*
X151556907Y-67030762D01*
X151556906Y-67030763D01*
X151543547Y-67040469D01*
X151407747Y-67139134D01*
X151403326Y-67144044D01*
X151403325Y-67144045D01*
X151284999Y-67275460D01*
X151279960Y-67281056D01*
X151184473Y-67446444D01*
X151139102Y-67586082D01*
X151129613Y-67615285D01*
X151098875Y-67665444D01*
X150895089Y-67869230D01*
X150880677Y-67881616D01*
X150869082Y-67890149D01*
X150869077Y-67890154D01*
X150863182Y-67894492D01*
X150858443Y-67900070D01*
X150858440Y-67900073D01*
X150828965Y-67934768D01*
X150822035Y-67942284D01*
X150816340Y-67947979D01*
X150814060Y-67950861D01*
X150798719Y-67970251D01*
X150795928Y-67973655D01*
X150753409Y-68023703D01*
X150748667Y-68029285D01*
X150745339Y-68035801D01*
X150741972Y-68040850D01*
X150738805Y-68045979D01*
X150734266Y-68051716D01*
X150703345Y-68117875D01*
X150701442Y-68121769D01*
X150668231Y-68186808D01*
X150666492Y-68193916D01*
X150664393Y-68199559D01*
X150662476Y-68205322D01*
X150659378Y-68211950D01*
X150657888Y-68219112D01*
X150657888Y-68219113D01*
X150644514Y-68283412D01*
X150643544Y-68287696D01*
X150626192Y-68358610D01*
X150625500Y-68369764D01*
X150625464Y-68369762D01*
X150625225Y-68373755D01*
X150624851Y-68377947D01*
X150623360Y-68385115D01*
X150623558Y-68392432D01*
X150625454Y-68462521D01*
X150625500Y-68465928D01*
X150625500Y-69616500D01*
X150605498Y-69684621D01*
X150551842Y-69731114D01*
X150499500Y-69742500D01*
X150436905Y-69742500D01*
X150421987Y-69741614D01*
X150396323Y-69738554D01*
X150389329Y-69737720D01*
X150382326Y-69738456D01*
X150382325Y-69738456D01*
X150350414Y-69741810D01*
X150337244Y-69742500D01*
X150085866Y-69742500D01*
X150023684Y-69749255D01*
X149887295Y-69800385D01*
X149770739Y-69887739D01*
X149683385Y-70004295D01*
X149632255Y-70140684D01*
X149625500Y-70202866D01*
X149625500Y-70445017D01*
X149624506Y-70460809D01*
X149620775Y-70490343D01*
X149622402Y-70506932D01*
X149624899Y-70532402D01*
X149625500Y-70544698D01*
X149625500Y-71445017D01*
X149624506Y-71460809D01*
X149620775Y-71490343D01*
X149623807Y-71521267D01*
X149624899Y-71532402D01*
X149625500Y-71544698D01*
X149625500Y-71741500D01*
X149605498Y-71809621D01*
X149551842Y-71856114D01*
X149499500Y-71867500D01*
X148049768Y-71867500D01*
X148038585Y-71866973D01*
X148031092Y-71865298D01*
X148023166Y-71865547D01*
X148023165Y-71865547D01*
X147963002Y-71867438D01*
X147959044Y-71867500D01*
X147931144Y-71867500D01*
X147927154Y-71868004D01*
X147915320Y-71868936D01*
X147871111Y-71870326D01*
X147863495Y-71872539D01*
X147863493Y-71872539D01*
X147851652Y-71875979D01*
X147832293Y-71879988D01*
X147830983Y-71880154D01*
X147812203Y-71882526D01*
X147804837Y-71885442D01*
X147804831Y-71885444D01*
X147771098Y-71898800D01*
X147759868Y-71902645D01*
X147725017Y-71912770D01*
X147717407Y-71914981D01*
X147710584Y-71919016D01*
X147699966Y-71925295D01*
X147682213Y-71933992D01*
X147674568Y-71937019D01*
X147663383Y-71941448D01*
X147656968Y-71946109D01*
X147627612Y-71967437D01*
X147617695Y-71973951D01*
X147579638Y-71996458D01*
X147565317Y-72010779D01*
X147550284Y-72023619D01*
X147533893Y-72035528D01*
X147528843Y-72041632D01*
X147528838Y-72041637D01*
X147505707Y-72069598D01*
X147497717Y-72078379D01*
X146734499Y-72841596D01*
X146672187Y-72875621D01*
X146645404Y-72878500D01*
X146589513Y-72878500D01*
X146583061Y-72879872D01*
X146583056Y-72879872D01*
X146505051Y-72896453D01*
X146402712Y-72918206D01*
X146396682Y-72920891D01*
X146396681Y-72920891D01*
X146234278Y-72993197D01*
X146234276Y-72993198D01*
X146228248Y-72995882D01*
X146222907Y-72999762D01*
X146222906Y-72999763D01*
X146215848Y-73004891D01*
X146073747Y-73108134D01*
X146069326Y-73113044D01*
X146069325Y-73113045D01*
X146016778Y-73171405D01*
X145945960Y-73250056D01*
X145850473Y-73415444D01*
X145791458Y-73597072D01*
X145790768Y-73603633D01*
X145790768Y-73603635D01*
X145772186Y-73780435D01*
X145771496Y-73787000D01*
X145772186Y-73793565D01*
X145790596Y-73968722D01*
X145791458Y-73976928D01*
X145850473Y-74158556D01*
X145945960Y-74323944D01*
X145950378Y-74328851D01*
X145950379Y-74328852D01*
X146067839Y-74459305D01*
X146073747Y-74465866D01*
X146127795Y-74505134D01*
X146209820Y-74564729D01*
X146228248Y-74578118D01*
X146234276Y-74580802D01*
X146234278Y-74580803D01*
X146372062Y-74642148D01*
X146402712Y-74655794D01*
X146491046Y-74674570D01*
X146583056Y-74694128D01*
X146583061Y-74694128D01*
X146589513Y-74695500D01*
X146780487Y-74695500D01*
X146786939Y-74694128D01*
X146786944Y-74694128D01*
X146878954Y-74674570D01*
X146967288Y-74655794D01*
X146997938Y-74642148D01*
X147135722Y-74580803D01*
X147135724Y-74580802D01*
X147141752Y-74578118D01*
X147160181Y-74564729D01*
X147242205Y-74505134D01*
X147296253Y-74465866D01*
X147302161Y-74459305D01*
X147419621Y-74328852D01*
X147419622Y-74328851D01*
X147424040Y-74323944D01*
X147519527Y-74158556D01*
X147578542Y-73976928D01*
X147579405Y-73968722D01*
X147588216Y-73884882D01*
X147595907Y-73811706D01*
X147622920Y-73746050D01*
X147632122Y-73735782D01*
X148196499Y-73171405D01*
X148258811Y-73137379D01*
X148285594Y-73134500D01*
X149755768Y-73134500D01*
X149823889Y-73154502D01*
X149831333Y-73159674D01*
X149880108Y-73196229D01*
X149880110Y-73196230D01*
X149887295Y-73201615D01*
X150023684Y-73252745D01*
X150085866Y-73259500D01*
X150324933Y-73259500D01*
X150341595Y-73260607D01*
X150348765Y-73261563D01*
X150361035Y-73263201D01*
X150361038Y-73263201D01*
X150368015Y-73264132D01*
X150375026Y-73263494D01*
X150375030Y-73263494D01*
X150413208Y-73260019D01*
X150424628Y-73259500D01*
X151324933Y-73259500D01*
X151341595Y-73260607D01*
X151348765Y-73261563D01*
X151361035Y-73263201D01*
X151361038Y-73263201D01*
X151368015Y-73264132D01*
X151375026Y-73263494D01*
X151375030Y-73263494D01*
X151413208Y-73260019D01*
X151424628Y-73259500D01*
X152324933Y-73259500D01*
X152341595Y-73260607D01*
X152348765Y-73261563D01*
X152361035Y-73263201D01*
X152361038Y-73263201D01*
X152368015Y-73264132D01*
X152375026Y-73263494D01*
X152375030Y-73263494D01*
X152413208Y-73260019D01*
X152424628Y-73259500D01*
X152682134Y-73259500D01*
X152744316Y-73252745D01*
X152880705Y-73201615D01*
X152997261Y-73114261D01*
X153084615Y-72997705D01*
X153135745Y-72861316D01*
X153142500Y-72799134D01*
X153142500Y-72563151D01*
X153143726Y-72545615D01*
X153146452Y-72526221D01*
X153146452Y-72526218D01*
X153147001Y-72522313D01*
X153147299Y-72501000D01*
X153143285Y-72465213D01*
X153142500Y-72451169D01*
X153142500Y-71563151D01*
X153143726Y-71545615D01*
X153146452Y-71526221D01*
X153146452Y-71526218D01*
X153147001Y-71522313D01*
X153147299Y-71501000D01*
X153143285Y-71465213D01*
X153142500Y-71451169D01*
X153142500Y-70563151D01*
X153143726Y-70545615D01*
X153146452Y-70526221D01*
X153146452Y-70526218D01*
X153147001Y-70522313D01*
X153147299Y-70501000D01*
X153143285Y-70465213D01*
X153142500Y-70451169D01*
X153142500Y-70202866D01*
X153135745Y-70140684D01*
X153084615Y-70004295D01*
X152997261Y-69887739D01*
X152880705Y-69800385D01*
X152744316Y-69749255D01*
X152682134Y-69742500D01*
X152436905Y-69742500D01*
X152421987Y-69741614D01*
X152396323Y-69738554D01*
X152389329Y-69737720D01*
X152382326Y-69738456D01*
X152382325Y-69738456D01*
X152350414Y-69741810D01*
X152337244Y-69742500D01*
X152268500Y-69742500D01*
X152200379Y-69722498D01*
X152153886Y-69668842D01*
X152142500Y-69616500D01*
X152142500Y-68822579D01*
X152162502Y-68754458D01*
X152216158Y-68707965D01*
X152242302Y-68699333D01*
X152294824Y-68688169D01*
X152294833Y-68688166D01*
X152301288Y-68686794D01*
X152309062Y-68683333D01*
X152469722Y-68611803D01*
X152469724Y-68611802D01*
X152475752Y-68609118D01*
X152511771Y-68582949D01*
X152549804Y-68555316D01*
X152630253Y-68496866D01*
X152685412Y-68435606D01*
X152753621Y-68359852D01*
X152753622Y-68359851D01*
X152758040Y-68354944D01*
X152844774Y-68204717D01*
X152850223Y-68195279D01*
X152850224Y-68195278D01*
X152853527Y-68189556D01*
X152912542Y-68007928D01*
X152919442Y-67942284D01*
X152931814Y-67824565D01*
X152932504Y-67818000D01*
X152912542Y-67628072D01*
X152853527Y-67446444D01*
X152758040Y-67281056D01*
X152738427Y-67259273D01*
X152707711Y-67195266D01*
X152716476Y-67124812D01*
X152761940Y-67070282D01*
X152822399Y-67049336D01*
X152826228Y-67049042D01*
X152833829Y-67048457D01*
X152833832Y-67048456D01*
X152839972Y-67047984D01*
X153030463Y-66994798D01*
X153035967Y-66992018D01*
X153035969Y-66992017D01*
X153201493Y-66908405D01*
X153201495Y-66908404D01*
X153206996Y-66905625D01*
X153211850Y-66901833D01*
X153211859Y-66901827D01*
X153220548Y-66895038D01*
X153286542Y-66868860D01*
X153359592Y-66884339D01*
X153528294Y-66978624D01*
X153716392Y-67039740D01*
X153912777Y-67063158D01*
X153918912Y-67062686D01*
X153918914Y-67062686D01*
X153957428Y-67059722D01*
X153983578Y-67057710D01*
X154053032Y-67072427D01*
X154082339Y-67094244D01*
X154396595Y-67408500D01*
X154430621Y-67470812D01*
X154433500Y-67497595D01*
X154433500Y-72449476D01*
X154413498Y-72517597D01*
X154401142Y-72533779D01*
X154327960Y-72615056D01*
X154232473Y-72780444D01*
X154173458Y-72962072D01*
X154172768Y-72968633D01*
X154172768Y-72968635D01*
X154160282Y-73087438D01*
X154153496Y-73152000D01*
X154154186Y-73158565D01*
X154165184Y-73263201D01*
X154173458Y-73341928D01*
X154232473Y-73523556D01*
X154327960Y-73688944D01*
X154332378Y-73693851D01*
X154332379Y-73693852D01*
X154402389Y-73771606D01*
X154433107Y-73835613D01*
X154424342Y-73906067D01*
X154382814Y-73957852D01*
X154328747Y-73997134D01*
X154324326Y-74002044D01*
X154324325Y-74002045D01*
X154237678Y-74098277D01*
X154200960Y-74139056D01*
X154184320Y-74167878D01*
X154113472Y-74290590D01*
X154105473Y-74304444D01*
X154046458Y-74486072D01*
X154045768Y-74492633D01*
X154045768Y-74492635D01*
X154027186Y-74669435D01*
X154026496Y-74676000D01*
X154027186Y-74682565D01*
X154028546Y-74695500D01*
X154046458Y-74865928D01*
X154105473Y-75047556D01*
X154200960Y-75212944D01*
X154205378Y-75217851D01*
X154205379Y-75217852D01*
X154328747Y-75354866D01*
X154326868Y-75356558D01*
X154358136Y-75407328D01*
X154356774Y-75478312D01*
X154317251Y-75537290D01*
X154252116Y-75565539D01*
X154236581Y-75566500D01*
X153349594Y-75566500D01*
X153281473Y-75546498D01*
X153260499Y-75529595D01*
X152966122Y-75235218D01*
X152932096Y-75172906D01*
X152929907Y-75159293D01*
X152913232Y-75000635D01*
X152913232Y-75000633D01*
X152912542Y-74994072D01*
X152853527Y-74812444D01*
X152758040Y-74647056D01*
X152678254Y-74558444D01*
X152634675Y-74510045D01*
X152634674Y-74510044D01*
X152630253Y-74505134D01*
X152483862Y-74398774D01*
X152481094Y-74396763D01*
X152481093Y-74396762D01*
X152475752Y-74392882D01*
X152469724Y-74390198D01*
X152469722Y-74390197D01*
X152307319Y-74317891D01*
X152307318Y-74317891D01*
X152301288Y-74315206D01*
X152207887Y-74295353D01*
X152120944Y-74276872D01*
X152120939Y-74276872D01*
X152114487Y-74275500D01*
X151923513Y-74275500D01*
X151917061Y-74276872D01*
X151917056Y-74276872D01*
X151830113Y-74295353D01*
X151736712Y-74315206D01*
X151730682Y-74317891D01*
X151730681Y-74317891D01*
X151568278Y-74390197D01*
X151568276Y-74390198D01*
X151562248Y-74392882D01*
X151556907Y-74396762D01*
X151556906Y-74396763D01*
X151554138Y-74398774D01*
X151407747Y-74505134D01*
X151403326Y-74510044D01*
X151403325Y-74510045D01*
X151359747Y-74558444D01*
X151279960Y-74647056D01*
X151184473Y-74812444D01*
X151125458Y-74994072D01*
X151124768Y-75000633D01*
X151124768Y-75000635D01*
X151112230Y-75119928D01*
X151105496Y-75184000D01*
X151106186Y-75190565D01*
X151123455Y-75354866D01*
X151125458Y-75373928D01*
X151184473Y-75555556D01*
X151187776Y-75561278D01*
X151187777Y-75561279D01*
X151197633Y-75578350D01*
X151279960Y-75720944D01*
X151284378Y-75725851D01*
X151284379Y-75725852D01*
X151337774Y-75785153D01*
X151407747Y-75862866D01*
X151472975Y-75910257D01*
X151551803Y-75967529D01*
X151562248Y-75975118D01*
X151568276Y-75977802D01*
X151568278Y-75977803D01*
X151728734Y-76049242D01*
X151736712Y-76052794D01*
X151829252Y-76072464D01*
X151917056Y-76091128D01*
X151917061Y-76091128D01*
X151923513Y-76092500D01*
X151979405Y-76092500D01*
X152047526Y-76112502D01*
X152068501Y-76129405D01*
X152531353Y-76592258D01*
X152538887Y-76600537D01*
X152543000Y-76607018D01*
X152568967Y-76631402D01*
X152592651Y-76653643D01*
X152595493Y-76656398D01*
X152615230Y-76676135D01*
X152618427Y-76678615D01*
X152627447Y-76686318D01*
X152659679Y-76716586D01*
X152666625Y-76720405D01*
X152666628Y-76720407D01*
X152677434Y-76726348D01*
X152693953Y-76737199D01*
X152709959Y-76749614D01*
X152717228Y-76752759D01*
X152717232Y-76752762D01*
X152750537Y-76767174D01*
X152761187Y-76772391D01*
X152799940Y-76793695D01*
X152807615Y-76795666D01*
X152807616Y-76795666D01*
X152819562Y-76798733D01*
X152838266Y-76805137D01*
X152847769Y-76809249D01*
X152856855Y-76813181D01*
X152864678Y-76814420D01*
X152864688Y-76814423D01*
X152900524Y-76820099D01*
X152912144Y-76822505D01*
X152943959Y-76830673D01*
X152954970Y-76833500D01*
X152975224Y-76833500D01*
X152994934Y-76835051D01*
X153014943Y-76838220D01*
X153022835Y-76837474D01*
X153041580Y-76835702D01*
X153058962Y-76834059D01*
X153070819Y-76833500D01*
X155242233Y-76833500D01*
X155253416Y-76834027D01*
X155260909Y-76835702D01*
X155268835Y-76835453D01*
X155268836Y-76835453D01*
X155328986Y-76833562D01*
X155332945Y-76833500D01*
X155360856Y-76833500D01*
X155364791Y-76833003D01*
X155364856Y-76832995D01*
X155376693Y-76832062D01*
X155408951Y-76831048D01*
X155412970Y-76830922D01*
X155420889Y-76830673D01*
X155440343Y-76825021D01*
X155459700Y-76821013D01*
X155471930Y-76819468D01*
X155471931Y-76819468D01*
X155479797Y-76818474D01*
X155487168Y-76815555D01*
X155487170Y-76815555D01*
X155520912Y-76802196D01*
X155532142Y-76798351D01*
X155566983Y-76788229D01*
X155566984Y-76788229D01*
X155574593Y-76786018D01*
X155581412Y-76781985D01*
X155581417Y-76781983D01*
X155592028Y-76775707D01*
X155609776Y-76767012D01*
X155628617Y-76759552D01*
X155664387Y-76733564D01*
X155674307Y-76727048D01*
X155705535Y-76708580D01*
X155705538Y-76708578D01*
X155712362Y-76704542D01*
X155726683Y-76690221D01*
X155741717Y-76677380D01*
X155751694Y-76670131D01*
X155758107Y-76665472D01*
X155763158Y-76659367D01*
X155763163Y-76659362D01*
X155786294Y-76631402D01*
X155794281Y-76622624D01*
X156160499Y-76256405D01*
X156222812Y-76222380D01*
X156249595Y-76219500D01*
X156305487Y-76219500D01*
X156311939Y-76218128D01*
X156311944Y-76218128D01*
X156401113Y-76199174D01*
X156492288Y-76179794D01*
X156534094Y-76161181D01*
X156660722Y-76104803D01*
X156660724Y-76104802D01*
X156666752Y-76102118D01*
X156681879Y-76091128D01*
X156747354Y-76043557D01*
X156821253Y-75989866D01*
X156857400Y-75949721D01*
X156944621Y-75852852D01*
X156944622Y-75852851D01*
X156949040Y-75847944D01*
X157027059Y-75712811D01*
X157041223Y-75688279D01*
X157041224Y-75688278D01*
X157044527Y-75682556D01*
X157103542Y-75500928D01*
X157105407Y-75483189D01*
X157122814Y-75317565D01*
X157123504Y-75311000D01*
X157113198Y-75212944D01*
X157104232Y-75127635D01*
X157104232Y-75127633D01*
X157103542Y-75121072D01*
X157044527Y-74939444D01*
X157039075Y-74930000D01*
X157019846Y-74896695D01*
X159546251Y-74896695D01*
X159546548Y-74901848D01*
X159546548Y-74901851D01*
X159554510Y-75039935D01*
X159559110Y-75119715D01*
X159560247Y-75124761D01*
X159560248Y-75124767D01*
X159578832Y-75207226D01*
X159608222Y-75337639D01*
X159646461Y-75431811D01*
X159686167Y-75529595D01*
X159692266Y-75544616D01*
X159731210Y-75608167D01*
X159800320Y-75720944D01*
X159808987Y-75735088D01*
X159955250Y-75903938D01*
X160127126Y-76046632D01*
X160320000Y-76159338D01*
X160324825Y-76161180D01*
X160324826Y-76161181D01*
X160373569Y-76179794D01*
X160528692Y-76239030D01*
X160533760Y-76240061D01*
X160533763Y-76240062D01*
X160614092Y-76256405D01*
X160747597Y-76283567D01*
X160752772Y-76283757D01*
X160752774Y-76283757D01*
X160965673Y-76291564D01*
X160965677Y-76291564D01*
X160970837Y-76291753D01*
X160975957Y-76291097D01*
X160975959Y-76291097D01*
X161187288Y-76264025D01*
X161187289Y-76264025D01*
X161192416Y-76263368D01*
X161215625Y-76256405D01*
X161401429Y-76200661D01*
X161401434Y-76200659D01*
X161406384Y-76199174D01*
X161606994Y-76100896D01*
X161788860Y-75971173D01*
X161947096Y-75813489D01*
X161959826Y-75795774D01*
X162074435Y-75636277D01*
X162077453Y-75632077D01*
X162104007Y-75578350D01*
X162174136Y-75436453D01*
X162174137Y-75436451D01*
X162176430Y-75431811D01*
X162217914Y-75295271D01*
X162239865Y-75223023D01*
X162239865Y-75223021D01*
X162241370Y-75218069D01*
X162270529Y-74996590D01*
X162270744Y-74987794D01*
X162272074Y-74933365D01*
X162272074Y-74933361D01*
X162272156Y-74930000D01*
X162253852Y-74707361D01*
X162199431Y-74490702D01*
X162110354Y-74285840D01*
X162019094Y-74144774D01*
X161991822Y-74102617D01*
X161991820Y-74102614D01*
X161989014Y-74098277D01*
X161838670Y-73933051D01*
X161834619Y-73929852D01*
X161834615Y-73929848D01*
X161667414Y-73797800D01*
X161667410Y-73797798D01*
X161663359Y-73794598D01*
X161622053Y-73771796D01*
X161572084Y-73721364D01*
X161557312Y-73651921D01*
X161582428Y-73585516D01*
X161609780Y-73558909D01*
X161668154Y-73517271D01*
X161788860Y-73431173D01*
X161947096Y-73273489D01*
X161959826Y-73255774D01*
X162074435Y-73096277D01*
X162077453Y-73092077D01*
X162130167Y-72985419D01*
X162174136Y-72896453D01*
X162174137Y-72896451D01*
X162176430Y-72891811D01*
X162231168Y-72711647D01*
X162239865Y-72683023D01*
X162239865Y-72683021D01*
X162241370Y-72678069D01*
X162270529Y-72456590D01*
X162270611Y-72453240D01*
X162272074Y-72393365D01*
X162272074Y-72393361D01*
X162272156Y-72390000D01*
X162253852Y-72167361D01*
X162199431Y-71950702D01*
X162110354Y-71745840D01*
X162040424Y-71637745D01*
X161991822Y-71562617D01*
X161991820Y-71562614D01*
X161989014Y-71558277D01*
X161838670Y-71393051D01*
X161834619Y-71389852D01*
X161834615Y-71389848D01*
X161667414Y-71257800D01*
X161667410Y-71257798D01*
X161663359Y-71254598D01*
X161621569Y-71231529D01*
X161617730Y-71227655D01*
X164228858Y-71227655D01*
X164264104Y-71486638D01*
X164265412Y-71491124D01*
X164265412Y-71491126D01*
X164278611Y-71536411D01*
X164337243Y-71737567D01*
X164446668Y-71974928D01*
X164449231Y-71978837D01*
X164587410Y-72189596D01*
X164587414Y-72189601D01*
X164589976Y-72193509D01*
X164764018Y-72388506D01*
X164964970Y-72555637D01*
X164968973Y-72558066D01*
X165184422Y-72688804D01*
X165184426Y-72688806D01*
X165188419Y-72691229D01*
X165429455Y-72792303D01*
X165682783Y-72856641D01*
X165687434Y-72857109D01*
X165687438Y-72857110D01*
X165871275Y-72875621D01*
X165899867Y-72878500D01*
X166055354Y-72878500D01*
X166057679Y-72878327D01*
X166057685Y-72878327D01*
X166245000Y-72864407D01*
X166245004Y-72864406D01*
X166249652Y-72864061D01*
X166254200Y-72863032D01*
X166254206Y-72863031D01*
X166440601Y-72820853D01*
X166504577Y-72806377D01*
X166527047Y-72797639D01*
X166743824Y-72713340D01*
X166743827Y-72713339D01*
X166748177Y-72711647D01*
X166975098Y-72581951D01*
X167180357Y-72420138D01*
X167359443Y-72229763D01*
X167470554Y-72069598D01*
X167505759Y-72018851D01*
X167505761Y-72018848D01*
X167508424Y-72015009D01*
X167510510Y-72010779D01*
X167621960Y-71784781D01*
X167621961Y-71784778D01*
X167624025Y-71780593D01*
X167635150Y-71745840D01*
X167702280Y-71536123D01*
X167703707Y-71531665D01*
X167745721Y-71273693D01*
X167747842Y-71111654D01*
X167749081Y-71017022D01*
X167749081Y-71017019D01*
X167749142Y-71012345D01*
X167713896Y-70753362D01*
X167711624Y-70745565D01*
X167664101Y-70582523D01*
X167640757Y-70502433D01*
X167635184Y-70490343D01*
X167582464Y-70375986D01*
X167531332Y-70265072D01*
X167454930Y-70148540D01*
X167390590Y-70050404D01*
X167390586Y-70050399D01*
X167388024Y-70046491D01*
X167213982Y-69851494D01*
X167013030Y-69684363D01*
X166901195Y-69616500D01*
X166793578Y-69551196D01*
X166793574Y-69551194D01*
X166789581Y-69548771D01*
X166548545Y-69447697D01*
X166295217Y-69383359D01*
X166290566Y-69382891D01*
X166290562Y-69382890D01*
X166081271Y-69361816D01*
X166078133Y-69361500D01*
X165922646Y-69361500D01*
X165920321Y-69361673D01*
X165920315Y-69361673D01*
X165733000Y-69375593D01*
X165732996Y-69375594D01*
X165728348Y-69375939D01*
X165723800Y-69376968D01*
X165723794Y-69376969D01*
X165594950Y-69406124D01*
X165473423Y-69433623D01*
X165469071Y-69435315D01*
X165469069Y-69435316D01*
X165234176Y-69526660D01*
X165234173Y-69526661D01*
X165229823Y-69528353D01*
X165225769Y-69530670D01*
X165225767Y-69530671D01*
X165189856Y-69551196D01*
X165002902Y-69658049D01*
X164797643Y-69819862D01*
X164618557Y-70010237D01*
X164469576Y-70224991D01*
X164467510Y-70229181D01*
X164467508Y-70229184D01*
X164357164Y-70452941D01*
X164353975Y-70459407D01*
X164352553Y-70463850D01*
X164352552Y-70463852D01*
X164289813Y-70659851D01*
X164274293Y-70708335D01*
X164232279Y-70966307D01*
X164231676Y-71012345D01*
X164229917Y-71146783D01*
X164228858Y-71227655D01*
X161617730Y-71227655D01*
X161571598Y-71181097D01*
X161556826Y-71111654D01*
X161581942Y-71045248D01*
X161609294Y-71018641D01*
X161784328Y-70893792D01*
X161792200Y-70887139D01*
X161943052Y-70736812D01*
X161949730Y-70728965D01*
X162074003Y-70556020D01*
X162079313Y-70547183D01*
X162173670Y-70356267D01*
X162177469Y-70346672D01*
X162239377Y-70142910D01*
X162241555Y-70132837D01*
X162242986Y-70121962D01*
X162240775Y-70107778D01*
X162227617Y-70104000D01*
X159592225Y-70104000D01*
X159578694Y-70107973D01*
X159577257Y-70117966D01*
X159607565Y-70252446D01*
X159610645Y-70262275D01*
X159690770Y-70459603D01*
X159695413Y-70468794D01*
X159806694Y-70650388D01*
X159812777Y-70658699D01*
X159952213Y-70819667D01*
X159959580Y-70826883D01*
X160123434Y-70962916D01*
X160131881Y-70968831D01*
X160200969Y-71009203D01*
X160249693Y-71060842D01*
X160262764Y-71130625D01*
X160236033Y-71196396D01*
X160195584Y-71229752D01*
X160182607Y-71236507D01*
X160178474Y-71239610D01*
X160178471Y-71239612D01*
X160008100Y-71367530D01*
X160003965Y-71370635D01*
X160000393Y-71374373D01*
X159860018Y-71521267D01*
X159849629Y-71532138D01*
X159846715Y-71536410D01*
X159846714Y-71536411D01*
X159798020Y-71607794D01*
X159723743Y-71716680D01*
X159708003Y-71750590D01*
X159645406Y-71885444D01*
X159629688Y-71919305D01*
X159569989Y-72134570D01*
X159546251Y-72356695D01*
X159546548Y-72361848D01*
X159546548Y-72361851D01*
X159552011Y-72456590D01*
X159559110Y-72579715D01*
X159560247Y-72584761D01*
X159560248Y-72584767D01*
X159577328Y-72660553D01*
X159608222Y-72797639D01*
X159665138Y-72937807D01*
X159688720Y-72995882D01*
X159692266Y-73004616D01*
X159694965Y-73009020D01*
X159780461Y-73148537D01*
X159808987Y-73195088D01*
X159955250Y-73363938D01*
X160127126Y-73506632D01*
X160156088Y-73523556D01*
X160200445Y-73549476D01*
X160249169Y-73601114D01*
X160262240Y-73670897D01*
X160235509Y-73736669D01*
X160195055Y-73770027D01*
X160189400Y-73772971D01*
X160182607Y-73776507D01*
X160178474Y-73779610D01*
X160178471Y-73779612D01*
X160010049Y-73906067D01*
X160003965Y-73910635D01*
X159849629Y-74072138D01*
X159723743Y-74256680D01*
X159693542Y-74321743D01*
X159653002Y-74409080D01*
X159629688Y-74459305D01*
X159569989Y-74674570D01*
X159546251Y-74896695D01*
X157019846Y-74896695D01*
X156952341Y-74779774D01*
X156949040Y-74774056D01*
X156884469Y-74702342D01*
X156825675Y-74637045D01*
X156825674Y-74637044D01*
X156821253Y-74632134D01*
X156666752Y-74519882D01*
X156660725Y-74517199D01*
X156660717Y-74517194D01*
X156630991Y-74503959D01*
X156576895Y-74457978D01*
X156556247Y-74390051D01*
X156575600Y-74321743D01*
X156593146Y-74299758D01*
X158136247Y-72756657D01*
X158144537Y-72749113D01*
X158151018Y-72745000D01*
X158162922Y-72732324D01*
X158197658Y-72695333D01*
X158200413Y-72692491D01*
X158220134Y-72672770D01*
X158222612Y-72669575D01*
X158230318Y-72660553D01*
X158255158Y-72634101D01*
X158260586Y-72628321D01*
X158266732Y-72617142D01*
X158270346Y-72610568D01*
X158281199Y-72594045D01*
X158282356Y-72592553D01*
X158293613Y-72578041D01*
X158311176Y-72537457D01*
X158316383Y-72526827D01*
X158337695Y-72488060D01*
X158339666Y-72480383D01*
X158339668Y-72480378D01*
X158342732Y-72468442D01*
X158349138Y-72449730D01*
X158354034Y-72438417D01*
X158357181Y-72431145D01*
X158358467Y-72423029D01*
X158364097Y-72387481D01*
X158366504Y-72375860D01*
X158375528Y-72340711D01*
X158375528Y-72340710D01*
X158377500Y-72333030D01*
X158377500Y-72312769D01*
X158379051Y-72293058D01*
X158380979Y-72280885D01*
X158382219Y-72273057D01*
X158378059Y-72229046D01*
X158377500Y-72217189D01*
X158377500Y-66896370D01*
X158397502Y-66828249D01*
X158425926Y-66797082D01*
X158442847Y-66783861D01*
X158560410Y-66647663D01*
X158568049Y-66638813D01*
X158568050Y-66638811D01*
X158572078Y-66634145D01*
X158669769Y-66462179D01*
X158681870Y-66425802D01*
X158684934Y-66416592D01*
X158725416Y-66358267D01*
X158791004Y-66331088D01*
X158860874Y-66343683D01*
X158893587Y-66367268D01*
X159513595Y-66987275D01*
X159547620Y-67049588D01*
X159550500Y-67076371D01*
X159550500Y-68208134D01*
X159557255Y-68270316D01*
X159608385Y-68406705D01*
X159695739Y-68523261D01*
X159812295Y-68610615D01*
X159820704Y-68613767D01*
X159820705Y-68613768D01*
X159929960Y-68654726D01*
X159986725Y-68697367D01*
X160011425Y-68763929D01*
X159996218Y-68833278D01*
X159976825Y-68859759D01*
X159853590Y-68988717D01*
X159847104Y-68996727D01*
X159727098Y-69172649D01*
X159722000Y-69181623D01*
X159632338Y-69374783D01*
X159628775Y-69384470D01*
X159573389Y-69584183D01*
X159574912Y-69592607D01*
X159587292Y-69596000D01*
X162227344Y-69596000D01*
X162240875Y-69592027D01*
X162242180Y-69582947D01*
X162200214Y-69415875D01*
X162196894Y-69406124D01*
X162111972Y-69210814D01*
X162107105Y-69201739D01*
X161991426Y-69022926D01*
X161985136Y-69014757D01*
X161841293Y-68856677D01*
X161810241Y-68792831D01*
X161818635Y-68722333D01*
X161863812Y-68667564D01*
X161890256Y-68653895D01*
X161997297Y-68613767D01*
X162005705Y-68610615D01*
X162122261Y-68523261D01*
X162209615Y-68406705D01*
X162226123Y-68362669D01*
X162822001Y-68362669D01*
X162822371Y-68369490D01*
X162827895Y-68420352D01*
X162831521Y-68435604D01*
X162876676Y-68556054D01*
X162885214Y-68571649D01*
X162961715Y-68673724D01*
X162974276Y-68686285D01*
X163076351Y-68762786D01*
X163091946Y-68771324D01*
X163212394Y-68816478D01*
X163227649Y-68820105D01*
X163278514Y-68825631D01*
X163285328Y-68826000D01*
X163557885Y-68826000D01*
X163573124Y-68821525D01*
X163574329Y-68820135D01*
X163576000Y-68812452D01*
X163576000Y-68807884D01*
X164084000Y-68807884D01*
X164088475Y-68823123D01*
X164089865Y-68824328D01*
X164097548Y-68825999D01*
X164374669Y-68825999D01*
X164381490Y-68825629D01*
X164432352Y-68820105D01*
X164447604Y-68816479D01*
X164568054Y-68771324D01*
X164583649Y-68762786D01*
X164685724Y-68686285D01*
X164698285Y-68673724D01*
X164774786Y-68571649D01*
X164783324Y-68556054D01*
X164828478Y-68435606D01*
X164832105Y-68420351D01*
X164837631Y-68369486D01*
X164838000Y-68362672D01*
X164838000Y-68090115D01*
X164833525Y-68074876D01*
X164832135Y-68073671D01*
X164824452Y-68072000D01*
X164102115Y-68072000D01*
X164086876Y-68076475D01*
X164085671Y-68077865D01*
X164084000Y-68085548D01*
X164084000Y-68807884D01*
X163576000Y-68807884D01*
X163576000Y-68090115D01*
X163571525Y-68074876D01*
X163570135Y-68073671D01*
X163562452Y-68072000D01*
X162840116Y-68072000D01*
X162824877Y-68076475D01*
X162823672Y-68077865D01*
X162822001Y-68085548D01*
X162822001Y-68362669D01*
X162226123Y-68362669D01*
X162260745Y-68270316D01*
X162267500Y-68208134D01*
X162267500Y-67545885D01*
X162822000Y-67545885D01*
X162826475Y-67561124D01*
X162827865Y-67562329D01*
X162835548Y-67564000D01*
X163557885Y-67564000D01*
X163573124Y-67559525D01*
X163574329Y-67558135D01*
X163576000Y-67550452D01*
X163576000Y-67545885D01*
X164084000Y-67545885D01*
X164088475Y-67561124D01*
X164089865Y-67562329D01*
X164097548Y-67564000D01*
X164819884Y-67564000D01*
X164835123Y-67559525D01*
X164836328Y-67558135D01*
X164837999Y-67550452D01*
X164837999Y-67273331D01*
X164837629Y-67266510D01*
X164832105Y-67215648D01*
X164828479Y-67200396D01*
X164783324Y-67079946D01*
X164774786Y-67064351D01*
X164698285Y-66962276D01*
X164685724Y-66949715D01*
X164583649Y-66873214D01*
X164568054Y-66864676D01*
X164447606Y-66819522D01*
X164432351Y-66815895D01*
X164381486Y-66810369D01*
X164374672Y-66810000D01*
X164102115Y-66810000D01*
X164086876Y-66814475D01*
X164085671Y-66815865D01*
X164084000Y-66823548D01*
X164084000Y-67545885D01*
X163576000Y-67545885D01*
X163576000Y-66828116D01*
X163571525Y-66812877D01*
X163570135Y-66811672D01*
X163562452Y-66810001D01*
X163285331Y-66810001D01*
X163278510Y-66810371D01*
X163227648Y-66815895D01*
X163212396Y-66819521D01*
X163091946Y-66864676D01*
X163076351Y-66873214D01*
X162974276Y-66949715D01*
X162961715Y-66962276D01*
X162885214Y-67064351D01*
X162876676Y-67079946D01*
X162831522Y-67200394D01*
X162827895Y-67215649D01*
X162822369Y-67266514D01*
X162822000Y-67273328D01*
X162822000Y-67545885D01*
X162267500Y-67545885D01*
X162267500Y-66411866D01*
X162260745Y-66349684D01*
X162209615Y-66213295D01*
X162122261Y-66096739D01*
X162005705Y-66009385D01*
X161869316Y-65958255D01*
X161807134Y-65951500D01*
X160675371Y-65951500D01*
X160607250Y-65931498D01*
X160586276Y-65914595D01*
X159799405Y-65127724D01*
X159765379Y-65065412D01*
X159762500Y-65038629D01*
X159762500Y-63948069D01*
X159763933Y-63929118D01*
X159766099Y-63914883D01*
X159766099Y-63914881D01*
X159767199Y-63907651D01*
X159762915Y-63854982D01*
X159762500Y-63844767D01*
X159762500Y-63836707D01*
X159759211Y-63808493D01*
X159758778Y-63804118D01*
X159753454Y-63738661D01*
X159753453Y-63738658D01*
X159752860Y-63731363D01*
X159750604Y-63724399D01*
X159749413Y-63718440D01*
X159748029Y-63712585D01*
X159747182Y-63705319D01*
X159722265Y-63636673D01*
X159720848Y-63632545D01*
X159700607Y-63570064D01*
X159700606Y-63570062D01*
X159698351Y-63563101D01*
X159694555Y-63556846D01*
X159692049Y-63551372D01*
X159689330Y-63545942D01*
X159686833Y-63539063D01*
X159646809Y-63478016D01*
X159644472Y-63474312D01*
X159622052Y-63437364D01*
X159603813Y-63368752D01*
X159625564Y-63301169D01*
X159680401Y-63256075D01*
X159729771Y-63246000D01*
X168530000Y-63246000D01*
X168598121Y-63266002D01*
X168644614Y-63319658D01*
X168656000Y-63372000D01*
X168656000Y-78868000D01*
X168635998Y-78936121D01*
X168582342Y-78982614D01*
X168530000Y-78994000D01*
X122300000Y-78994000D01*
X122231879Y-78973998D01*
X122185386Y-78920342D01*
X122174000Y-78868000D01*
X122174000Y-77653240D01*
X122194002Y-77585119D01*
X122247658Y-77538626D01*
X122317932Y-77528522D01*
X122382512Y-77558016D01*
X122404212Y-77582417D01*
X122530544Y-77768307D01*
X122697332Y-77944681D01*
X122701358Y-77947759D01*
X122701359Y-77947760D01*
X122886154Y-78089047D01*
X122886158Y-78089050D01*
X122890174Y-78092120D01*
X123104109Y-78206831D01*
X123333631Y-78285862D01*
X123432978Y-78303022D01*
X123568926Y-78326504D01*
X123568932Y-78326505D01*
X123572836Y-78327179D01*
X123576797Y-78327359D01*
X123576798Y-78327359D01*
X123600506Y-78328436D01*
X123600525Y-78328436D01*
X123601925Y-78328500D01*
X125271001Y-78328500D01*
X125273509Y-78328298D01*
X125273514Y-78328298D01*
X125446924Y-78314346D01*
X125446929Y-78314345D01*
X125451965Y-78313940D01*
X125456873Y-78312734D01*
X125456876Y-78312734D01*
X125682792Y-78257244D01*
X125687706Y-78256037D01*
X125692358Y-78254062D01*
X125692362Y-78254061D01*
X125906498Y-78163165D01*
X125911156Y-78161188D01*
X126017037Y-78094511D01*
X126112288Y-78034528D01*
X126112291Y-78034526D01*
X126116567Y-78031833D01*
X126215422Y-77944681D01*
X126294858Y-77874650D01*
X126294861Y-77874647D01*
X126298655Y-77871302D01*
X126452734Y-77683722D01*
X126574841Y-77473922D01*
X126661833Y-77247298D01*
X126664298Y-77235500D01*
X126710440Y-77014631D01*
X126710440Y-77014627D01*
X126711474Y-77009680D01*
X126722486Y-76767183D01*
X126721064Y-76754890D01*
X126695167Y-76531071D01*
X126695166Y-76531067D01*
X126694585Y-76526044D01*
X126692006Y-76516928D01*
X126640119Y-76333565D01*
X126628490Y-76292468D01*
X126626356Y-76287892D01*
X126626354Y-76287886D01*
X126576589Y-76181166D01*
X126575375Y-76178562D01*
X126564714Y-76108370D01*
X126593694Y-76043557D01*
X126653114Y-76004701D01*
X126673560Y-76000333D01*
X126843504Y-75978563D01*
X126843505Y-75978563D01*
X126848632Y-75977906D01*
X126857925Y-75975118D01*
X127061591Y-75914015D01*
X127061592Y-75914014D01*
X127066537Y-75912531D01*
X127270839Y-75812444D01*
X127275043Y-75809446D01*
X127275047Y-75809443D01*
X127451847Y-75683333D01*
X127451849Y-75683331D01*
X127456051Y-75680334D01*
X127617199Y-75519747D01*
X127697981Y-75407328D01*
X127746938Y-75339198D01*
X127746942Y-75339192D01*
X127749956Y-75334997D01*
X127805297Y-75223023D01*
X127848461Y-75135688D01*
X127848462Y-75135686D01*
X127850755Y-75131046D01*
X127910815Y-74933365D01*
X127915388Y-74918314D01*
X127915388Y-74918313D01*
X127916890Y-74913370D01*
X127921444Y-74878782D01*
X127946148Y-74691136D01*
X127946148Y-74691132D01*
X127946585Y-74687815D01*
X127947334Y-74657166D01*
X127948160Y-74623365D01*
X127948160Y-74623361D01*
X127948242Y-74620000D01*
X127929601Y-74393264D01*
X127874178Y-74172617D01*
X127804420Y-74012185D01*
X127785522Y-73968722D01*
X127785520Y-73968719D01*
X127783462Y-73963985D01*
X127664719Y-73780435D01*
X127662698Y-73777311D01*
X127662696Y-73777308D01*
X127659890Y-73772971D01*
X127506779Y-73604704D01*
X127328241Y-73463704D01*
X127323717Y-73461206D01*
X127323713Y-73461204D01*
X127278122Y-73436036D01*
X127228151Y-73385603D01*
X127213380Y-73316160D01*
X127238497Y-73249755D01*
X127266745Y-73222515D01*
X127296594Y-73201615D01*
X127339738Y-73171405D01*
X127399789Y-73129357D01*
X127399792Y-73129355D01*
X127404300Y-73126198D01*
X127541202Y-72989296D01*
X127603514Y-72955270D01*
X127674329Y-72960335D01*
X127719392Y-72989296D01*
X131449343Y-76719247D01*
X131456887Y-76727537D01*
X131461000Y-76734018D01*
X131466777Y-76739443D01*
X131510667Y-76780658D01*
X131513509Y-76783413D01*
X131533230Y-76803134D01*
X131536425Y-76805612D01*
X131545447Y-76813318D01*
X131577679Y-76843586D01*
X131584628Y-76847406D01*
X131595432Y-76853346D01*
X131611956Y-76864199D01*
X131627959Y-76876613D01*
X131668543Y-76894176D01*
X131679173Y-76899383D01*
X131717940Y-76920695D01*
X131725617Y-76922666D01*
X131725622Y-76922668D01*
X131737558Y-76925732D01*
X131756266Y-76932137D01*
X131774855Y-76940181D01*
X131782680Y-76941420D01*
X131782682Y-76941421D01*
X131818519Y-76947097D01*
X131830140Y-76949504D01*
X131865289Y-76958528D01*
X131872970Y-76960500D01*
X131893231Y-76960500D01*
X131912940Y-76962051D01*
X131932943Y-76965219D01*
X131940835Y-76964473D01*
X131946062Y-76963979D01*
X131976954Y-76961059D01*
X131988811Y-76960500D01*
X134419800Y-76960500D01*
X134487921Y-76980502D01*
X134507147Y-76996843D01*
X134507420Y-76996540D01*
X134512332Y-77000963D01*
X134516747Y-77005866D01*
X134528811Y-77014631D01*
X134665520Y-77113956D01*
X134671248Y-77118118D01*
X134677276Y-77120802D01*
X134677278Y-77120803D01*
X134839681Y-77193109D01*
X134845712Y-77195794D01*
X134939113Y-77215647D01*
X135026056Y-77234128D01*
X135026061Y-77234128D01*
X135032513Y-77235500D01*
X135223487Y-77235500D01*
X135229939Y-77234128D01*
X135229944Y-77234128D01*
X135316887Y-77215647D01*
X135410288Y-77195794D01*
X135416319Y-77193109D01*
X135578722Y-77120803D01*
X135578724Y-77120802D01*
X135584752Y-77118118D01*
X135590481Y-77113956D01*
X135727189Y-77014631D01*
X135739253Y-77005866D01*
X135775852Y-76965219D01*
X135862621Y-76868852D01*
X135862622Y-76868851D01*
X135867040Y-76863944D01*
X135927311Y-76759552D01*
X135959223Y-76704279D01*
X135959224Y-76704278D01*
X135962527Y-76698556D01*
X136021542Y-76516928D01*
X136041504Y-76327000D01*
X136037780Y-76291564D01*
X136022232Y-76143635D01*
X136022232Y-76143633D01*
X136021542Y-76137072D01*
X135962527Y-75955444D01*
X135867040Y-75790056D01*
X135797485Y-75712808D01*
X135766770Y-75648803D01*
X135775533Y-75578350D01*
X135797484Y-75544194D01*
X135867040Y-75466944D01*
X135940794Y-75339198D01*
X135959223Y-75307279D01*
X135959224Y-75307278D01*
X135962527Y-75301556D01*
X136021542Y-75119928D01*
X136034157Y-74999908D01*
X136040814Y-74936565D01*
X136041504Y-74930000D01*
X136021542Y-74740072D01*
X135962527Y-74558444D01*
X135867040Y-74393056D01*
X135822042Y-74343080D01*
X135743675Y-74256045D01*
X135743674Y-74256044D01*
X135739253Y-74251134D01*
X135611831Y-74158556D01*
X135590094Y-74142763D01*
X135590093Y-74142762D01*
X135584752Y-74138882D01*
X135578724Y-74136198D01*
X135578722Y-74136197D01*
X135416319Y-74063891D01*
X135416318Y-74063891D01*
X135410288Y-74061206D01*
X135316887Y-74041353D01*
X135229944Y-74022872D01*
X135229939Y-74022872D01*
X135223487Y-74021500D01*
X135167595Y-74021500D01*
X135099474Y-74001498D01*
X135078500Y-73984595D01*
X130821652Y-69727747D01*
X130814112Y-69719461D01*
X130810000Y-69712982D01*
X130780490Y-69685270D01*
X130760349Y-69666357D01*
X130757507Y-69663602D01*
X130737770Y-69643865D01*
X130734573Y-69641385D01*
X130725551Y-69633680D01*
X130699100Y-69608841D01*
X130693321Y-69603414D01*
X130686375Y-69599595D01*
X130686372Y-69599593D01*
X130675566Y-69593652D01*
X130659047Y-69582801D01*
X130658583Y-69582441D01*
X130643041Y-69570386D01*
X130635772Y-69567241D01*
X130635768Y-69567238D01*
X130602463Y-69552826D01*
X130591813Y-69547609D01*
X130553060Y-69526305D01*
X130533437Y-69521267D01*
X130514734Y-69514863D01*
X130503420Y-69509967D01*
X130503419Y-69509967D01*
X130496145Y-69506819D01*
X130488322Y-69505580D01*
X130488312Y-69505577D01*
X130452476Y-69499901D01*
X130440856Y-69497495D01*
X130405711Y-69488472D01*
X130405710Y-69488472D01*
X130398030Y-69486500D01*
X130377776Y-69486500D01*
X130358065Y-69484949D01*
X130345886Y-69483020D01*
X130338057Y-69481780D01*
X130330165Y-69482526D01*
X130294039Y-69485941D01*
X130282181Y-69486500D01*
X127779394Y-69486500D01*
X127711273Y-69466498D01*
X127676181Y-69432771D01*
X127569357Y-69280211D01*
X127569355Y-69280208D01*
X127566198Y-69275700D01*
X127404300Y-69113802D01*
X127399792Y-69110645D01*
X127399789Y-69110643D01*
X127269620Y-69019498D01*
X127225292Y-68964041D01*
X127217983Y-68893422D01*
X127250014Y-68830061D01*
X127271231Y-68812993D01*
X127270839Y-68812444D01*
X127451847Y-68683333D01*
X127451849Y-68683331D01*
X127456051Y-68680334D01*
X127617199Y-68519747D01*
X127633641Y-68496866D01*
X127746938Y-68339198D01*
X127746942Y-68339192D01*
X127749956Y-68334997D01*
X127812656Y-68208134D01*
X127848461Y-68135688D01*
X127848462Y-68135686D01*
X127850755Y-68131046D01*
X127899608Y-67970251D01*
X127907280Y-67945000D01*
X131928496Y-67945000D01*
X131929186Y-67951565D01*
X131947530Y-68126095D01*
X131948458Y-68134928D01*
X132007473Y-68316556D01*
X132010776Y-68322278D01*
X132010777Y-68322279D01*
X132038192Y-68369762D01*
X132102960Y-68481944D01*
X132107378Y-68486851D01*
X132107379Y-68486852D01*
X132116094Y-68496531D01*
X132230747Y-68623866D01*
X132312596Y-68683333D01*
X132366275Y-68722333D01*
X132385248Y-68736118D01*
X132391276Y-68738802D01*
X132391278Y-68738803D01*
X132553681Y-68811109D01*
X132559712Y-68813794D01*
X132636242Y-68830061D01*
X132740056Y-68852128D01*
X132740061Y-68852128D01*
X132746513Y-68853500D01*
X132937487Y-68853500D01*
X132943939Y-68852128D01*
X132943944Y-68852128D01*
X133047758Y-68830061D01*
X133124288Y-68813794D01*
X133130319Y-68811109D01*
X133292722Y-68738803D01*
X133292724Y-68738802D01*
X133298752Y-68736118D01*
X133317726Y-68722333D01*
X133431671Y-68639546D01*
X133453253Y-68623866D01*
X133457668Y-68618963D01*
X133462580Y-68614540D01*
X133463705Y-68615789D01*
X133517014Y-68582949D01*
X133550200Y-68578500D01*
X134428618Y-68578500D01*
X134496739Y-68598502D01*
X134543232Y-68652158D01*
X134546599Y-68660269D01*
X134554122Y-68680334D01*
X134558385Y-68691705D01*
X134645739Y-68808261D01*
X134762295Y-68895615D01*
X134898684Y-68946745D01*
X134960866Y-68953500D01*
X136057134Y-68953500D01*
X136119316Y-68946745D01*
X136255705Y-68895615D01*
X136372261Y-68808261D01*
X136459615Y-68691705D01*
X136510745Y-68555316D01*
X136517500Y-68493134D01*
X136517500Y-67396866D01*
X136510745Y-67334684D01*
X136459615Y-67198295D01*
X136372261Y-67081739D01*
X136255705Y-66994385D01*
X136119316Y-66943255D01*
X136057134Y-66936500D01*
X134960866Y-66936500D01*
X134898684Y-66943255D01*
X134762295Y-66994385D01*
X134645739Y-67081739D01*
X134558385Y-67198295D01*
X134555233Y-67206703D01*
X134555231Y-67206707D01*
X134546599Y-67229731D01*
X134503957Y-67286495D01*
X134437395Y-67311194D01*
X134428618Y-67311500D01*
X133550200Y-67311500D01*
X133482079Y-67291498D01*
X133462853Y-67275157D01*
X133462580Y-67275460D01*
X133457668Y-67271037D01*
X133453253Y-67266134D01*
X133355712Y-67195266D01*
X133304094Y-67157763D01*
X133304093Y-67157762D01*
X133298752Y-67153882D01*
X133292724Y-67151198D01*
X133292722Y-67151197D01*
X133130319Y-67078891D01*
X133130318Y-67078891D01*
X133124288Y-67076206D01*
X133010465Y-67052012D01*
X132943944Y-67037872D01*
X132943939Y-67037872D01*
X132937487Y-67036500D01*
X132746513Y-67036500D01*
X132740061Y-67037872D01*
X132740056Y-67037872D01*
X132673535Y-67052012D01*
X132559712Y-67076206D01*
X132553682Y-67078891D01*
X132553681Y-67078891D01*
X132391278Y-67151197D01*
X132391276Y-67151198D01*
X132385248Y-67153882D01*
X132379907Y-67157762D01*
X132379906Y-67157763D01*
X132358896Y-67173028D01*
X132230747Y-67266134D01*
X132226326Y-67271044D01*
X132226325Y-67271045D01*
X132113036Y-67396866D01*
X132102960Y-67408056D01*
X132099659Y-67413774D01*
X132012926Y-67564000D01*
X132007473Y-67573444D01*
X131948458Y-67755072D01*
X131947768Y-67761633D01*
X131947768Y-67761635D01*
X131933549Y-67896920D01*
X131928496Y-67945000D01*
X127907280Y-67945000D01*
X127915388Y-67918314D01*
X127915388Y-67918313D01*
X127916890Y-67913370D01*
X127927945Y-67829399D01*
X127946148Y-67691136D01*
X127946148Y-67691132D01*
X127946585Y-67687815D01*
X127946667Y-67684463D01*
X127948160Y-67623365D01*
X127948160Y-67623361D01*
X127948242Y-67620000D01*
X127929601Y-67393264D01*
X127874178Y-67172617D01*
X127815573Y-67037836D01*
X127785522Y-66968722D01*
X127785520Y-66968719D01*
X127783462Y-66963985D01*
X127690005Y-66819522D01*
X127662698Y-66777311D01*
X127662696Y-66777308D01*
X127659890Y-66772971D01*
X127506779Y-66604704D01*
X127328241Y-66463704D01*
X127129072Y-66353757D01*
X127124203Y-66352033D01*
X127124199Y-66352031D01*
X126919496Y-66279541D01*
X126919492Y-66279540D01*
X126914621Y-66277815D01*
X126909528Y-66276908D01*
X126909525Y-66276907D01*
X126695744Y-66238827D01*
X126695741Y-66238827D01*
X126690645Y-66237919D01*
X126685469Y-66237856D01*
X126683250Y-66237646D01*
X126617314Y-66211320D01*
X126614327Y-66207134D01*
X139834500Y-66207134D01*
X139841255Y-66269316D01*
X139892385Y-66405705D01*
X139979739Y-66522261D01*
X140096295Y-66609615D01*
X140232684Y-66660745D01*
X140294866Y-66667500D01*
X141391134Y-66667500D01*
X141453316Y-66660745D01*
X141589705Y-66609615D01*
X141706261Y-66522261D01*
X141793615Y-66405705D01*
X141803482Y-66379384D01*
X141813833Y-66351774D01*
X141856475Y-66295010D01*
X141891170Y-66278415D01*
X141890798Y-66277474D01*
X141931912Y-66261196D01*
X141943142Y-66257351D01*
X141977983Y-66247229D01*
X141977984Y-66247229D01*
X141985593Y-66245018D01*
X141992412Y-66240985D01*
X141992417Y-66240983D01*
X142003028Y-66234707D01*
X142020776Y-66226012D01*
X142039617Y-66218552D01*
X142075387Y-66192564D01*
X142085307Y-66186048D01*
X142116535Y-66167580D01*
X142116538Y-66167578D01*
X142123362Y-66163542D01*
X142137683Y-66149221D01*
X142152717Y-66136380D01*
X142162693Y-66129132D01*
X142169107Y-66124472D01*
X142197288Y-66090407D01*
X142205278Y-66081626D01*
X142617501Y-65669404D01*
X142679813Y-65635379D01*
X142706596Y-65632500D01*
X142802500Y-65632500D01*
X142870621Y-65652502D01*
X142917114Y-65706158D01*
X142928500Y-65758500D01*
X142928500Y-65897134D01*
X142935255Y-65959316D01*
X142986385Y-66095705D01*
X143073739Y-66212261D01*
X143190295Y-66299615D01*
X143326684Y-66350745D01*
X143388866Y-66357500D01*
X145185134Y-66357500D01*
X145247316Y-66350745D01*
X145383705Y-66299615D01*
X145500261Y-66212261D01*
X145587615Y-66095705D01*
X145609799Y-66036529D01*
X145631598Y-65978382D01*
X145674240Y-65921618D01*
X145740802Y-65896918D01*
X145810150Y-65912126D01*
X145844817Y-65940114D01*
X145873250Y-65972938D01*
X146043476Y-66114262D01*
X146083109Y-66173162D01*
X146088989Y-66211204D01*
X146088989Y-70189722D01*
X146088462Y-70200905D01*
X146086787Y-70208398D01*
X146087036Y-70216324D01*
X146087036Y-70216325D01*
X146088927Y-70276475D01*
X146088989Y-70280434D01*
X146088989Y-70308345D01*
X146089486Y-70312279D01*
X146089486Y-70312280D01*
X146089494Y-70312345D01*
X146090427Y-70324182D01*
X146091816Y-70368378D01*
X146097467Y-70387828D01*
X146101476Y-70407189D01*
X146104015Y-70427286D01*
X146106934Y-70434657D01*
X146106934Y-70434659D01*
X146120293Y-70468401D01*
X146124138Y-70479631D01*
X146134260Y-70514472D01*
X146136471Y-70522082D01*
X146140504Y-70528901D01*
X146140506Y-70528906D01*
X146146782Y-70539517D01*
X146155477Y-70557265D01*
X146162937Y-70576106D01*
X146167599Y-70582522D01*
X146167599Y-70582523D01*
X146188925Y-70611876D01*
X146195441Y-70621796D01*
X146212351Y-70650388D01*
X146217947Y-70659851D01*
X146232268Y-70674172D01*
X146245109Y-70689206D01*
X146257017Y-70705596D01*
X146254911Y-70707126D01*
X146281229Y-70759154D01*
X146282636Y-70768877D01*
X146283464Y-70776749D01*
X146299458Y-70928928D01*
X146358473Y-71110556D01*
X146361776Y-71116278D01*
X146361777Y-71116279D01*
X146370060Y-71130625D01*
X146453960Y-71275944D01*
X146458378Y-71280851D01*
X146458379Y-71280852D01*
X146559403Y-71393051D01*
X146581747Y-71417866D01*
X146638009Y-71458743D01*
X146724066Y-71521267D01*
X146736248Y-71530118D01*
X146742276Y-71532802D01*
X146742278Y-71532803D01*
X146868228Y-71588879D01*
X146910712Y-71607794D01*
X147004113Y-71627647D01*
X147091056Y-71646128D01*
X147091061Y-71646128D01*
X147097513Y-71647500D01*
X147288487Y-71647500D01*
X147294939Y-71646128D01*
X147294944Y-71646128D01*
X147381887Y-71627647D01*
X147475288Y-71607794D01*
X147517772Y-71588879D01*
X147643722Y-71532803D01*
X147643724Y-71532802D01*
X147649752Y-71530118D01*
X147661935Y-71521267D01*
X147747991Y-71458743D01*
X147804253Y-71417866D01*
X147826597Y-71393051D01*
X147927621Y-71280852D01*
X147927622Y-71280851D01*
X147932040Y-71275944D01*
X148015940Y-71130625D01*
X148024223Y-71116279D01*
X148024224Y-71116278D01*
X148027527Y-71110556D01*
X148086542Y-70928928D01*
X148102537Y-70776749D01*
X148105814Y-70745565D01*
X148106504Y-70739000D01*
X148102993Y-70705596D01*
X148087232Y-70555635D01*
X148087232Y-70555633D01*
X148086542Y-70549072D01*
X148027527Y-70367444D01*
X148004022Y-70326732D01*
X147987284Y-70257736D01*
X148010505Y-70190645D01*
X148039080Y-70161796D01*
X148052909Y-70151749D01*
X148052911Y-70151747D01*
X148058253Y-70147866D01*
X148062675Y-70142955D01*
X148181621Y-70010852D01*
X148181622Y-70010851D01*
X148186040Y-70005944D01*
X148281527Y-69840556D01*
X148340542Y-69658928D01*
X148341831Y-69646669D01*
X148359814Y-69475565D01*
X148360504Y-69469000D01*
X148349224Y-69361673D01*
X148341232Y-69285635D01*
X148341232Y-69285633D01*
X148340542Y-69279072D01*
X148281527Y-69097444D01*
X148186040Y-68932056D01*
X148112863Y-68850785D01*
X148082147Y-68786779D01*
X148080500Y-68766476D01*
X148080500Y-68386594D01*
X148100502Y-68318473D01*
X148117405Y-68297499D01*
X149759253Y-66655652D01*
X149767539Y-66648112D01*
X149774018Y-66644000D01*
X149820644Y-66594348D01*
X149823398Y-66591507D01*
X149843135Y-66571770D01*
X149845615Y-66568573D01*
X149853320Y-66559551D01*
X149883586Y-66527321D01*
X149887405Y-66520375D01*
X149887407Y-66520372D01*
X149893348Y-66509566D01*
X149904199Y-66493047D01*
X149911758Y-66483301D01*
X149916614Y-66477041D01*
X149919759Y-66469772D01*
X149919762Y-66469768D01*
X149934174Y-66436463D01*
X149939391Y-66425813D01*
X149960695Y-66387060D01*
X149965733Y-66367437D01*
X149972137Y-66348734D01*
X149977033Y-66337420D01*
X149977033Y-66337419D01*
X149980181Y-66330145D01*
X149981420Y-66322322D01*
X149981423Y-66322312D01*
X149987099Y-66286476D01*
X149989506Y-66274854D01*
X149995025Y-66253359D01*
X150031339Y-66192353D01*
X150056187Y-66175282D01*
X150055910Y-66174818D01*
X150060353Y-66172170D01*
X150064994Y-66169896D01*
X150069198Y-66166898D01*
X150069202Y-66166895D01*
X150167557Y-66096739D01*
X150246860Y-66040173D01*
X150405096Y-65882489D01*
X150535453Y-65701077D01*
X150556320Y-65658857D01*
X150632136Y-65505453D01*
X150632137Y-65505451D01*
X150634430Y-65500811D01*
X150683548Y-65339144D01*
X150697865Y-65292023D01*
X150697865Y-65292021D01*
X150699370Y-65287069D01*
X150728529Y-65065590D01*
X150730156Y-64999000D01*
X150711852Y-64776361D01*
X150657431Y-64559702D01*
X150568354Y-64354840D01*
X150473019Y-64207474D01*
X150449822Y-64171617D01*
X150449820Y-64171614D01*
X150447014Y-64167277D01*
X150296670Y-64002051D01*
X150292619Y-63998852D01*
X150292615Y-63998848D01*
X150125414Y-63866800D01*
X150125410Y-63866798D01*
X150121359Y-63863598D01*
X150089122Y-63845802D01*
X150066045Y-63833063D01*
X149925789Y-63755638D01*
X149920920Y-63753914D01*
X149920916Y-63753912D01*
X149720087Y-63682795D01*
X149720083Y-63682794D01*
X149715212Y-63681069D01*
X149710119Y-63680162D01*
X149710116Y-63680161D01*
X149500373Y-63642800D01*
X149500367Y-63642799D01*
X149495284Y-63641894D01*
X149421452Y-63640992D01*
X149277081Y-63639228D01*
X149277079Y-63639228D01*
X149271911Y-63639165D01*
X149051091Y-63672955D01*
X148838756Y-63742357D01*
X148808443Y-63758137D01*
X148650485Y-63840365D01*
X148640607Y-63845507D01*
X148636474Y-63848610D01*
X148636471Y-63848612D01*
X148488080Y-63960027D01*
X148461965Y-63979635D01*
X148458393Y-63983373D01*
X148350729Y-64096037D01*
X148307629Y-64141138D01*
X148200201Y-64298621D01*
X148145293Y-64343621D01*
X148074768Y-64351792D01*
X148011021Y-64320538D01*
X147990324Y-64296054D01*
X147909822Y-64171617D01*
X147909820Y-64171614D01*
X147907014Y-64167277D01*
X147756670Y-64002051D01*
X147752619Y-63998852D01*
X147752615Y-63998848D01*
X147585414Y-63866800D01*
X147585410Y-63866798D01*
X147581359Y-63863598D01*
X147549122Y-63845802D01*
X147526045Y-63833063D01*
X147385789Y-63755638D01*
X147380920Y-63753914D01*
X147380916Y-63753912D01*
X147180087Y-63682795D01*
X147180083Y-63682794D01*
X147175212Y-63681069D01*
X147170119Y-63680162D01*
X147170116Y-63680161D01*
X146960373Y-63642800D01*
X146960367Y-63642799D01*
X146955284Y-63641894D01*
X146881452Y-63640992D01*
X146737081Y-63639228D01*
X146737079Y-63639228D01*
X146731911Y-63639165D01*
X146511091Y-63672955D01*
X146298756Y-63742357D01*
X146268443Y-63758137D01*
X146110485Y-63840365D01*
X146100607Y-63845507D01*
X146096474Y-63848610D01*
X146096471Y-63848612D01*
X145948080Y-63960027D01*
X145921965Y-63979635D01*
X145849020Y-64055968D01*
X145841283Y-64064064D01*
X145779759Y-64099494D01*
X145708846Y-64096037D01*
X145651060Y-64054791D01*
X145632207Y-64021243D01*
X145590767Y-63910703D01*
X145587615Y-63902295D01*
X145500261Y-63785739D01*
X145383705Y-63698385D01*
X145247316Y-63647255D01*
X145185134Y-63640500D01*
X143388866Y-63640500D01*
X143326684Y-63647255D01*
X143190295Y-63698385D01*
X143073739Y-63785739D01*
X142986385Y-63902295D01*
X142935255Y-64038684D01*
X142928500Y-64100866D01*
X142928500Y-64239500D01*
X142908498Y-64307621D01*
X142854842Y-64354114D01*
X142802500Y-64365500D01*
X142470767Y-64365500D01*
X142459584Y-64364973D01*
X142452091Y-64363298D01*
X142444165Y-64363547D01*
X142444164Y-64363547D01*
X142384001Y-64365438D01*
X142380043Y-64365500D01*
X142352144Y-64365500D01*
X142348154Y-64366004D01*
X142336320Y-64366936D01*
X142292111Y-64368326D01*
X142284497Y-64370538D01*
X142284492Y-64370539D01*
X142272659Y-64373977D01*
X142253296Y-64377988D01*
X142233203Y-64380526D01*
X142225836Y-64383443D01*
X142225831Y-64383444D01*
X142192092Y-64396802D01*
X142180865Y-64400646D01*
X142138407Y-64412982D01*
X142131581Y-64417019D01*
X142120972Y-64423293D01*
X142103224Y-64431988D01*
X142084383Y-64439448D01*
X142077967Y-64444110D01*
X142077966Y-64444110D01*
X142048613Y-64465436D01*
X142038693Y-64471952D01*
X142007465Y-64490420D01*
X142007462Y-64490422D01*
X142000638Y-64494458D01*
X141986317Y-64508779D01*
X141971284Y-64521619D01*
X141954893Y-64533528D01*
X141930151Y-64563436D01*
X141926712Y-64567593D01*
X141918722Y-64576373D01*
X141779559Y-64715536D01*
X141717247Y-64749562D01*
X141646432Y-64744497D01*
X141614899Y-64727267D01*
X141603292Y-64718568D01*
X141589705Y-64708385D01*
X141453316Y-64657255D01*
X141391134Y-64650500D01*
X140294866Y-64650500D01*
X140232684Y-64657255D01*
X140096295Y-64708385D01*
X139979739Y-64795739D01*
X139892385Y-64912295D01*
X139841255Y-65048684D01*
X139834500Y-65110866D01*
X139834500Y-66207134D01*
X126614327Y-66207134D01*
X126576078Y-66153526D01*
X126572634Y-66082613D01*
X126577479Y-66067051D01*
X126660020Y-65852022D01*
X126660021Y-65852018D01*
X126661833Y-65847298D01*
X126670860Y-65804088D01*
X126710440Y-65614631D01*
X126710440Y-65614627D01*
X126711474Y-65609680D01*
X126722486Y-65367183D01*
X126713790Y-65292023D01*
X126695167Y-65131071D01*
X126695166Y-65131067D01*
X126694585Y-65126044D01*
X126684618Y-65090819D01*
X126629866Y-64897331D01*
X126628490Y-64892468D01*
X126626356Y-64887892D01*
X126626354Y-64887886D01*
X126528038Y-64677046D01*
X126528036Y-64677042D01*
X126525901Y-64672464D01*
X126389456Y-64471693D01*
X126222668Y-64295319D01*
X126149660Y-64239500D01*
X126033846Y-64150953D01*
X126033842Y-64150950D01*
X126029826Y-64147880D01*
X126025207Y-64145403D01*
X125820352Y-64035561D01*
X125815891Y-64033169D01*
X125586369Y-63954138D01*
X125458433Y-63932040D01*
X125351074Y-63913496D01*
X125351068Y-63913495D01*
X125347164Y-63912821D01*
X125343203Y-63912641D01*
X125343202Y-63912641D01*
X125319494Y-63911564D01*
X125319475Y-63911564D01*
X125318075Y-63911500D01*
X123648999Y-63911500D01*
X123646491Y-63911702D01*
X123646486Y-63911702D01*
X123473076Y-63925654D01*
X123473071Y-63925655D01*
X123468035Y-63926060D01*
X123463127Y-63927266D01*
X123463124Y-63927266D01*
X123262556Y-63976530D01*
X123232294Y-63983963D01*
X123227642Y-63985938D01*
X123227638Y-63985939D01*
X123091829Y-64043587D01*
X123008844Y-64078812D01*
X122976002Y-64099494D01*
X122807712Y-64205472D01*
X122807709Y-64205474D01*
X122803433Y-64208167D01*
X122799639Y-64211512D01*
X122625142Y-64365350D01*
X122625139Y-64365353D01*
X122621345Y-64368698D01*
X122618135Y-64372606D01*
X122618134Y-64372607D01*
X122489781Y-64528868D01*
X122467266Y-64556278D01*
X122464725Y-64560644D01*
X122464718Y-64560654D01*
X122408898Y-64656562D01*
X122357345Y-64705375D01*
X122287585Y-64718568D01*
X122221766Y-64691951D01*
X122180787Y-64633975D01*
X122174000Y-64593181D01*
X122174000Y-63372000D01*
X122194002Y-63303879D01*
X122247658Y-63257386D01*
X122300000Y-63246000D01*
X155847922Y-63246000D01*
X155916043Y-63266002D01*
G37*
G04 #@! TD.AperFunction*
M02*
