G04 #@! TF.GenerationSoftware,KiCad,Pcbnew,6.0.2+dfsg-1*
G04 #@! TF.CreationDate,2022-03-12T18:16:22-05:00*
G04 #@! TF.ProjectId,PortaNet,506f7274-614e-4657-942e-6b696361645f,rev?*
G04 #@! TF.SameCoordinates,Original*
G04 #@! TF.FileFunction,Legend,Bot*
G04 #@! TF.FilePolarity,Positive*
%FSLAX46Y46*%
G04 Gerber Fmt 4.6, Leading zero omitted, Abs format (unit mm)*
G04 Created by KiCad (PCBNEW 6.0.2+dfsg-1) date 2022-03-12 18:16:22*
%MOMM*%
%LPD*%
G01*
G04 APERTURE LIST*
%ADD10C,0.150000*%
%ADD11C,0.120000*%
G04 APERTURE END LIST*
D10*
X167662476Y-78684380D02*
X167662476Y-77684380D01*
X167281523Y-77684380D01*
X167186285Y-77732000D01*
X167138666Y-77779619D01*
X167091047Y-77874857D01*
X167091047Y-78017714D01*
X167138666Y-78112952D01*
X167186285Y-78160571D01*
X167281523Y-78208190D01*
X167662476Y-78208190D01*
X166519619Y-78684380D02*
X166614857Y-78636761D01*
X166662476Y-78589142D01*
X166710095Y-78493904D01*
X166710095Y-78208190D01*
X166662476Y-78112952D01*
X166614857Y-78065333D01*
X166519619Y-78017714D01*
X166376761Y-78017714D01*
X166281523Y-78065333D01*
X166233904Y-78112952D01*
X166186285Y-78208190D01*
X166186285Y-78493904D01*
X166233904Y-78589142D01*
X166281523Y-78636761D01*
X166376761Y-78684380D01*
X166519619Y-78684380D01*
X165757714Y-78684380D02*
X165757714Y-78017714D01*
X165757714Y-78208190D02*
X165710095Y-78112952D01*
X165662476Y-78065333D01*
X165567238Y-78017714D01*
X165472000Y-78017714D01*
X165281523Y-78017714D02*
X164900571Y-78017714D01*
X165138666Y-77684380D02*
X165138666Y-78541523D01*
X165091047Y-78636761D01*
X164995809Y-78684380D01*
X164900571Y-78684380D01*
X164138666Y-78684380D02*
X164138666Y-78160571D01*
X164186285Y-78065333D01*
X164281523Y-78017714D01*
X164472000Y-78017714D01*
X164567238Y-78065333D01*
X164138666Y-78636761D02*
X164233904Y-78684380D01*
X164472000Y-78684380D01*
X164567238Y-78636761D01*
X164614857Y-78541523D01*
X164614857Y-78446285D01*
X164567238Y-78351047D01*
X164472000Y-78303428D01*
X164233904Y-78303428D01*
X164138666Y-78255809D01*
X163662476Y-78684380D02*
X163662476Y-77684380D01*
X163091047Y-78684380D01*
X163091047Y-77684380D01*
X162233904Y-78636761D02*
X162329142Y-78684380D01*
X162519619Y-78684380D01*
X162614857Y-78636761D01*
X162662476Y-78541523D01*
X162662476Y-78160571D01*
X162614857Y-78065333D01*
X162519619Y-78017714D01*
X162329142Y-78017714D01*
X162233904Y-78065333D01*
X162186285Y-78160571D01*
X162186285Y-78255809D01*
X162662476Y-78351047D01*
X161900571Y-78017714D02*
X161519619Y-78017714D01*
X161757714Y-77684380D02*
X161757714Y-78541523D01*
X161710095Y-78636761D01*
X161614857Y-78684380D01*
X161519619Y-78684380D01*
X160519619Y-78017714D02*
X160281523Y-78684380D01*
X160043428Y-78017714D01*
X159138666Y-78684380D02*
X159710095Y-78684380D01*
X159424380Y-78684380D02*
X159424380Y-77684380D01*
X159519619Y-77827238D01*
X159614857Y-77922476D01*
X159710095Y-77970095D01*
X158710095Y-78589142D02*
X158662476Y-78636761D01*
X158710095Y-78684380D01*
X158757714Y-78636761D01*
X158710095Y-78589142D01*
X158710095Y-78684380D01*
X158043428Y-77684380D02*
X157948190Y-77684380D01*
X157852952Y-77732000D01*
X157805333Y-77779619D01*
X157757714Y-77874857D01*
X157710095Y-78065333D01*
X157710095Y-78303428D01*
X157757714Y-78493904D01*
X157805333Y-78589142D01*
X157852952Y-78636761D01*
X157948190Y-78684380D01*
X158043428Y-78684380D01*
X158138666Y-78636761D01*
X158186285Y-78589142D01*
X158233904Y-78493904D01*
X158281523Y-78303428D01*
X158281523Y-78065333D01*
X158233904Y-77874857D01*
X158186285Y-77779619D01*
X158138666Y-77732000D01*
X158043428Y-77684380D01*
X157233904Y-78636761D02*
X157233904Y-78684380D01*
X157281523Y-78779619D01*
X157329142Y-78827238D01*
X156091047Y-78398666D02*
X155614857Y-78398666D01*
X156186285Y-78684380D02*
X155852952Y-77684380D01*
X155519619Y-78684380D01*
X154138666Y-77684380D02*
X154138666Y-78398666D01*
X154186285Y-78541523D01*
X154281523Y-78636761D01*
X154424380Y-78684380D01*
X154519619Y-78684380D01*
X153091047Y-78589142D02*
X153138666Y-78636761D01*
X153281523Y-78684380D01*
X153376761Y-78684380D01*
X153519619Y-78636761D01*
X153614857Y-78541523D01*
X153662476Y-78446285D01*
X153710095Y-78255809D01*
X153710095Y-78112952D01*
X153662476Y-77922476D01*
X153614857Y-77827238D01*
X153519619Y-77732000D01*
X153376761Y-77684380D01*
X153281523Y-77684380D01*
X153138666Y-77732000D01*
X153091047Y-77779619D01*
X152662476Y-78684380D02*
X152662476Y-77684380D01*
X152329142Y-78398666D01*
X151995809Y-77684380D01*
X151995809Y-78684380D01*
X150757714Y-78684380D02*
X150757714Y-77684380D01*
X150519619Y-77684380D01*
X150376761Y-77732000D01*
X150281523Y-77827238D01*
X150233904Y-77922476D01*
X150186285Y-78112952D01*
X150186285Y-78255809D01*
X150233904Y-78446285D01*
X150281523Y-78541523D01*
X150376761Y-78636761D01*
X150519619Y-78684380D01*
X150757714Y-78684380D01*
X149376761Y-78636761D02*
X149472000Y-78684380D01*
X149662476Y-78684380D01*
X149757714Y-78636761D01*
X149805333Y-78541523D01*
X149805333Y-78160571D01*
X149757714Y-78065333D01*
X149662476Y-78017714D01*
X149472000Y-78017714D01*
X149376761Y-78065333D01*
X149329142Y-78160571D01*
X149329142Y-78255809D01*
X149805333Y-78351047D01*
X148948190Y-78636761D02*
X148852952Y-78684380D01*
X148662476Y-78684380D01*
X148567238Y-78636761D01*
X148519619Y-78541523D01*
X148519619Y-78493904D01*
X148567238Y-78398666D01*
X148662476Y-78351047D01*
X148805333Y-78351047D01*
X148900571Y-78303428D01*
X148948190Y-78208190D01*
X148948190Y-78160571D01*
X148900571Y-78065333D01*
X148805333Y-78017714D01*
X148662476Y-78017714D01*
X148567238Y-78065333D01*
X148091047Y-78684380D02*
X148091047Y-78017714D01*
X148091047Y-77684380D02*
X148138666Y-77732000D01*
X148091047Y-77779619D01*
X148043428Y-77732000D01*
X148091047Y-77684380D01*
X148091047Y-77779619D01*
X147186285Y-78017714D02*
X147186285Y-78827238D01*
X147233904Y-78922476D01*
X147281523Y-78970095D01*
X147376761Y-79017714D01*
X147519619Y-79017714D01*
X147614857Y-78970095D01*
X147186285Y-78636761D02*
X147281523Y-78684380D01*
X147472000Y-78684380D01*
X147567238Y-78636761D01*
X147614857Y-78589142D01*
X147662476Y-78493904D01*
X147662476Y-78208190D01*
X147614857Y-78112952D01*
X147567238Y-78065333D01*
X147472000Y-78017714D01*
X147281523Y-78017714D01*
X147186285Y-78065333D01*
X146710095Y-78017714D02*
X146710095Y-78684380D01*
X146710095Y-78112952D02*
X146662476Y-78065333D01*
X146567238Y-78017714D01*
X146424380Y-78017714D01*
X146329142Y-78065333D01*
X146281523Y-78160571D01*
X146281523Y-78684380D01*
X133513380Y-66683095D02*
X133513380Y-67254523D01*
X134513380Y-66968809D02*
X133513380Y-66968809D01*
X134513380Y-67587857D02*
X133513380Y-67587857D01*
X133513380Y-67968809D01*
X133561000Y-68064047D01*
X133608619Y-68111666D01*
X133703857Y-68159285D01*
X133846714Y-68159285D01*
X133941952Y-68111666D01*
X133989571Y-68064047D01*
X134037190Y-67968809D01*
X134037190Y-67587857D01*
X133513380Y-68492619D02*
X133513380Y-69111666D01*
X133894333Y-68778333D01*
X133894333Y-68921190D01*
X133941952Y-69016428D01*
X133989571Y-69064047D01*
X134084809Y-69111666D01*
X134322904Y-69111666D01*
X134418142Y-69064047D01*
X134465761Y-69016428D01*
X134513380Y-68921190D01*
X134513380Y-68635476D01*
X134465761Y-68540238D01*
X134418142Y-68492619D01*
X165218904Y-65619380D02*
X164647476Y-65619380D01*
X164933190Y-66619380D02*
X164933190Y-65619380D01*
X164314142Y-66619380D02*
X164314142Y-65619380D01*
X163933190Y-65619380D01*
X163837952Y-65667000D01*
X163790333Y-65714619D01*
X163742714Y-65809857D01*
X163742714Y-65952714D01*
X163790333Y-66047952D01*
X163837952Y-66095571D01*
X163933190Y-66143190D01*
X164314142Y-66143190D01*
X162885571Y-65952714D02*
X162885571Y-66619380D01*
X163123666Y-65571761D02*
X163361761Y-66286047D01*
X162742714Y-66286047D01*
X142104904Y-63663380D02*
X141533476Y-63663380D01*
X141819190Y-64663380D02*
X141819190Y-63663380D01*
X141200142Y-64663380D02*
X141200142Y-63663380D01*
X140819190Y-63663380D01*
X140723952Y-63711000D01*
X140676333Y-63758619D01*
X140628714Y-63853857D01*
X140628714Y-63996714D01*
X140676333Y-64091952D01*
X140723952Y-64139571D01*
X140819190Y-64187190D01*
X141200142Y-64187190D01*
X139723952Y-63663380D02*
X140200142Y-63663380D01*
X140247761Y-64139571D01*
X140200142Y-64091952D01*
X140104904Y-64044333D01*
X139866809Y-64044333D01*
X139771571Y-64091952D01*
X139723952Y-64139571D01*
X139676333Y-64234809D01*
X139676333Y-64472904D01*
X139723952Y-64568142D01*
X139771571Y-64615761D01*
X139866809Y-64663380D01*
X140104904Y-64663380D01*
X140200142Y-64615761D01*
X140247761Y-64568142D01*
D11*
X134809000Y-68645000D02*
X136209000Y-68645000D01*
X136209000Y-67245000D02*
X134809000Y-67245000D01*
X136209000Y-68645000D02*
X136209000Y-67245000D01*
X134809000Y-67245000D02*
X134809000Y-68645000D01*
X164530000Y-67118000D02*
X163130000Y-67118000D01*
X163130000Y-68518000D02*
X164530000Y-68518000D01*
X163130000Y-67118000D02*
X163130000Y-68518000D01*
X164530000Y-68518000D02*
X164530000Y-67118000D01*
X140143000Y-64959000D02*
X140143000Y-66359000D01*
X141543000Y-66359000D02*
X141543000Y-64959000D01*
X141543000Y-64959000D02*
X140143000Y-64959000D01*
X140143000Y-66359000D02*
X141543000Y-66359000D01*
M02*
