G04 #@! TF.GenerationSoftware,KiCad,Pcbnew,6.0.2+dfsg-1*
G04 #@! TF.CreationDate,2022-03-12T18:16:22-05:00*
G04 #@! TF.ProjectId,PortaNet,506f7274-614e-4657-942e-6b696361645f,rev?*
G04 #@! TF.SameCoordinates,Original*
G04 #@! TF.FileFunction,Paste,Top*
G04 #@! TF.FilePolarity,Positive*
%FSLAX46Y46*%
G04 Gerber Fmt 4.6, Leading zero omitted, Abs format (unit mm)*
G04 Created by KiCad (PCBNEW 6.0.2+dfsg-1) date 2022-03-12 18:16:22*
%MOMM*%
%LPD*%
G01*
G04 APERTURE LIST*
G04 Aperture macros list*
%AMRoundRect*
0 Rectangle with rounded corners*
0 $1 Rounding radius*
0 $2 $3 $4 $5 $6 $7 $8 $9 X,Y pos of 4 corners*
0 Add a 4 corners polygon primitive as box body*
4,1,4,$2,$3,$4,$5,$6,$7,$8,$9,$2,$3,0*
0 Add four circle primitives for the rounded corners*
1,1,$1+$1,$2,$3*
1,1,$1+$1,$4,$5*
1,1,$1+$1,$6,$7*
1,1,$1+$1,$8,$9*
0 Add four rect primitives between the rounded corners*
20,1,$1+$1,$2,$3,$4,$5,0*
20,1,$1+$1,$4,$5,$6,$7,0*
20,1,$1+$1,$6,$7,$8,$9,0*
20,1,$1+$1,$8,$9,$2,$3,0*%
%AMFreePoly0*
4,1,51,0.327450,0.260031,0.331254,0.260702,0.334599,0.258771,0.345896,0.256779,0.363205,0.242255,0.382768,0.230960,0.385451,0.223587,0.391463,0.218543,0.395386,0.196292,0.403113,0.175064,0.403113,-0.103025,0.402175,-0.108344,0.402781,-0.110605,0.401166,-0.114069,0.397869,-0.132767,0.385665,-0.147310,0.377643,-0.164515,0.305603,-0.236554,0.301181,-0.239651,0.300010,-0.241678,
0.296417,-0.242986,0.280864,-0.253876,0.261952,-0.255530,0.244114,-0.262023,-0.244114,-0.262023,-0.249430,-0.261086,-0.251692,-0.261692,-0.255158,-0.260076,-0.273856,-0.256779,-0.288398,-0.244576,-0.305603,-0.236554,-0.377643,-0.164515,-0.380740,-0.160092,-0.382768,-0.158921,-0.384076,-0.155329,-0.394966,-0.139776,-0.396621,-0.120862,-0.403113,-0.103025,-0.403113,0.175064,-0.401121,0.186360,
-0.401792,0.190164,-0.399861,0.193509,-0.397869,0.204806,-0.383345,0.222115,-0.372050,0.241678,-0.364677,0.244361,-0.359633,0.250373,-0.337382,0.254296,-0.316154,0.262023,0.316154,0.262023,0.327450,0.260031,0.327450,0.260031,$1*%
%AMFreePoly1*
4,1,48,0.167798,0.256593,0.185367,0.256593,0.199581,0.246266,0.216293,0.240836,0.226621,0.226621,0.240836,0.216293,0.246266,0.199581,0.256593,0.185367,0.256593,0.167798,0.262023,0.151086,0.262023,-0.059182,0.259257,-0.067696,0.260657,-0.076536,0.248864,-0.099680,0.240836,-0.124389,0.233594,-0.129651,0.229530,-0.137626,0.137626,-0.229530,0.129651,-0.233594,0.124389,-0.240836,
0.099682,-0.248864,0.076537,-0.260657,0.067696,-0.259257,0.059182,-0.262023,-0.151086,-0.262023,-0.167798,-0.256593,-0.185367,-0.256593,-0.199581,-0.246266,-0.216293,-0.240836,-0.226621,-0.226621,-0.240836,-0.216293,-0.246266,-0.199581,-0.256593,-0.185367,-0.256593,-0.167798,-0.262023,-0.151086,-0.262023,0.151086,-0.256593,0.167798,-0.256593,0.185367,-0.246266,0.199581,-0.240836,0.216293,
-0.226621,0.226621,-0.216293,0.240836,-0.199581,0.246266,-0.185367,0.256593,-0.167798,0.256593,-0.151086,0.262023,0.151086,0.262023,0.167798,0.256593,0.167798,0.256593,$1*%
%AMFreePoly2*
4,1,51,0.108341,0.402176,0.110604,0.402782,0.114071,0.401165,0.132767,0.397869,0.147310,0.385666,0.164515,0.377643,0.236554,0.305603,0.239651,0.301181,0.241678,0.300010,0.242986,0.296417,0.253876,0.280864,0.255530,0.261953,0.262023,0.244114,0.262023,-0.244114,0.261086,-0.249430,0.261692,-0.251692,0.260076,-0.255158,0.256779,-0.273856,0.244576,-0.288398,0.236554,-0.305603,
0.164515,-0.377643,0.160092,-0.380740,0.158921,-0.382768,0.155329,-0.384076,0.139776,-0.394966,0.120862,-0.396621,0.103025,-0.403113,-0.175064,-0.403113,-0.186360,-0.401121,-0.190164,-0.401792,-0.193509,-0.399861,-0.204806,-0.397869,-0.222115,-0.383345,-0.241678,-0.372050,-0.244361,-0.364677,-0.250373,-0.359633,-0.254296,-0.337382,-0.262023,-0.316154,-0.262023,0.316154,-0.260031,0.327450,
-0.260702,0.331254,-0.258771,0.334599,-0.256779,0.345896,-0.242255,0.363205,-0.230960,0.382768,-0.223587,0.385451,-0.218543,0.391463,-0.196292,0.395386,-0.175064,0.403113,0.103025,0.403113,0.108341,0.402176,0.108341,0.402176,$1*%
%AMFreePoly3*
4,1,48,0.067696,0.259257,0.076537,0.260657,0.099682,0.248864,0.124389,0.240836,0.129651,0.233594,0.137626,0.229530,0.229530,0.137626,0.233594,0.129651,0.240836,0.124389,0.248864,0.099680,0.260657,0.076536,0.259257,0.067696,0.262023,0.059182,0.262023,-0.151086,0.256593,-0.167798,0.256593,-0.185367,0.246266,-0.199581,0.240836,-0.216293,0.226621,-0.226621,0.216293,-0.240836,
0.199581,-0.246266,0.185367,-0.256593,0.167798,-0.256593,0.151086,-0.262023,-0.151086,-0.262023,-0.167798,-0.256593,-0.185367,-0.256593,-0.199581,-0.246266,-0.216293,-0.240836,-0.226621,-0.226621,-0.240836,-0.216293,-0.246266,-0.199581,-0.256593,-0.185367,-0.256593,-0.167798,-0.262023,-0.151086,-0.262023,0.151086,-0.256593,0.167798,-0.256593,0.185367,-0.246266,0.199581,-0.240836,0.216293,
-0.226621,0.226621,-0.216293,0.240836,-0.199581,0.246266,-0.185367,0.256593,-0.167798,0.256593,-0.151086,0.262023,0.059182,0.262023,0.067696,0.259257,0.067696,0.259257,$1*%
%AMFreePoly4*
4,1,51,0.186360,0.401121,0.190164,0.401792,0.193509,0.399861,0.204806,0.397869,0.222115,0.383345,0.241678,0.372050,0.244361,0.364677,0.250373,0.359633,0.254296,0.337382,0.262023,0.316154,0.262023,-0.316154,0.260031,-0.327450,0.260702,-0.331254,0.258771,-0.334599,0.256779,-0.345896,0.242255,-0.363205,0.230960,-0.382768,0.223587,-0.385451,0.218543,-0.391463,0.196292,-0.395386,
0.175064,-0.403113,-0.103025,-0.403113,-0.108344,-0.402175,-0.110605,-0.402781,-0.114069,-0.401166,-0.132767,-0.397869,-0.147310,-0.385665,-0.164515,-0.377643,-0.236554,-0.305603,-0.239651,-0.301181,-0.241678,-0.300010,-0.242986,-0.296417,-0.253876,-0.280864,-0.255530,-0.261952,-0.262023,-0.244114,-0.262023,0.244114,-0.261086,0.249430,-0.261692,0.251692,-0.260076,0.255158,-0.256779,0.273856,
-0.244576,0.288398,-0.236554,0.305603,-0.164515,0.377643,-0.160092,0.380740,-0.158921,0.382768,-0.155329,0.384076,-0.139776,0.394966,-0.120862,0.396621,-0.103025,0.403113,0.175064,0.403113,0.186360,0.401121,0.186360,0.401121,$1*%
%AMFreePoly5*
4,1,51,0.249430,0.261086,0.251692,0.261692,0.255158,0.260076,0.273856,0.256779,0.288398,0.244576,0.305603,0.236554,0.377643,0.164515,0.380740,0.160092,0.382768,0.158921,0.384076,0.155329,0.394966,0.139776,0.396621,0.120862,0.403113,0.103025,0.403113,-0.175064,0.401121,-0.186360,0.401792,-0.190164,0.399861,-0.193509,0.397869,-0.204806,0.383345,-0.222115,0.372050,-0.241678,
0.364677,-0.244361,0.359633,-0.250373,0.337382,-0.254296,0.316154,-0.262023,-0.316154,-0.262023,-0.327450,-0.260031,-0.331254,-0.260702,-0.334599,-0.258771,-0.345896,-0.256779,-0.363205,-0.242255,-0.382768,-0.230960,-0.385451,-0.223587,-0.391463,-0.218543,-0.395386,-0.196292,-0.403113,-0.175064,-0.403113,0.103025,-0.402176,0.108341,-0.402782,0.110604,-0.401165,0.114071,-0.397869,0.132767,
-0.385666,0.147310,-0.377643,0.164515,-0.305603,0.236554,-0.301181,0.239651,-0.300010,0.241678,-0.296417,0.242986,-0.280864,0.253876,-0.261953,0.255530,-0.244114,0.262023,0.244114,0.262023,0.249430,0.261086,0.249430,0.261086,$1*%
%AMFreePoly6*
4,1,48,0.167798,0.256593,0.185367,0.256593,0.199581,0.246266,0.216293,0.240836,0.226621,0.226621,0.240836,0.216293,0.246266,0.199581,0.256593,0.185367,0.256593,0.167798,0.262023,0.151086,0.262023,-0.151086,0.256593,-0.167798,0.256593,-0.185367,0.246266,-0.199581,0.240836,-0.216293,0.226621,-0.226621,0.216293,-0.240836,0.199581,-0.246266,0.185367,-0.256593,0.167798,-0.256593,
0.151086,-0.262023,-0.059182,-0.262023,-0.067696,-0.259257,-0.076536,-0.260657,-0.099680,-0.248864,-0.124389,-0.240836,-0.129651,-0.233594,-0.137626,-0.229530,-0.229530,-0.137626,-0.233594,-0.129651,-0.240836,-0.124389,-0.248864,-0.099682,-0.260657,-0.076537,-0.259257,-0.067696,-0.262023,-0.059182,-0.262023,0.151086,-0.256593,0.167798,-0.256593,0.185367,-0.246266,0.199581,-0.240836,0.216293,
-0.226621,0.226621,-0.216293,0.240836,-0.199581,0.246266,-0.185367,0.256593,-0.167798,0.256593,-0.151086,0.262023,0.151086,0.262023,0.167798,0.256593,0.167798,0.256593,$1*%
%AMFreePoly7*
4,1,48,0.167798,0.256593,0.185367,0.256593,0.199581,0.246266,0.216293,0.240836,0.226621,0.226621,0.240836,0.216293,0.246266,0.199581,0.256593,0.185367,0.256593,0.167798,0.262023,0.151086,0.262023,-0.151086,0.256593,-0.167798,0.256593,-0.185367,0.246266,-0.199581,0.240836,-0.216293,0.226621,-0.226621,0.216293,-0.240836,0.199581,-0.246266,0.185367,-0.256593,0.167798,-0.256593,
0.151086,-0.262023,-0.151086,-0.262023,-0.167798,-0.256593,-0.185367,-0.256593,-0.199581,-0.246266,-0.216293,-0.240836,-0.226621,-0.226621,-0.240836,-0.216293,-0.246266,-0.199581,-0.256593,-0.185367,-0.256593,-0.167798,-0.262023,-0.151086,-0.262023,0.059182,-0.259257,0.067696,-0.260657,0.076537,-0.248864,0.099682,-0.240836,0.124389,-0.233594,0.129651,-0.229530,0.137626,-0.137626,0.229530,
-0.129651,0.233594,-0.124389,0.240836,-0.099680,0.248864,-0.076536,0.260657,-0.067696,0.259257,-0.059182,0.262023,0.151086,0.262023,0.167798,0.256593,0.167798,0.256593,$1*%
G04 Aperture macros list end*
%ADD10RoundRect,0.218750X0.218750X0.256250X-0.218750X0.256250X-0.218750X-0.256250X0.218750X-0.256250X0*%
%ADD11RoundRect,0.187500X0.687500X0.187500X-0.687500X0.187500X-0.687500X-0.187500X0.687500X-0.187500X0*%
%ADD12RoundRect,0.250000X-0.262500X-0.450000X0.262500X-0.450000X0.262500X0.450000X-0.262500X0.450000X0*%
%ADD13RoundRect,0.225000X0.225000X0.250000X-0.225000X0.250000X-0.225000X-0.250000X0.225000X-0.250000X0*%
%ADD14RoundRect,0.250000X0.262500X0.450000X-0.262500X0.450000X-0.262500X-0.450000X0.262500X-0.450000X0*%
%ADD15FreePoly0,90.000000*%
%ADD16RoundRect,0.201557X0.201556X-0.201556X0.201556X0.201556X-0.201556X0.201556X-0.201556X-0.201556X0*%
%ADD17FreePoly1,90.000000*%
%ADD18FreePoly2,90.000000*%
%ADD19FreePoly3,90.000000*%
%ADD20FreePoly4,90.000000*%
%ADD21FreePoly5,90.000000*%
%ADD22FreePoly6,90.000000*%
%ADD23FreePoly7,90.000000*%
%ADD24RoundRect,0.062500X0.062500X-0.375000X0.062500X0.375000X-0.062500X0.375000X-0.062500X-0.375000X0*%
%ADD25RoundRect,0.062500X0.375000X-0.062500X0.375000X0.062500X-0.375000X0.062500X-0.375000X-0.062500X0*%
%ADD26RoundRect,0.225000X-0.250000X0.225000X-0.250000X-0.225000X0.250000X-0.225000X0.250000X0.225000X0*%
%ADD27RoundRect,0.218750X0.256250X-0.218750X0.256250X0.218750X-0.256250X0.218750X-0.256250X-0.218750X0*%
%ADD28R,1.500000X2.000000*%
%ADD29R,3.800000X2.000000*%
%ADD30R,1.100000X1.100000*%
%ADD31R,1.200000X1.400000*%
%ADD32RoundRect,0.250000X0.450000X-0.262500X0.450000X0.262500X-0.450000X0.262500X-0.450000X-0.262500X0*%
%ADD33RoundRect,0.225000X0.250000X-0.225000X0.250000X0.225000X-0.250000X0.225000X-0.250000X-0.225000X0*%
G04 APERTURE END LIST*
D10*
X167284500Y-66802000D03*
X165709500Y-66802000D03*
D11*
X166089000Y-78041500D03*
X166089000Y-74841500D03*
D12*
X136755500Y-74168000D03*
X138580500Y-74168000D03*
D13*
X145555000Y-71374000D03*
X144005000Y-71374000D03*
D12*
X136755500Y-77089000D03*
X138580500Y-77089000D03*
D13*
X145555000Y-69723000D03*
X144005000Y-69723000D03*
D14*
X167282500Y-64770000D03*
X165457500Y-64770000D03*
X161694500Y-77978000D03*
X159869500Y-77978000D03*
D15*
X150059000Y-71001000D03*
D16*
X150884000Y-71001000D03*
D15*
X150059000Y-72001000D03*
D16*
X151884000Y-72001000D03*
D17*
X150059000Y-72826000D03*
D18*
X150884000Y-72826000D03*
D19*
X152709000Y-72826000D03*
D20*
X151884000Y-70176000D03*
X150884000Y-70176000D03*
D16*
X151884000Y-71001000D03*
D21*
X152709000Y-72001000D03*
D22*
X150059000Y-70176000D03*
D18*
X151884000Y-72826000D03*
D21*
X152709000Y-71001000D03*
D16*
X150884000Y-72001000D03*
D23*
X152709000Y-70176000D03*
D24*
X149634000Y-73938500D03*
X150134000Y-73938500D03*
X150634000Y-73938500D03*
X151134000Y-73938500D03*
X151634000Y-73938500D03*
X152134000Y-73938500D03*
X152634000Y-73938500D03*
X153134000Y-73938500D03*
D25*
X153821500Y-73251000D03*
X153821500Y-72751000D03*
X153821500Y-72251000D03*
X153821500Y-71751000D03*
X153821500Y-71251000D03*
X153821500Y-70751000D03*
X153821500Y-70251000D03*
X153821500Y-69751000D03*
D24*
X153134000Y-69063500D03*
X152634000Y-69063500D03*
X152134000Y-69063500D03*
X151634000Y-69063500D03*
X151134000Y-69063500D03*
X150634000Y-69063500D03*
X150134000Y-69063500D03*
X149634000Y-69063500D03*
D25*
X148946500Y-69751000D03*
X148946500Y-70251000D03*
X148946500Y-70751000D03*
X148946500Y-71251000D03*
X148946500Y-71751000D03*
X148946500Y-72251000D03*
X148946500Y-72751000D03*
X148946500Y-73251000D03*
D26*
X130048000Y-69837000D03*
X130048000Y-71387000D03*
D12*
X156313500Y-73914000D03*
X158138500Y-73914000D03*
D27*
X133731000Y-78257500D03*
X133731000Y-76682500D03*
D28*
X132701000Y-70968000D03*
X135001000Y-70968000D03*
D29*
X135001000Y-64668000D03*
D28*
X137301000Y-70968000D03*
D14*
X141755500Y-67945000D03*
X139930500Y-67945000D03*
D30*
X163071000Y-64135000D03*
X160271000Y-64135000D03*
D14*
X158138500Y-76708000D03*
X156313500Y-76708000D03*
D31*
X143676000Y-73830000D03*
X143676000Y-76030000D03*
X145376000Y-76030000D03*
X145376000Y-73830000D03*
D13*
X145555000Y-77851000D03*
X144005000Y-77851000D03*
D32*
X130429000Y-78255500D03*
X130429000Y-76430500D03*
D12*
X139930500Y-70231000D03*
X141755500Y-70231000D03*
D26*
X141986000Y-73520000D03*
X141986000Y-75070000D03*
D33*
X130048000Y-67958000D03*
X130048000Y-66408000D03*
D30*
X133099000Y-74168000D03*
X130299000Y-74168000D03*
D14*
X153566500Y-76581000D03*
X151741500Y-76581000D03*
M02*
