G04 #@! TF.GenerationSoftware,KiCad,Pcbnew,6.0.4+dfsg-1*
G04 #@! TF.CreationDate,2022-04-07T16:59:10-04:00*
G04 #@! TF.ProjectId,PortaNet,506f7274-614e-4657-942e-6b696361645f,rev?*
G04 #@! TF.SameCoordinates,Original*
G04 #@! TF.FileFunction,Legend,Bot*
G04 #@! TF.FilePolarity,Positive*
%FSLAX46Y46*%
G04 Gerber Fmt 4.6, Leading zero omitted, Abs format (unit mm)*
G04 Created by KiCad (PCBNEW 6.0.4+dfsg-1) date 2022-04-07 16:59:10*
%MOMM*%
%LPD*%
G01*
G04 APERTURE LIST*
%ADD10C,0.150000*%
%ADD11C,0.120000*%
G04 APERTURE END LIST*
D10*
X138683904Y-64016000D02*
X138779142Y-63968380D01*
X138922000Y-63968380D01*
X139064857Y-64016000D01*
X139160095Y-64111238D01*
X139207714Y-64206476D01*
X139255333Y-64396952D01*
X139255333Y-64539809D01*
X139207714Y-64730285D01*
X139160095Y-64825523D01*
X139064857Y-64920761D01*
X138922000Y-64968380D01*
X138826761Y-64968380D01*
X138683904Y-64920761D01*
X138636285Y-64873142D01*
X138636285Y-64539809D01*
X138826761Y-64539809D01*
X138207714Y-64968380D02*
X138207714Y-63968380D01*
X137636285Y-64968380D01*
X137636285Y-63968380D01*
X137160095Y-64968380D02*
X137160095Y-63968380D01*
X136922000Y-63968380D01*
X136779142Y-64016000D01*
X136683904Y-64111238D01*
X136636285Y-64206476D01*
X136588666Y-64396952D01*
X136588666Y-64539809D01*
X136636285Y-64730285D01*
X136683904Y-64825523D01*
X136779142Y-64920761D01*
X136922000Y-64968380D01*
X137160095Y-64968380D01*
X144906904Y-66556000D02*
X145002142Y-66508380D01*
X145145000Y-66508380D01*
X145287857Y-66556000D01*
X145383095Y-66651238D01*
X145430714Y-66746476D01*
X145478333Y-66936952D01*
X145478333Y-67079809D01*
X145430714Y-67270285D01*
X145383095Y-67365523D01*
X145287857Y-67460761D01*
X145145000Y-67508380D01*
X145049761Y-67508380D01*
X144906904Y-67460761D01*
X144859285Y-67413142D01*
X144859285Y-67079809D01*
X145049761Y-67079809D01*
X144430714Y-67508380D02*
X144430714Y-66508380D01*
X143859285Y-67508380D01*
X143859285Y-66508380D01*
X143383095Y-67508380D02*
X143383095Y-66508380D01*
X143145000Y-66508380D01*
X143002142Y-66556000D01*
X142906904Y-66651238D01*
X142859285Y-66746476D01*
X142811666Y-66936952D01*
X142811666Y-67079809D01*
X142859285Y-67270285D01*
X142906904Y-67365523D01*
X143002142Y-67460761D01*
X143145000Y-67508380D01*
X143383095Y-67508380D01*
X146684904Y-62952380D02*
X146113476Y-62952380D01*
X146399190Y-63952380D02*
X146399190Y-62952380D01*
X145875380Y-62952380D02*
X145208714Y-63952380D01*
X145208714Y-62952380D02*
X145875380Y-63952380D01*
X153733476Y-65873380D02*
X154209666Y-65873380D01*
X154257285Y-66349571D01*
X154209666Y-66301952D01*
X154114428Y-66254333D01*
X153876333Y-66254333D01*
X153781095Y-66301952D01*
X153733476Y-66349571D01*
X153685857Y-66444809D01*
X153685857Y-66682904D01*
X153733476Y-66778142D01*
X153781095Y-66825761D01*
X153876333Y-66873380D01*
X154114428Y-66873380D01*
X154209666Y-66825761D01*
X154257285Y-66778142D01*
X153400142Y-65873380D02*
X153066809Y-66873380D01*
X152733476Y-65873380D01*
X136207476Y-65619380D02*
X136683666Y-65619380D01*
X136731285Y-66095571D01*
X136683666Y-66047952D01*
X136588428Y-66000333D01*
X136350333Y-66000333D01*
X136255095Y-66047952D01*
X136207476Y-66095571D01*
X136159857Y-66190809D01*
X136159857Y-66428904D01*
X136207476Y-66524142D01*
X136255095Y-66571761D01*
X136350333Y-66619380D01*
X136588428Y-66619380D01*
X136683666Y-66571761D01*
X136731285Y-66524142D01*
X135874142Y-65619380D02*
X135540809Y-66619380D01*
X135207476Y-65619380D01*
X161369190Y-63714380D02*
X160750142Y-63714380D01*
X161083476Y-64095333D01*
X160940619Y-64095333D01*
X160845380Y-64142952D01*
X160797761Y-64190571D01*
X160750142Y-64285809D01*
X160750142Y-64523904D01*
X160797761Y-64619142D01*
X160845380Y-64666761D01*
X160940619Y-64714380D01*
X161226333Y-64714380D01*
X161321571Y-64666761D01*
X161369190Y-64619142D01*
X160321571Y-64619142D02*
X160273952Y-64666761D01*
X160321571Y-64714380D01*
X160369190Y-64666761D01*
X160321571Y-64619142D01*
X160321571Y-64714380D01*
X159940619Y-63714380D02*
X159321571Y-63714380D01*
X159654904Y-64095333D01*
X159512047Y-64095333D01*
X159416809Y-64142952D01*
X159369190Y-64190571D01*
X159321571Y-64285809D01*
X159321571Y-64523904D01*
X159369190Y-64619142D01*
X159416809Y-64666761D01*
X159512047Y-64714380D01*
X159797761Y-64714380D01*
X159893000Y-64666761D01*
X159940619Y-64619142D01*
X159035857Y-63714380D02*
X158702523Y-64714380D01*
X158369190Y-63714380D01*
X150390476Y-78811380D02*
X150390476Y-77811380D01*
X150009523Y-77811380D01*
X149914285Y-77859000D01*
X149866666Y-77906619D01*
X149819047Y-78001857D01*
X149819047Y-78144714D01*
X149866666Y-78239952D01*
X149914285Y-78287571D01*
X150009523Y-78335190D01*
X150390476Y-78335190D01*
X149247619Y-78811380D02*
X149342857Y-78763761D01*
X149390476Y-78716142D01*
X149438095Y-78620904D01*
X149438095Y-78335190D01*
X149390476Y-78239952D01*
X149342857Y-78192333D01*
X149247619Y-78144714D01*
X149104761Y-78144714D01*
X149009523Y-78192333D01*
X148961904Y-78239952D01*
X148914285Y-78335190D01*
X148914285Y-78620904D01*
X148961904Y-78716142D01*
X149009523Y-78763761D01*
X149104761Y-78811380D01*
X149247619Y-78811380D01*
X148485714Y-78811380D02*
X148485714Y-78144714D01*
X148485714Y-78335190D02*
X148438095Y-78239952D01*
X148390476Y-78192333D01*
X148295238Y-78144714D01*
X148200000Y-78144714D01*
X148009523Y-78144714D02*
X147628571Y-78144714D01*
X147866666Y-77811380D02*
X147866666Y-78668523D01*
X147819047Y-78763761D01*
X147723809Y-78811380D01*
X147628571Y-78811380D01*
X146866666Y-78811380D02*
X146866666Y-78287571D01*
X146914285Y-78192333D01*
X147009523Y-78144714D01*
X147200000Y-78144714D01*
X147295238Y-78192333D01*
X146866666Y-78763761D02*
X146961904Y-78811380D01*
X147200000Y-78811380D01*
X147295238Y-78763761D01*
X147342857Y-78668523D01*
X147342857Y-78573285D01*
X147295238Y-78478047D01*
X147200000Y-78430428D01*
X146961904Y-78430428D01*
X146866666Y-78382809D01*
X146390476Y-78811380D02*
X146390476Y-77811380D01*
X145819047Y-78811380D01*
X145819047Y-77811380D01*
X144961904Y-78763761D02*
X145057142Y-78811380D01*
X145247619Y-78811380D01*
X145342857Y-78763761D01*
X145390476Y-78668523D01*
X145390476Y-78287571D01*
X145342857Y-78192333D01*
X145247619Y-78144714D01*
X145057142Y-78144714D01*
X144961904Y-78192333D01*
X144914285Y-78287571D01*
X144914285Y-78382809D01*
X145390476Y-78478047D01*
X144628571Y-78144714D02*
X144247619Y-78144714D01*
X144485714Y-77811380D02*
X144485714Y-78668523D01*
X144438095Y-78763761D01*
X144342857Y-78811380D01*
X144247619Y-78811380D01*
X143247619Y-78144714D02*
X143009523Y-78811380D01*
X142771428Y-78144714D01*
X142485714Y-77811380D02*
X141866666Y-77811380D01*
X142200000Y-78192333D01*
X142057142Y-78192333D01*
X141961904Y-78239952D01*
X141914285Y-78287571D01*
X141866666Y-78382809D01*
X141866666Y-78620904D01*
X141914285Y-78716142D01*
X141961904Y-78763761D01*
X142057142Y-78811380D01*
X142342857Y-78811380D01*
X142438095Y-78763761D01*
X142485714Y-78716142D01*
X141438095Y-78716142D02*
X141390476Y-78763761D01*
X141438095Y-78811380D01*
X141485714Y-78763761D01*
X141438095Y-78716142D01*
X141438095Y-78811380D01*
X140771428Y-77811380D02*
X140676190Y-77811380D01*
X140580952Y-77859000D01*
X140533333Y-77906619D01*
X140485714Y-78001857D01*
X140438095Y-78192333D01*
X140438095Y-78430428D01*
X140485714Y-78620904D01*
X140533333Y-78716142D01*
X140580952Y-78763761D01*
X140676190Y-78811380D01*
X140771428Y-78811380D01*
X140866666Y-78763761D01*
X140914285Y-78716142D01*
X140961904Y-78620904D01*
X141009523Y-78430428D01*
X141009523Y-78192333D01*
X140961904Y-78001857D01*
X140914285Y-77906619D01*
X140866666Y-77859000D01*
X140771428Y-77811380D01*
X139961904Y-78763761D02*
X139961904Y-78811380D01*
X140009523Y-78906619D01*
X140057142Y-78954238D01*
X138819047Y-78525666D02*
X138342857Y-78525666D01*
X138914285Y-78811380D02*
X138580952Y-77811380D01*
X138247619Y-78811380D01*
X136866666Y-77811380D02*
X136866666Y-78525666D01*
X136914285Y-78668523D01*
X137009523Y-78763761D01*
X137152380Y-78811380D01*
X137247619Y-78811380D01*
X135819047Y-78716142D02*
X135866666Y-78763761D01*
X136009523Y-78811380D01*
X136104761Y-78811380D01*
X136247619Y-78763761D01*
X136342857Y-78668523D01*
X136390476Y-78573285D01*
X136438095Y-78382809D01*
X136438095Y-78239952D01*
X136390476Y-78049476D01*
X136342857Y-77954238D01*
X136247619Y-77859000D01*
X136104761Y-77811380D01*
X136009523Y-77811380D01*
X135866666Y-77859000D01*
X135819047Y-77906619D01*
X135390476Y-78811380D02*
X135390476Y-77811380D01*
X135057142Y-78525666D01*
X134723809Y-77811380D01*
X134723809Y-78811380D01*
X133485714Y-78811380D02*
X133485714Y-77811380D01*
X133247619Y-77811380D01*
X133104761Y-77859000D01*
X133009523Y-77954238D01*
X132961904Y-78049476D01*
X132914285Y-78239952D01*
X132914285Y-78382809D01*
X132961904Y-78573285D01*
X133009523Y-78668523D01*
X133104761Y-78763761D01*
X133247619Y-78811380D01*
X133485714Y-78811380D01*
X132104761Y-78763761D02*
X132200000Y-78811380D01*
X132390476Y-78811380D01*
X132485714Y-78763761D01*
X132533333Y-78668523D01*
X132533333Y-78287571D01*
X132485714Y-78192333D01*
X132390476Y-78144714D01*
X132200000Y-78144714D01*
X132104761Y-78192333D01*
X132057142Y-78287571D01*
X132057142Y-78382809D01*
X132533333Y-78478047D01*
X131676190Y-78763761D02*
X131580952Y-78811380D01*
X131390476Y-78811380D01*
X131295238Y-78763761D01*
X131247619Y-78668523D01*
X131247619Y-78620904D01*
X131295238Y-78525666D01*
X131390476Y-78478047D01*
X131533333Y-78478047D01*
X131628571Y-78430428D01*
X131676190Y-78335190D01*
X131676190Y-78287571D01*
X131628571Y-78192333D01*
X131533333Y-78144714D01*
X131390476Y-78144714D01*
X131295238Y-78192333D01*
X130819047Y-78811380D02*
X130819047Y-78144714D01*
X130819047Y-77811380D02*
X130866666Y-77859000D01*
X130819047Y-77906619D01*
X130771428Y-77859000D01*
X130819047Y-77811380D01*
X130819047Y-77906619D01*
X129914285Y-78144714D02*
X129914285Y-78954238D01*
X129961904Y-79049476D01*
X130009523Y-79097095D01*
X130104761Y-79144714D01*
X130247619Y-79144714D01*
X130342857Y-79097095D01*
X129914285Y-78763761D02*
X130009523Y-78811380D01*
X130200000Y-78811380D01*
X130295238Y-78763761D01*
X130342857Y-78716142D01*
X130390476Y-78620904D01*
X130390476Y-78335190D01*
X130342857Y-78239952D01*
X130295238Y-78192333D01*
X130200000Y-78144714D01*
X130009523Y-78144714D01*
X129914285Y-78192333D01*
X129438095Y-78144714D02*
X129438095Y-78811380D01*
X129438095Y-78239952D02*
X129390476Y-78192333D01*
X129295238Y-78144714D01*
X129152380Y-78144714D01*
X129057142Y-78192333D01*
X129009523Y-78287571D01*
X129009523Y-78811380D01*
X149899666Y-67508380D02*
X150233000Y-67032190D01*
X150471095Y-67508380D02*
X150471095Y-66508380D01*
X150090142Y-66508380D01*
X149994904Y-66556000D01*
X149947285Y-66603619D01*
X149899666Y-66698857D01*
X149899666Y-66841714D01*
X149947285Y-66936952D01*
X149994904Y-66984571D01*
X150090142Y-67032190D01*
X150471095Y-67032190D01*
X149566333Y-66508380D02*
X148899666Y-67508380D01*
X148899666Y-66508380D02*
X149566333Y-67508380D01*
X145613380Y-68826142D02*
X145137190Y-68492809D01*
X145613380Y-68254714D02*
X144613380Y-68254714D01*
X144613380Y-68635666D01*
X144661000Y-68730904D01*
X144708619Y-68778523D01*
X144803857Y-68826142D01*
X144946714Y-68826142D01*
X145041952Y-68778523D01*
X145089571Y-68730904D01*
X145137190Y-68635666D01*
X145137190Y-68254714D01*
X145613380Y-69778523D02*
X145613380Y-69207095D01*
X145613380Y-69492809D02*
X144613380Y-69492809D01*
X144756238Y-69397571D01*
X144851476Y-69302333D01*
X144899095Y-69207095D01*
X145613380Y-70730904D02*
X145613380Y-70159476D01*
X145613380Y-70445190D02*
X144613380Y-70445190D01*
X144756238Y-70349952D01*
X144851476Y-70254714D01*
X144899095Y-70159476D01*
X159678666Y-68175142D02*
X159726285Y-68222761D01*
X159869142Y-68270380D01*
X159964380Y-68270380D01*
X160107238Y-68222761D01*
X160202476Y-68127523D01*
X160250095Y-68032285D01*
X160297714Y-67841809D01*
X160297714Y-67698952D01*
X160250095Y-67508476D01*
X160202476Y-67413238D01*
X160107238Y-67318000D01*
X159964380Y-67270380D01*
X159869142Y-67270380D01*
X159726285Y-67318000D01*
X159678666Y-67365619D01*
X159297714Y-67365619D02*
X159250095Y-67318000D01*
X159154857Y-67270380D01*
X158916761Y-67270380D01*
X158821523Y-67318000D01*
X158773904Y-67365619D01*
X158726285Y-67460857D01*
X158726285Y-67556095D01*
X158773904Y-67698952D01*
X159345333Y-68270380D01*
X158726285Y-68270380D01*
X153361380Y-76668333D02*
X152885190Y-76335000D01*
X153361380Y-76096904D02*
X152361380Y-76096904D01*
X152361380Y-76477857D01*
X152409000Y-76573095D01*
X152456619Y-76620714D01*
X152551857Y-76668333D01*
X152694714Y-76668333D01*
X152789952Y-76620714D01*
X152837571Y-76573095D01*
X152885190Y-76477857D01*
X152885190Y-76096904D01*
X152456619Y-77049285D02*
X152409000Y-77096904D01*
X152361380Y-77192142D01*
X152361380Y-77430238D01*
X152409000Y-77525476D01*
X152456619Y-77573095D01*
X152551857Y-77620714D01*
X152647095Y-77620714D01*
X152789952Y-77573095D01*
X153361380Y-77001666D01*
X153361380Y-77620714D01*
X133513380Y-66683095D02*
X133513380Y-67254523D01*
X134513380Y-66968809D02*
X133513380Y-66968809D01*
X134513380Y-67587857D02*
X133513380Y-67587857D01*
X133513380Y-67968809D01*
X133561000Y-68064047D01*
X133608619Y-68111666D01*
X133703857Y-68159285D01*
X133846714Y-68159285D01*
X133941952Y-68111666D01*
X133989571Y-68064047D01*
X134037190Y-67968809D01*
X134037190Y-67587857D01*
X133513380Y-68492619D02*
X133513380Y-69111666D01*
X133894333Y-68778333D01*
X133894333Y-68921190D01*
X133941952Y-69016428D01*
X133989571Y-69064047D01*
X134084809Y-69111666D01*
X134322904Y-69111666D01*
X134418142Y-69064047D01*
X134465761Y-69016428D01*
X134513380Y-68921190D01*
X134513380Y-68635476D01*
X134465761Y-68540238D01*
X134418142Y-68492619D01*
X148248666Y-76938142D02*
X148296285Y-76985761D01*
X148439142Y-77033380D01*
X148534380Y-77033380D01*
X148677238Y-76985761D01*
X148772476Y-76890523D01*
X148820095Y-76795285D01*
X148867714Y-76604809D01*
X148867714Y-76461952D01*
X148820095Y-76271476D01*
X148772476Y-76176238D01*
X148677238Y-76081000D01*
X148534380Y-76033380D01*
X148439142Y-76033380D01*
X148296285Y-76081000D01*
X148248666Y-76128619D01*
X147296285Y-77033380D02*
X147867714Y-77033380D01*
X147582000Y-77033380D02*
X147582000Y-76033380D01*
X147677238Y-76176238D01*
X147772476Y-76271476D01*
X147867714Y-76319095D01*
X166107904Y-63079380D02*
X165536476Y-63079380D01*
X165822190Y-64079380D02*
X165822190Y-63079380D01*
X165203142Y-64079380D02*
X165203142Y-63079380D01*
X164822190Y-63079380D01*
X164726952Y-63127000D01*
X164679333Y-63174619D01*
X164631714Y-63269857D01*
X164631714Y-63412714D01*
X164679333Y-63507952D01*
X164726952Y-63555571D01*
X164822190Y-63603190D01*
X165203142Y-63603190D01*
X163774571Y-63412714D02*
X163774571Y-64079380D01*
X164012666Y-63031761D02*
X164250761Y-63746047D01*
X163631714Y-63746047D01*
X157900666Y-73095380D02*
X158234000Y-72619190D01*
X158472095Y-73095380D02*
X158472095Y-72095380D01*
X158091142Y-72095380D01*
X157995904Y-72143000D01*
X157948285Y-72190619D01*
X157900666Y-72285857D01*
X157900666Y-72428714D01*
X157948285Y-72523952D01*
X157995904Y-72571571D01*
X158091142Y-72619190D01*
X158472095Y-72619190D01*
X157567333Y-72095380D02*
X156948285Y-72095380D01*
X157281619Y-72476333D01*
X157138761Y-72476333D01*
X157043523Y-72523952D01*
X156995904Y-72571571D01*
X156948285Y-72666809D01*
X156948285Y-72904904D01*
X156995904Y-73000142D01*
X157043523Y-73047761D01*
X157138761Y-73095380D01*
X157424476Y-73095380D01*
X157519714Y-73047761D01*
X157567333Y-73000142D01*
X142104904Y-63663380D02*
X141533476Y-63663380D01*
X141819190Y-64663380D02*
X141819190Y-63663380D01*
X141200142Y-64663380D02*
X141200142Y-63663380D01*
X140819190Y-63663380D01*
X140723952Y-63711000D01*
X140676333Y-63758619D01*
X140628714Y-63853857D01*
X140628714Y-63996714D01*
X140676333Y-64091952D01*
X140723952Y-64139571D01*
X140819190Y-64187190D01*
X141200142Y-64187190D01*
X139723952Y-63663380D02*
X140200142Y-63663380D01*
X140247761Y-64139571D01*
X140200142Y-64091952D01*
X140104904Y-64044333D01*
X139866809Y-64044333D01*
X139771571Y-64091952D01*
X139723952Y-64139571D01*
X139676333Y-64234809D01*
X139676333Y-64472904D01*
X139723952Y-64568142D01*
X139771571Y-64615761D01*
X139866809Y-64663380D01*
X140104904Y-64663380D01*
X140200142Y-64615761D01*
X140247761Y-64568142D01*
D11*
X146204000Y-68553064D02*
X146204000Y-68098936D01*
X147674000Y-68553064D02*
X147674000Y-68098936D01*
X158101420Y-68705000D02*
X158382580Y-68705000D01*
X158101420Y-69725000D02*
X158382580Y-69725000D01*
X153824000Y-76607936D02*
X153824000Y-77062064D01*
X155294000Y-76607936D02*
X155294000Y-77062064D01*
X134809000Y-68645000D02*
X136209000Y-68645000D01*
X136209000Y-67245000D02*
X134809000Y-67245000D01*
X136209000Y-68645000D02*
X136209000Y-67245000D01*
X134809000Y-67245000D02*
X134809000Y-68645000D01*
X150635580Y-76071000D02*
X150354420Y-76071000D01*
X150635580Y-77091000D02*
X150354420Y-77091000D01*
X163260000Y-63562000D02*
X161860000Y-63562000D01*
X161860000Y-64962000D02*
X163260000Y-64962000D01*
X161860000Y-63562000D02*
X161860000Y-64962000D01*
X163260000Y-64962000D02*
X163260000Y-63562000D01*
X157506936Y-70258000D02*
X157961064Y-70258000D01*
X157506936Y-71728000D02*
X157961064Y-71728000D01*
X140143000Y-64959000D02*
X140143000Y-66359000D01*
X141543000Y-66359000D02*
X141543000Y-64959000D01*
X141543000Y-64959000D02*
X140143000Y-64959000D01*
X140143000Y-66359000D02*
X141543000Y-66359000D01*
M02*
