M48
INCH,TZ
T1C0.0079
T2C0.0157
T3C0.0394
T4C0.0413
T5C0.0433
%
G90
G05
T1
X59206Y-27756
X59206Y-28150
X59206Y-28544
X59600Y-27756
X59600Y-28150
X59600Y-28544
X59994Y-27756
X59994Y-28150
X59994Y-28544
T2
X52300Y-26750
X53200Y-29500
X53200Y-30050
X53850Y-28600
X54100Y-27000
X54850Y-28600
X56050Y-27750
X56200Y-27000
X57300Y-27000
X57750Y-29050
X57800Y-27800
X57850Y-28200
X58400Y-29600
X59300Y-29600
X59850Y-26700
X59850Y-29600
X60100Y-30600
X60650Y-26750
X61200Y-28350
X61500Y-29650
X62800Y-29050
X64550Y-25900
T3
X56806Y-25590
X57806Y-25590
X58806Y-25590
X59806Y-25590
X63600Y-26500
X63600Y-27500
X63600Y-28500
X63600Y-29500
T4
X49827Y-26622
X49827Y-27606
X49827Y-28394
X49827Y-29378
T5
G00X49305Y-25756
M15
G01X48695Y-25756
M16
G05
G00X49305Y-30244
M15
G01X48695Y-30244
M16
G05
T0
M30
