G04 #@! TF.GenerationSoftware,KiCad,Pcbnew,6.0.4+dfsg-1*
G04 #@! TF.CreationDate,2022-03-26T10:07:46-04:00*
G04 #@! TF.ProjectId,PortaNet,506f7274-614e-4657-942e-6b696361645f,rev?*
G04 #@! TF.SameCoordinates,Original*
G04 #@! TF.FileFunction,Soldermask,Top*
G04 #@! TF.FilePolarity,Negative*
%FSLAX46Y46*%
G04 Gerber Fmt 4.6, Leading zero omitted, Abs format (unit mm)*
G04 Created by KiCad (PCBNEW 6.0.4+dfsg-1) date 2022-03-26 10:07:46*
%MOMM*%
%LPD*%
G01*
G04 APERTURE LIST*
G04 Aperture macros list*
%AMRoundRect*
0 Rectangle with rounded corners*
0 $1 Rounding radius*
0 $2 $3 $4 $5 $6 $7 $8 $9 X,Y pos of 4 corners*
0 Add a 4 corners polygon primitive as box body*
4,1,4,$2,$3,$4,$5,$6,$7,$8,$9,$2,$3,0*
0 Add four circle primitives for the rounded corners*
1,1,$1+$1,$2,$3*
1,1,$1+$1,$4,$5*
1,1,$1+$1,$6,$7*
1,1,$1+$1,$8,$9*
0 Add four rect primitives between the rounded corners*
20,1,$1+$1,$2,$3,$4,$5,0*
20,1,$1+$1,$4,$5,$6,$7,0*
20,1,$1+$1,$6,$7,$8,$9,0*
20,1,$1+$1,$8,$9,$2,$3,0*%
G04 Aperture macros list end*
%ADD10RoundRect,0.218750X0.218750X0.256250X-0.218750X0.256250X-0.218750X-0.256250X0.218750X-0.256250X0*%
%ADD11RoundRect,0.187500X0.687500X0.187500X-0.687500X0.187500X-0.687500X-0.187500X0.687500X-0.187500X0*%
%ADD12C,2.500000*%
%ADD13RoundRect,0.250000X-0.262500X-0.450000X0.262500X-0.450000X0.262500X0.450000X-0.262500X0.450000X0*%
%ADD14RoundRect,0.225000X0.225000X0.250000X-0.225000X0.250000X-0.225000X-0.250000X0.225000X-0.250000X0*%
%ADD15C,1.524000*%
%ADD16C,1.750000*%
%ADD17C,1.600000*%
%ADD18O,3.500000X2.000000*%
%ADD19RoundRect,0.250000X0.262500X0.450000X-0.262500X0.450000X-0.262500X-0.450000X0.262500X-0.450000X0*%
%ADD20RoundRect,0.062500X0.062500X-0.375000X0.062500X0.375000X-0.062500X0.375000X-0.062500X-0.375000X0*%
%ADD21RoundRect,0.062500X0.375000X-0.062500X0.375000X0.062500X-0.375000X0.062500X-0.375000X-0.062500X0*%
%ADD22R,3.300000X3.300000*%
%ADD23RoundRect,0.225000X-0.250000X0.225000X-0.250000X-0.225000X0.250000X-0.225000X0.250000X0.225000X0*%
%ADD24RoundRect,0.218750X0.256250X-0.218750X0.256250X0.218750X-0.256250X0.218750X-0.256250X-0.218750X0*%
%ADD25R,1.700000X1.700000*%
%ADD26O,1.700000X1.700000*%
%ADD27R,1.500000X2.000000*%
%ADD28R,3.800000X2.000000*%
%ADD29R,1.200000X1.400000*%
%ADD30RoundRect,0.250000X0.450000X-0.262500X0.450000X0.262500X-0.450000X0.262500X-0.450000X-0.262500X0*%
%ADD31RoundRect,0.225000X0.250000X-0.225000X0.250000X0.225000X-0.250000X0.225000X-0.250000X-0.225000X0*%
%ADD32R,1.100000X1.100000*%
G04 APERTURE END LIST*
D10*
X167284500Y-66802000D03*
X165709500Y-66802000D03*
D11*
X166089000Y-78041500D03*
X166089000Y-74841500D03*
D12*
X166243000Y-71120000D03*
D13*
X136755500Y-74168000D03*
X138580500Y-74168000D03*
D14*
X145555000Y-71374000D03*
X144005000Y-71374000D03*
D15*
X124460000Y-68870000D03*
X124460000Y-73370000D03*
D16*
X126560000Y-74620000D03*
D17*
X126560000Y-72120000D03*
X126560000Y-70120000D03*
D16*
X126560000Y-67620000D03*
D18*
X124460000Y-76820000D03*
X124460000Y-65420000D03*
D13*
X136755500Y-77089000D03*
X138580500Y-77089000D03*
D14*
X145555000Y-69723000D03*
X144005000Y-69723000D03*
D19*
X167282500Y-64770000D03*
X165457500Y-64770000D03*
X161694500Y-77978000D03*
X159869500Y-77978000D03*
D20*
X149634000Y-73938500D03*
X150134000Y-73938500D03*
X150634000Y-73938500D03*
X151134000Y-73938500D03*
X151634000Y-73938500D03*
X152134000Y-73938500D03*
X152634000Y-73938500D03*
X153134000Y-73938500D03*
D21*
X153821500Y-73251000D03*
X153821500Y-72751000D03*
X153821500Y-72251000D03*
X153821500Y-71751000D03*
X153821500Y-71251000D03*
X153821500Y-70751000D03*
X153821500Y-70251000D03*
X153821500Y-69751000D03*
D20*
X153134000Y-69063500D03*
X152634000Y-69063500D03*
X152134000Y-69063500D03*
X151634000Y-69063500D03*
X151134000Y-69063500D03*
X150634000Y-69063500D03*
X150134000Y-69063500D03*
X149634000Y-69063500D03*
D21*
X148946500Y-69751000D03*
X148946500Y-70251000D03*
X148946500Y-70751000D03*
X148946500Y-71251000D03*
X148946500Y-71751000D03*
X148946500Y-72251000D03*
X148946500Y-72751000D03*
X148946500Y-73251000D03*
D22*
X151384000Y-71501000D03*
D23*
X130048000Y-69837000D03*
X130048000Y-71387000D03*
D13*
X156313500Y-73914000D03*
X158138500Y-73914000D03*
D24*
X133731000Y-78257500D03*
X133731000Y-76682500D03*
D25*
X144287000Y-64999000D03*
D26*
X146827000Y-64999000D03*
X149367000Y-64999000D03*
X151907000Y-64999000D03*
D27*
X132701000Y-70968000D03*
X135001000Y-70968000D03*
D28*
X135001000Y-64668000D03*
D27*
X137301000Y-70968000D03*
D19*
X158138500Y-76708000D03*
X156313500Y-76708000D03*
D29*
X143676000Y-73830000D03*
X143676000Y-76030000D03*
X145376000Y-76030000D03*
X145376000Y-73830000D03*
D14*
X145555000Y-77851000D03*
X144005000Y-77851000D03*
D25*
X161544000Y-67310000D03*
D26*
X161544000Y-69850000D03*
X161544000Y-72390000D03*
X161544000Y-74930000D03*
D30*
X130429000Y-78255500D03*
X130429000Y-76430500D03*
D23*
X141986000Y-73520000D03*
X141986000Y-75070000D03*
D31*
X130048000Y-67958000D03*
X130048000Y-66408000D03*
D32*
X133099000Y-74168000D03*
X130299000Y-74168000D03*
D19*
X153566500Y-76581000D03*
X151741500Y-76581000D03*
M02*
