G04 #@! TF.GenerationSoftware,KiCad,Pcbnew,6.0.4+dfsg-1+b1*
G04 #@! TF.CreationDate,2022-05-02T16:53:39-04:00*
G04 #@! TF.ProjectId,PortaNet,506f7274-614e-4657-942e-6b696361645f,4.0*
G04 #@! TF.SameCoordinates,Original*
G04 #@! TF.FileFunction,Copper,L1,Top*
G04 #@! TF.FilePolarity,Positive*
%FSLAX46Y46*%
G04 Gerber Fmt 4.6, Leading zero omitted, Abs format (unit mm)*
G04 Created by KiCad (PCBNEW 6.0.4+dfsg-1+b1) date 2022-05-02 16:53:39*
%MOMM*%
%LPD*%
G01*
G04 APERTURE LIST*
G04 Aperture macros list*
%AMRoundRect*
0 Rectangle with rounded corners*
0 $1 Rounding radius*
0 $2 $3 $4 $5 $6 $7 $8 $9 X,Y pos of 4 corners*
0 Add a 4 corners polygon primitive as box body*
4,1,4,$2,$3,$4,$5,$6,$7,$8,$9,$2,$3,0*
0 Add four circle primitives for the rounded corners*
1,1,$1+$1,$2,$3*
1,1,$1+$1,$4,$5*
1,1,$1+$1,$6,$7*
1,1,$1+$1,$8,$9*
0 Add four rect primitives between the rounded corners*
20,1,$1+$1,$2,$3,$4,$5,0*
20,1,$1+$1,$4,$5,$6,$7,0*
20,1,$1+$1,$6,$7,$8,$9,0*
20,1,$1+$1,$8,$9,$2,$3,0*%
G04 Aperture macros list end*
G04 #@! TA.AperFunction,SMDPad,CuDef*
%ADD10RoundRect,0.250000X0.450000X-0.262500X0.450000X0.262500X-0.450000X0.262500X-0.450000X-0.262500X0*%
G04 #@! TD*
G04 #@! TA.AperFunction,SMDPad,CuDef*
%ADD11RoundRect,0.225000X0.225000X0.250000X-0.225000X0.250000X-0.225000X-0.250000X0.225000X-0.250000X0*%
G04 #@! TD*
G04 #@! TA.AperFunction,ComponentPad*
%ADD12C,2.050000*%
G04 #@! TD*
G04 #@! TA.AperFunction,ComponentPad*
%ADD13C,2.250000*%
G04 #@! TD*
G04 #@! TA.AperFunction,SMDPad,CuDef*
%ADD14RoundRect,0.250000X-0.325000X-0.450000X0.325000X-0.450000X0.325000X0.450000X-0.325000X0.450000X0*%
G04 #@! TD*
G04 #@! TA.AperFunction,WasherPad*
%ADD15C,1.524000*%
G04 #@! TD*
G04 #@! TA.AperFunction,ComponentPad*
%ADD16C,1.750000*%
G04 #@! TD*
G04 #@! TA.AperFunction,ComponentPad*
%ADD17C,1.600000*%
G04 #@! TD*
G04 #@! TA.AperFunction,ComponentPad*
%ADD18O,3.500000X2.000000*%
G04 #@! TD*
G04 #@! TA.AperFunction,SMDPad,CuDef*
%ADD19RoundRect,0.225000X-0.250000X0.225000X-0.250000X-0.225000X0.250000X-0.225000X0.250000X0.225000X0*%
G04 #@! TD*
G04 #@! TA.AperFunction,SMDPad,CuDef*
%ADD20RoundRect,0.062500X0.375000X0.062500X-0.375000X0.062500X-0.375000X-0.062500X0.375000X-0.062500X0*%
G04 #@! TD*
G04 #@! TA.AperFunction,SMDPad,CuDef*
%ADD21RoundRect,0.062500X0.062500X0.375000X-0.062500X0.375000X-0.062500X-0.375000X0.062500X-0.375000X0*%
G04 #@! TD*
G04 #@! TA.AperFunction,ComponentPad*
%ADD22C,0.500000*%
G04 #@! TD*
G04 #@! TA.AperFunction,SMDPad,CuDef*
%ADD23R,3.300000X3.300000*%
G04 #@! TD*
G04 #@! TA.AperFunction,SMDPad,CuDef*
%ADD24RoundRect,0.225000X0.250000X-0.225000X0.250000X0.225000X-0.250000X0.225000X-0.250000X-0.225000X0*%
G04 #@! TD*
G04 #@! TA.AperFunction,SMDPad,CuDef*
%ADD25R,1.500000X2.000000*%
G04 #@! TD*
G04 #@! TA.AperFunction,SMDPad,CuDef*
%ADD26R,3.800000X2.000000*%
G04 #@! TD*
G04 #@! TA.AperFunction,SMDPad,CuDef*
%ADD27R,1.400000X1.200000*%
G04 #@! TD*
G04 #@! TA.AperFunction,SMDPad,CuDef*
%ADD28R,1.100000X1.100000*%
G04 #@! TD*
G04 #@! TA.AperFunction,ViaPad*
%ADD29C,0.800000*%
G04 #@! TD*
G04 #@! TA.AperFunction,Conductor*
%ADD30C,0.200000*%
G04 #@! TD*
G04 #@! TA.AperFunction,Conductor*
%ADD31C,0.500000*%
G04 #@! TD*
G04 #@! TA.AperFunction,Conductor*
%ADD32C,0.250000*%
G04 #@! TD*
G04 APERTURE END LIST*
D10*
X152400000Y-74525500D03*
X152400000Y-76350500D03*
X154432000Y-77239500D03*
X154432000Y-75414500D03*
D11*
X160287000Y-67310000D03*
X158737000Y-67310000D03*
X160287000Y-65659000D03*
X158737000Y-65659000D03*
X167272000Y-67183000D03*
X165722000Y-67183000D03*
X165722000Y-65659000D03*
X167272000Y-65659000D03*
D12*
X180975000Y-72898000D03*
D13*
X183515000Y-75438000D03*
X178435000Y-70358000D03*
X178435000Y-75438000D03*
X183515000Y-70358000D03*
D14*
X174253000Y-72898000D03*
X172203000Y-72898000D03*
D11*
X158382000Y-70866000D03*
X156832000Y-70866000D03*
D15*
X141986000Y-69124000D03*
X141986000Y-73624000D03*
D16*
X144086000Y-74874000D03*
D17*
X144086000Y-72374000D03*
X144086000Y-70374000D03*
D16*
X144086000Y-67874000D03*
D18*
X141986000Y-77074000D03*
X141986000Y-65674000D03*
D19*
X175895000Y-72885000D03*
X175895000Y-74435000D03*
D11*
X158382000Y-69342000D03*
X156832000Y-69342000D03*
D20*
X165251500Y-73124000D03*
X165251500Y-72624000D03*
X165251500Y-72124000D03*
X165251500Y-71624000D03*
X165251500Y-71124000D03*
X165251500Y-70624000D03*
X165251500Y-70124000D03*
X165251500Y-69624000D03*
D21*
X164564000Y-68936500D03*
X164064000Y-68936500D03*
X163564000Y-68936500D03*
X163064000Y-68936500D03*
X162564000Y-68936500D03*
X162064000Y-68936500D03*
X161564000Y-68936500D03*
X161064000Y-68936500D03*
D20*
X160376500Y-69624000D03*
X160376500Y-70124000D03*
X160376500Y-70624000D03*
X160376500Y-71124000D03*
X160376500Y-71624000D03*
X160376500Y-72124000D03*
X160376500Y-72624000D03*
X160376500Y-73124000D03*
D21*
X161064000Y-73811500D03*
X161564000Y-73811500D03*
X162064000Y-73811500D03*
X162564000Y-73811500D03*
X163064000Y-73811500D03*
X163564000Y-73811500D03*
X164064000Y-73811500D03*
X164564000Y-73811500D03*
D22*
X162814000Y-70374000D03*
X163814000Y-72374000D03*
X161814000Y-71374000D03*
X161814000Y-70374000D03*
X162814000Y-71374000D03*
D23*
X162814000Y-71374000D03*
D22*
X163814000Y-70374000D03*
X163814000Y-71374000D03*
X161814000Y-72374000D03*
X162814000Y-72374000D03*
D24*
X147066000Y-68440000D03*
X147066000Y-69990000D03*
D25*
X154065000Y-71095000D03*
D26*
X151765000Y-64795000D03*
D25*
X151765000Y-71095000D03*
X149465000Y-71095000D03*
D24*
X170561000Y-71361000D03*
X170561000Y-72911000D03*
D27*
X164635000Y-77685000D03*
X166835000Y-77685000D03*
X166835000Y-75985000D03*
X164635000Y-75985000D03*
D19*
X168783000Y-76314000D03*
X168783000Y-77864000D03*
D11*
X162827000Y-77851000D03*
X161277000Y-77851000D03*
D24*
X147066000Y-66942000D03*
X147066000Y-65392000D03*
D28*
X149863000Y-76581000D03*
X147063000Y-76581000D03*
D29*
X154940000Y-69342000D03*
X153162000Y-69342000D03*
X149860000Y-74930000D03*
X149479000Y-69469000D03*
X175895000Y-75565000D03*
X171831000Y-71247000D03*
X154051000Y-68199000D03*
X158369000Y-72009000D03*
X156718000Y-72009000D03*
X154051000Y-69342000D03*
X151765000Y-69342000D03*
X148590000Y-68453000D03*
X147066000Y-64262000D03*
X154051000Y-63119000D03*
X149225000Y-64770000D03*
X156337000Y-63246000D03*
X156337000Y-67564000D03*
X157607000Y-66421000D03*
X160401000Y-64135000D03*
X168021000Y-63881000D03*
X167005000Y-64389000D03*
X171323000Y-67183000D03*
X178943000Y-63373000D03*
X176403000Y-63373000D03*
X184023000Y-64643000D03*
X184023000Y-68453000D03*
X184023000Y-77343000D03*
X181483000Y-63373000D03*
X181483000Y-79248000D03*
X178943000Y-79248000D03*
X176403000Y-79248000D03*
X169164000Y-73914000D03*
X161798000Y-76073000D03*
X173355000Y-79248000D03*
X171323000Y-77343000D03*
X171323000Y-74803000D03*
X173863000Y-63373000D03*
X168783000Y-70993000D03*
X168021000Y-72263000D03*
X166370000Y-74422000D03*
X162179000Y-75057000D03*
X160528000Y-76708000D03*
X159766000Y-77978000D03*
X167640000Y-73914000D03*
X168783000Y-74803000D03*
X170053000Y-76073000D03*
X170053000Y-77343000D03*
X164973000Y-79248000D03*
X162433000Y-79248000D03*
X159766000Y-79248000D03*
X163322000Y-76073000D03*
X166878000Y-70358000D03*
X166751000Y-69215000D03*
X162814000Y-67437000D03*
X161671000Y-67437000D03*
D30*
X154432000Y-77239500D02*
X154870999Y-76800501D01*
X154870999Y-76800501D02*
X159229699Y-76800501D01*
X161539001Y-73836499D02*
X161564000Y-73811500D01*
X159043300Y-76350500D02*
X161088999Y-74304801D01*
X159229699Y-76800501D02*
X161539001Y-74491199D01*
X161539001Y-74491199D02*
X161539001Y-73836499D01*
X152400000Y-76350500D02*
X159043300Y-76350500D01*
X161088999Y-74304801D02*
X161088999Y-73836499D01*
X161088999Y-73836499D02*
X161064000Y-73811500D01*
D31*
X154940000Y-69342000D02*
X154940000Y-69850000D01*
X154940000Y-69850000D02*
X154749500Y-70040500D01*
X153162000Y-69723000D02*
X153543000Y-70104000D01*
X153162000Y-69342000D02*
X153162000Y-69723000D01*
X153162000Y-69342000D02*
X153317000Y-69342000D01*
X153317000Y-69342000D02*
X154065000Y-70090000D01*
X153162000Y-69342000D02*
X154051000Y-69342000D01*
X154940000Y-69342000D02*
X154051000Y-69342000D01*
X154940000Y-69342000D02*
X154192000Y-70090000D01*
X154192000Y-70090000D02*
X154065000Y-70090000D01*
X154065000Y-71095000D02*
X154065000Y-70090000D01*
X154065000Y-70090000D02*
X154065000Y-69356000D01*
D32*
X165989000Y-64516000D02*
X166878000Y-64516000D01*
X166878000Y-64516000D02*
X167005000Y-64389000D01*
X167513000Y-65659000D02*
X168148000Y-65024000D01*
X167272000Y-65659000D02*
X167513000Y-65659000D01*
X168148000Y-65024000D02*
X168148000Y-64008000D01*
X168148000Y-64008000D02*
X168021000Y-63881000D01*
X165989000Y-64516000D02*
X165722000Y-64783000D01*
X165722000Y-64783000D02*
X165722000Y-65659000D01*
X166835000Y-77685000D02*
X166712000Y-77685000D01*
X166712000Y-77685000D02*
X165862000Y-76835000D01*
X165862000Y-76835000D02*
X165608000Y-76835000D01*
X165608000Y-76835000D02*
X164758000Y-75985000D01*
X164758000Y-75985000D02*
X164635000Y-75985000D01*
D31*
X170480893Y-74168005D02*
G75*
G02*
X170834447Y-74314447I7J-499995D01*
G01*
X169164000Y-73914000D02*
X169418000Y-74168000D01*
X169418000Y-74168000D02*
X170480893Y-74168000D01*
X170834447Y-74314447D02*
X171323000Y-74803000D01*
D32*
X165251500Y-72624000D02*
X165251500Y-72124000D01*
X166763000Y-72124000D02*
X165251500Y-72124000D01*
D31*
X149479000Y-69469000D02*
X149479000Y-71081000D01*
X149479000Y-71081000D02*
X149465000Y-71095000D01*
X149479000Y-69469000D02*
X149479000Y-67564000D01*
X149479000Y-67564000D02*
X148844000Y-66929000D01*
X149863000Y-76581000D02*
X149863000Y-74933000D01*
X149863000Y-74933000D02*
X149860000Y-74930000D01*
X167640000Y-74303000D02*
G75*
G03*
X168140000Y-74803000I500000J0D01*
G01*
X167640000Y-73914000D02*
X167640000Y-74303000D01*
X168140000Y-74803000D02*
X168783000Y-74803000D01*
D32*
X175895000Y-74435000D02*
X175895000Y-75565000D01*
X170561000Y-71361000D02*
X171717000Y-71361000D01*
X171717000Y-71361000D02*
X171831000Y-71247000D01*
X160376500Y-69624000D02*
X158664000Y-69624000D01*
X158664000Y-69624000D02*
X158382000Y-69342000D01*
D31*
X158382000Y-70866000D02*
X158382000Y-69342000D01*
X158369000Y-72009000D02*
X158369000Y-70879000D01*
X158369000Y-70879000D02*
X158382000Y-70866000D01*
X156832000Y-70866000D02*
X156832000Y-69342000D01*
X156718000Y-72009000D02*
X156718000Y-70980000D01*
X156718000Y-70980000D02*
X156832000Y-70866000D01*
X154065000Y-69356000D02*
X154051000Y-69342000D01*
X151765000Y-71095000D02*
X151765000Y-69342000D01*
X149465000Y-71095000D02*
X148171000Y-71095000D01*
X148171000Y-71095000D02*
X147066000Y-69990000D01*
X148844000Y-66929000D02*
X147079000Y-66929000D01*
X147079000Y-66929000D02*
X147066000Y-66942000D01*
X148590000Y-68453000D02*
X147079000Y-68453000D01*
X147079000Y-68453000D02*
X147066000Y-68440000D01*
X147066000Y-64262000D02*
X147066000Y-65392000D01*
X151765000Y-64795000D02*
X149250000Y-64795000D01*
X149250000Y-64795000D02*
X149225000Y-64770000D01*
D32*
X156337000Y-63246000D02*
X156337000Y-67564000D01*
X158737000Y-65659000D02*
X158369000Y-65659000D01*
X158369000Y-65659000D02*
X157607000Y-66421000D01*
X158737000Y-65659000D02*
X158737000Y-67310000D01*
X163576000Y-68924500D02*
X163576000Y-66802000D01*
X163576000Y-66802000D02*
X162433000Y-65659000D01*
X162433000Y-65659000D02*
X160287000Y-65659000D01*
X167272000Y-67183000D02*
X167272000Y-67196000D01*
X160414000Y-65532000D02*
X160414000Y-67183000D01*
X160414000Y-65532000D02*
X160414000Y-64148000D01*
X160414000Y-64148000D02*
X160401000Y-64135000D01*
X165722000Y-65659000D02*
X165722000Y-67183000D01*
D31*
X171323000Y-65373000D02*
G75*
G02*
X173323000Y-63373000I2000000J0D01*
G01*
X168783010Y-70137214D02*
G75*
G02*
X169075893Y-69430107I999990J14D01*
G01*
X171323000Y-67183000D02*
X171323000Y-65373000D01*
X173323000Y-63373000D02*
X173863000Y-63373000D01*
X168783000Y-70993000D02*
X168783000Y-70137214D01*
X169075893Y-69430107D02*
X171323000Y-67183000D01*
X168283000Y-72263000D02*
G75*
G03*
X168783000Y-71763000I0J500000D01*
G01*
X168783000Y-70993000D02*
X168783000Y-71763000D01*
X168283000Y-72263000D02*
X168021000Y-72263000D01*
X176403000Y-63373000D02*
X173863000Y-63373000D01*
X178943000Y-63373000D02*
X176403000Y-63373000D01*
X181483000Y-63373000D02*
X178943000Y-63373000D01*
X184023000Y-64373000D02*
G75*
G03*
X183023000Y-63373000I-1000000J0D01*
G01*
X184023000Y-64643000D02*
X184023000Y-64373000D01*
X183023000Y-63373000D02*
X181483000Y-63373000D01*
X184023000Y-64643000D02*
X184023000Y-68453000D01*
X183023000Y-79248000D02*
G75*
G03*
X184023000Y-78248000I0J1000000D01*
G01*
X181483000Y-79248000D02*
X183023000Y-79248000D01*
X184023000Y-78248000D02*
X184023000Y-77343000D01*
X178943000Y-79248000D02*
X181483000Y-79248000D01*
X176403000Y-79248000D02*
X178943000Y-79248000D01*
X173355000Y-79248000D02*
X176403000Y-79248000D01*
X172323000Y-79248000D02*
G75*
G02*
X171323000Y-78248000I0J1000000D01*
G01*
X172323000Y-79248000D02*
X173355000Y-79248000D01*
X171323000Y-77343000D02*
X171323000Y-78248000D01*
X171323000Y-74803000D02*
X171323000Y-77343000D01*
D32*
X175895000Y-72885000D02*
X175908000Y-72898000D01*
X175908000Y-72898000D02*
X180975000Y-72898000D01*
X174253000Y-72898000D02*
X175882000Y-72898000D01*
X175882000Y-72898000D02*
X175895000Y-72885000D01*
X170561000Y-72911000D02*
X172190000Y-72911000D01*
X172190000Y-72911000D02*
X172203000Y-72898000D01*
X165251500Y-73124000D02*
X170348000Y-73124000D01*
X170348000Y-73124000D02*
X170561000Y-72911000D01*
D31*
X161798000Y-76073000D02*
X161163000Y-76073000D01*
X161798000Y-75438000D02*
X161798000Y-76073000D01*
X162179000Y-75057000D02*
X161798000Y-75438000D01*
X161163000Y-76073000D02*
X160528000Y-76708000D01*
X169053000Y-79248000D02*
G75*
G03*
X170053000Y-78248000I0J1000000D01*
G01*
X169053000Y-79248000D02*
X167513000Y-79248000D01*
X169053000Y-74803000D02*
G75*
G02*
X170053000Y-75803000I0J-1000000D01*
G01*
X168783000Y-74803000D02*
X169053000Y-74803000D01*
X170053000Y-75803000D02*
X170053000Y-76073000D01*
D32*
X165251500Y-70124000D02*
X165842000Y-70124000D01*
X165842000Y-70124000D02*
X166751000Y-69215000D01*
X165251500Y-70624000D02*
X166612000Y-70624000D01*
X166612000Y-70624000D02*
X166878000Y-70358000D01*
X169024000Y-77864000D02*
X169545000Y-77343000D01*
X168783000Y-77864000D02*
X169024000Y-77864000D01*
X169545000Y-77343000D02*
X170053000Y-77343000D01*
X164564000Y-73811500D02*
X165124500Y-73811500D01*
X165124500Y-73811500D02*
X165735000Y-74422000D01*
X165735000Y-74422000D02*
X166370000Y-74422000D01*
X164064000Y-73811500D02*
X164564000Y-73811500D01*
X161277000Y-77851000D02*
X159893000Y-77851000D01*
X159893000Y-77851000D02*
X159766000Y-77978000D01*
X163576000Y-68924500D02*
X163564000Y-68936500D01*
X161564000Y-68936500D02*
X161564000Y-67544000D01*
X161564000Y-67544000D02*
X161671000Y-67437000D01*
X162814000Y-67437000D02*
X162814000Y-67445614D01*
X162814000Y-67445614D02*
X162064000Y-68195614D01*
X162064000Y-68195614D02*
X162064000Y-68936500D01*
X167272000Y-65659000D02*
X167272000Y-67183000D01*
X166763000Y-72124000D02*
X167640000Y-71247000D01*
X167259000Y-68072000D02*
X167259000Y-67196000D01*
X167640000Y-71247000D02*
X167640000Y-68453000D01*
X167640000Y-68453000D02*
X167259000Y-68072000D01*
X167259000Y-67196000D02*
X167272000Y-67183000D01*
D31*
X170053000Y-77343000D02*
X170053000Y-76073000D01*
X170053000Y-78248000D02*
X170053000Y-77343000D01*
X166243000Y-79248000D02*
X167513000Y-79248000D01*
X164973000Y-79248000D02*
X166243000Y-79248000D01*
X163703000Y-79248000D02*
X164973000Y-79248000D01*
X162433000Y-79248000D02*
X163703000Y-79248000D01*
X161163000Y-79248000D02*
X162433000Y-79248000D01*
X159766000Y-79248000D02*
X161163000Y-79248000D01*
X159766000Y-77978000D02*
X159766000Y-79248000D01*
X160528000Y-76708000D02*
X159766000Y-77470000D01*
X159766000Y-77470000D02*
X159766000Y-77978000D01*
D30*
X162560000Y-75692000D02*
X163068000Y-75184000D01*
X162560000Y-76835000D02*
X162560000Y-75692000D01*
X162827000Y-77851000D02*
X162827000Y-77102000D01*
X162827000Y-77102000D02*
X162560000Y-76835000D01*
X163068000Y-75184000D02*
X163068000Y-73815500D01*
X163068000Y-73815500D02*
X163064000Y-73811500D01*
D32*
X164635000Y-75985000D02*
X163410000Y-75985000D01*
X163410000Y-75985000D02*
X163322000Y-76073000D01*
D30*
X162827000Y-77851000D02*
X164469000Y-77851000D01*
X164469000Y-77851000D02*
X164635000Y-77685000D01*
X168783000Y-76314000D02*
X168135000Y-76314000D01*
X168135000Y-76314000D02*
X167806000Y-75985000D01*
X167806000Y-75985000D02*
X166835000Y-75985000D01*
X163564000Y-73811500D02*
X163564000Y-74537000D01*
X163564000Y-74537000D02*
X163957000Y-74930000D01*
X163957000Y-74930000D02*
X165780000Y-74930000D01*
X165780000Y-74930000D02*
X166835000Y-75985000D01*
X164435978Y-77685000D02*
X164635000Y-77685000D01*
D31*
X144086000Y-74874000D02*
X145793000Y-76581000D01*
X145793000Y-76581000D02*
X147063000Y-76581000D01*
D30*
X152654000Y-73025000D02*
X152277511Y-72648511D01*
X152277511Y-72648511D02*
X147999728Y-72648511D01*
X147999728Y-72648511D02*
X146500216Y-71148999D01*
X146500216Y-71148999D02*
X144860999Y-71148999D01*
X144860999Y-71148999D02*
X144086000Y-70374000D01*
X144860999Y-71599001D02*
X144086000Y-72374000D01*
X152400000Y-74525500D02*
X152400000Y-73660000D01*
X152400000Y-73660000D02*
X152273000Y-73533000D01*
X152273000Y-73533000D02*
X152019000Y-73533000D01*
X152019000Y-73533000D02*
X151584502Y-73098502D01*
X147813336Y-73098502D02*
X146313835Y-71599001D01*
X151584502Y-73098502D02*
X147813336Y-73098502D01*
X146313835Y-71599001D02*
X144860999Y-71599001D01*
X154432000Y-75414500D02*
X154432000Y-73533000D01*
X153924000Y-73025000D02*
X152654000Y-73025000D01*
X154432000Y-73533000D02*
X153924000Y-73025000D01*
M02*
