G04 #@! TF.GenerationSoftware,KiCad,Pcbnew,6.0.4+dfsg-1+b1*
G04 #@! TF.CreationDate,2022-05-02T16:53:39-04:00*
G04 #@! TF.ProjectId,PortaNet,506f7274-614e-4657-942e-6b696361645f,4.0*
G04 #@! TF.SameCoordinates,Original*
G04 #@! TF.FileFunction,Legend,Bot*
G04 #@! TF.FilePolarity,Positive*
%FSLAX46Y46*%
G04 Gerber Fmt 4.6, Leading zero omitted, Abs format (unit mm)*
G04 Created by KiCad (PCBNEW 6.0.4+dfsg-1+b1) date 2022-05-02 16:53:39*
%MOMM*%
%LPD*%
G01*
G04 APERTURE LIST*
%ADD10C,0.100000*%
%ADD11C,0.120000*%
G04 APERTURE END LIST*
D10*
X156513571Y-64532000D02*
X156549285Y-64639142D01*
X156549285Y-64817714D01*
X156513571Y-64889142D01*
X156477857Y-64924857D01*
X156406428Y-64960571D01*
X156335000Y-64960571D01*
X156263571Y-64924857D01*
X156227857Y-64889142D01*
X156192142Y-64817714D01*
X156156428Y-64674857D01*
X156120714Y-64603428D01*
X156085000Y-64567714D01*
X156013571Y-64532000D01*
X155942142Y-64532000D01*
X155870714Y-64567714D01*
X155835000Y-64603428D01*
X155799285Y-64674857D01*
X155799285Y-64853428D01*
X155835000Y-64960571D01*
X155799285Y-65210571D02*
X156549285Y-65389142D01*
X156013571Y-65532000D01*
X156549285Y-65674857D01*
X155799285Y-65853428D01*
X156549285Y-66532000D02*
X156549285Y-66103428D01*
X156549285Y-66317714D02*
X155799285Y-66317714D01*
X155906428Y-66246285D01*
X155977857Y-66174857D01*
X156013571Y-66103428D01*
X160399000Y-64275857D02*
X160434714Y-64311571D01*
X160541857Y-64347285D01*
X160613285Y-64347285D01*
X160720428Y-64311571D01*
X160791857Y-64240142D01*
X160827571Y-64168714D01*
X160863285Y-64025857D01*
X160863285Y-63918714D01*
X160827571Y-63775857D01*
X160791857Y-63704428D01*
X160720428Y-63633000D01*
X160613285Y-63597285D01*
X160541857Y-63597285D01*
X160434714Y-63633000D01*
X160399000Y-63668714D01*
X160113285Y-63668714D02*
X160077571Y-63633000D01*
X160006142Y-63597285D01*
X159827571Y-63597285D01*
X159756142Y-63633000D01*
X159720428Y-63668714D01*
X159684714Y-63740142D01*
X159684714Y-63811571D01*
X159720428Y-63918714D01*
X160149000Y-64347285D01*
X159684714Y-64347285D01*
X169670000Y-64347285D02*
X169920000Y-63990142D01*
X170098571Y-64347285D02*
X170098571Y-63597285D01*
X169812857Y-63597285D01*
X169741428Y-63633000D01*
X169705714Y-63668714D01*
X169670000Y-63740142D01*
X169670000Y-63847285D01*
X169705714Y-63918714D01*
X169741428Y-63954428D01*
X169812857Y-63990142D01*
X170098571Y-63990142D01*
X169384285Y-63668714D02*
X169348571Y-63633000D01*
X169277142Y-63597285D01*
X169098571Y-63597285D01*
X169027142Y-63633000D01*
X168991428Y-63668714D01*
X168955714Y-63740142D01*
X168955714Y-63811571D01*
X168991428Y-63918714D01*
X169420000Y-64347285D01*
X168955714Y-64347285D01*
X166129857Y-63375000D02*
X166165571Y-63339285D01*
X166201285Y-63232142D01*
X166201285Y-63160714D01*
X166165571Y-63053571D01*
X166094142Y-62982142D01*
X166022714Y-62946428D01*
X165879857Y-62910714D01*
X165772714Y-62910714D01*
X165629857Y-62946428D01*
X165558428Y-62982142D01*
X165487000Y-63053571D01*
X165451285Y-63160714D01*
X165451285Y-63232142D01*
X165487000Y-63339285D01*
X165522714Y-63375000D01*
X166201285Y-64089285D02*
X166201285Y-63660714D01*
X166201285Y-63875000D02*
X165451285Y-63875000D01*
X165558428Y-63803571D01*
X165629857Y-63732142D01*
X165665571Y-63660714D01*
X162177000Y-63712285D02*
X162427000Y-63355142D01*
X162605571Y-63712285D02*
X162605571Y-62962285D01*
X162319857Y-62962285D01*
X162248428Y-62998000D01*
X162212714Y-63033714D01*
X162177000Y-63105142D01*
X162177000Y-63212285D01*
X162212714Y-63283714D01*
X162248428Y-63319428D01*
X162319857Y-63355142D01*
X162605571Y-63355142D01*
X161927000Y-62962285D02*
X161462714Y-62962285D01*
X161712714Y-63248000D01*
X161605571Y-63248000D01*
X161534142Y-63283714D01*
X161498428Y-63319428D01*
X161462714Y-63390857D01*
X161462714Y-63569428D01*
X161498428Y-63640857D01*
X161534142Y-63676571D01*
X161605571Y-63712285D01*
X161819857Y-63712285D01*
X161891285Y-63676571D01*
X161927000Y-63640857D01*
X164336000Y-63712285D02*
X164586000Y-63355142D01*
X164764571Y-63712285D02*
X164764571Y-62962285D01*
X164478857Y-62962285D01*
X164407428Y-62998000D01*
X164371714Y-63033714D01*
X164336000Y-63105142D01*
X164336000Y-63212285D01*
X164371714Y-63283714D01*
X164407428Y-63319428D01*
X164478857Y-63355142D01*
X164764571Y-63355142D01*
X163621714Y-63712285D02*
X164050285Y-63712285D01*
X163836000Y-63712285D02*
X163836000Y-62962285D01*
X163907428Y-63069428D01*
X163978857Y-63140857D01*
X164050285Y-63176571D01*
D11*
X154587000Y-67732000D02*
X154587000Y-63332000D01*
X158087000Y-63332000D02*
X158087000Y-67732000D01*
X156287000Y-67732000D02*
X156387000Y-67732000D01*
X156287000Y-63332000D02*
X156387000Y-63332000D01*
X159637000Y-66180580D02*
X159637000Y-65899420D01*
X160657000Y-66180580D02*
X160657000Y-65899420D01*
X168683000Y-66140064D02*
X168683000Y-65685936D01*
X170153000Y-66140064D02*
X170153000Y-65685936D01*
X166372000Y-65672580D02*
X166372000Y-65391420D01*
X165352000Y-65672580D02*
X165352000Y-65391420D01*
X161317000Y-65505064D02*
X161317000Y-65050936D01*
X162787000Y-65505064D02*
X162787000Y-65050936D01*
X164819000Y-65505064D02*
X164819000Y-65050936D01*
X163349000Y-65505064D02*
X163349000Y-65050936D01*
M02*
