G04 #@! TF.GenerationSoftware,KiCad,Pcbnew,6.0.4+dfsg-1+b1*
G04 #@! TF.CreationDate,2022-05-02T16:53:39-04:00*
G04 #@! TF.ProjectId,PortaNet,506f7274-614e-4657-942e-6b696361645f,4.0*
G04 #@! TF.SameCoordinates,Original*
G04 #@! TF.FileFunction,Soldermask,Top*
G04 #@! TF.FilePolarity,Negative*
%FSLAX46Y46*%
G04 Gerber Fmt 4.6, Leading zero omitted, Abs format (unit mm)*
G04 Created by KiCad (PCBNEW 6.0.4+dfsg-1+b1) date 2022-05-02 16:53:39*
%MOMM*%
%LPD*%
G01*
G04 APERTURE LIST*
G04 Aperture macros list*
%AMRoundRect*
0 Rectangle with rounded corners*
0 $1 Rounding radius*
0 $2 $3 $4 $5 $6 $7 $8 $9 X,Y pos of 4 corners*
0 Add a 4 corners polygon primitive as box body*
4,1,4,$2,$3,$4,$5,$6,$7,$8,$9,$2,$3,0*
0 Add four circle primitives for the rounded corners*
1,1,$1+$1,$2,$3*
1,1,$1+$1,$4,$5*
1,1,$1+$1,$6,$7*
1,1,$1+$1,$8,$9*
0 Add four rect primitives between the rounded corners*
20,1,$1+$1,$2,$3,$4,$5,0*
20,1,$1+$1,$4,$5,$6,$7,0*
20,1,$1+$1,$6,$7,$8,$9,0*
20,1,$1+$1,$8,$9,$2,$3,0*%
G04 Aperture macros list end*
%ADD10RoundRect,0.250000X0.450000X-0.262500X0.450000X0.262500X-0.450000X0.262500X-0.450000X-0.262500X0*%
%ADD11RoundRect,0.225000X0.225000X0.250000X-0.225000X0.250000X-0.225000X-0.250000X0.225000X-0.250000X0*%
%ADD12C,2.050000*%
%ADD13C,2.250000*%
%ADD14RoundRect,0.250000X-0.325000X-0.450000X0.325000X-0.450000X0.325000X0.450000X-0.325000X0.450000X0*%
%ADD15C,1.524000*%
%ADD16C,1.750000*%
%ADD17C,1.600000*%
%ADD18O,3.500000X2.000000*%
%ADD19RoundRect,0.225000X-0.250000X0.225000X-0.250000X-0.225000X0.250000X-0.225000X0.250000X0.225000X0*%
%ADD20RoundRect,0.062500X0.375000X0.062500X-0.375000X0.062500X-0.375000X-0.062500X0.375000X-0.062500X0*%
%ADD21RoundRect,0.062500X0.062500X0.375000X-0.062500X0.375000X-0.062500X-0.375000X0.062500X-0.375000X0*%
%ADD22R,3.300000X3.300000*%
%ADD23RoundRect,0.225000X0.250000X-0.225000X0.250000X0.225000X-0.250000X0.225000X-0.250000X-0.225000X0*%
%ADD24R,1.500000X2.000000*%
%ADD25R,3.800000X2.000000*%
%ADD26R,1.400000X1.200000*%
%ADD27R,1.100000X1.100000*%
G04 APERTURE END LIST*
D10*
X152400000Y-74525500D03*
X152400000Y-76350500D03*
X154432000Y-77239500D03*
X154432000Y-75414500D03*
D11*
X160287000Y-67310000D03*
X158737000Y-67310000D03*
X160287000Y-65659000D03*
X158737000Y-65659000D03*
X167272000Y-67183000D03*
X165722000Y-67183000D03*
X165722000Y-65659000D03*
X167272000Y-65659000D03*
D12*
X180975000Y-72898000D03*
D13*
X183515000Y-75438000D03*
X178435000Y-70358000D03*
X178435000Y-75438000D03*
X183515000Y-70358000D03*
D14*
X174253000Y-72898000D03*
X172203000Y-72898000D03*
D11*
X158382000Y-70866000D03*
X156832000Y-70866000D03*
D15*
X141986000Y-69124000D03*
X141986000Y-73624000D03*
D16*
X144086000Y-74874000D03*
D17*
X144086000Y-72374000D03*
X144086000Y-70374000D03*
D16*
X144086000Y-67874000D03*
D18*
X141986000Y-77074000D03*
X141986000Y-65674000D03*
D19*
X175895000Y-72885000D03*
X175895000Y-74435000D03*
D11*
X158382000Y-69342000D03*
X156832000Y-69342000D03*
D20*
X165251500Y-73124000D03*
X165251500Y-72624000D03*
X165251500Y-72124000D03*
X165251500Y-71624000D03*
X165251500Y-71124000D03*
X165251500Y-70624000D03*
X165251500Y-70124000D03*
X165251500Y-69624000D03*
D21*
X164564000Y-68936500D03*
X164064000Y-68936500D03*
X163564000Y-68936500D03*
X163064000Y-68936500D03*
X162564000Y-68936500D03*
X162064000Y-68936500D03*
X161564000Y-68936500D03*
X161064000Y-68936500D03*
D20*
X160376500Y-69624000D03*
X160376500Y-70124000D03*
X160376500Y-70624000D03*
X160376500Y-71124000D03*
X160376500Y-71624000D03*
X160376500Y-72124000D03*
X160376500Y-72624000D03*
X160376500Y-73124000D03*
D21*
X161064000Y-73811500D03*
X161564000Y-73811500D03*
X162064000Y-73811500D03*
X162564000Y-73811500D03*
X163064000Y-73811500D03*
X163564000Y-73811500D03*
X164064000Y-73811500D03*
X164564000Y-73811500D03*
D22*
X162814000Y-71374000D03*
D23*
X147066000Y-68440000D03*
X147066000Y-69990000D03*
D24*
X154065000Y-71095000D03*
D25*
X151765000Y-64795000D03*
D24*
X151765000Y-71095000D03*
X149465000Y-71095000D03*
D23*
X170561000Y-71361000D03*
X170561000Y-72911000D03*
D26*
X164635000Y-77685000D03*
X166835000Y-77685000D03*
X166835000Y-75985000D03*
X164635000Y-75985000D03*
D19*
X168783000Y-76314000D03*
X168783000Y-77864000D03*
D11*
X162827000Y-77851000D03*
X161277000Y-77851000D03*
D23*
X147066000Y-66942000D03*
X147066000Y-65392000D03*
D27*
X149863000Y-76581000D03*
X147063000Y-76581000D03*
M02*
