G04 #@! TF.GenerationSoftware,KiCad,Pcbnew,6.0.4+dfsg-1+b1*
G04 #@! TF.CreationDate,2022-05-02T16:53:39-04:00*
G04 #@! TF.ProjectId,PortaNet,506f7274-614e-4657-942e-6b696361645f,4.0*
G04 #@! TF.SameCoordinates,Original*
G04 #@! TF.FileFunction,Copper,L3,Inr*
G04 #@! TF.FilePolarity,Positive*
%FSLAX46Y46*%
G04 Gerber Fmt 4.6, Leading zero omitted, Abs format (unit mm)*
G04 Created by KiCad (PCBNEW 6.0.4+dfsg-1+b1) date 2022-05-02 16:53:39*
%MOMM*%
%LPD*%
G01*
G04 APERTURE LIST*
G04 #@! TA.AperFunction,ComponentPad*
%ADD10C,2.050000*%
G04 #@! TD*
G04 #@! TA.AperFunction,ComponentPad*
%ADD11C,2.250000*%
G04 #@! TD*
G04 #@! TA.AperFunction,ComponentPad*
%ADD12C,1.750000*%
G04 #@! TD*
G04 #@! TA.AperFunction,ComponentPad*
%ADD13C,1.600000*%
G04 #@! TD*
G04 #@! TA.AperFunction,ComponentPad*
%ADD14O,3.500000X2.000000*%
G04 #@! TD*
G04 #@! TA.AperFunction,ComponentPad*
%ADD15C,0.500000*%
G04 #@! TD*
G04 #@! TA.AperFunction,ViaPad*
%ADD16C,0.800000*%
G04 #@! TD*
G04 APERTURE END LIST*
D10*
X180975000Y-72898000D03*
D11*
X183515000Y-75438000D03*
X178435000Y-70358000D03*
X178435000Y-75438000D03*
X183515000Y-70358000D03*
D12*
X144086000Y-74874000D03*
D13*
X144086000Y-72374000D03*
X144086000Y-70374000D03*
D12*
X144086000Y-67874000D03*
D14*
X141986000Y-77074000D03*
X141986000Y-65674000D03*
D15*
X162814000Y-70374000D03*
X163814000Y-72374000D03*
X161814000Y-71374000D03*
X161814000Y-70374000D03*
X162814000Y-71374000D03*
X163814000Y-70374000D03*
X163814000Y-71374000D03*
X161814000Y-72374000D03*
X162814000Y-72374000D03*
D16*
X154940000Y-69342000D03*
X153162000Y-69342000D03*
X149860000Y-74930000D03*
X149479000Y-69469000D03*
X175895000Y-75565000D03*
X171831000Y-71247000D03*
X154051000Y-68199000D03*
X158369000Y-72009000D03*
X156718000Y-72009000D03*
X154051000Y-69342000D03*
X151765000Y-69342000D03*
X148590000Y-68453000D03*
X147066000Y-64262000D03*
X154051000Y-63119000D03*
X149225000Y-64770000D03*
X156337000Y-63246000D03*
X156337000Y-67564000D03*
X157607000Y-66421000D03*
X160401000Y-64135000D03*
X168021000Y-63881000D03*
X167005000Y-64389000D03*
X171323000Y-67183000D03*
X178943000Y-63373000D03*
X176403000Y-63373000D03*
X184023000Y-64643000D03*
X184023000Y-68453000D03*
X184023000Y-77343000D03*
X181483000Y-63373000D03*
X181483000Y-79248000D03*
X178943000Y-79248000D03*
X176403000Y-79248000D03*
X169164000Y-73914000D03*
X161798000Y-76073000D03*
X173355000Y-79248000D03*
X171323000Y-77343000D03*
X171323000Y-74803000D03*
X173863000Y-63373000D03*
X168783000Y-70993000D03*
X168021000Y-72263000D03*
X166370000Y-74422000D03*
X162179000Y-75057000D03*
X160528000Y-76708000D03*
X159766000Y-77978000D03*
X167640000Y-73914000D03*
X168783000Y-74803000D03*
X170053000Y-76073000D03*
X170053000Y-77343000D03*
X164973000Y-79248000D03*
X162433000Y-79248000D03*
X159766000Y-79248000D03*
X163322000Y-76073000D03*
X166878000Y-70358000D03*
X166751000Y-69215000D03*
X162814000Y-67437000D03*
X161671000Y-67437000D03*
G04 #@! TA.AperFunction,Conductor*
G36*
X155378323Y-63012502D02*
G01*
X155424816Y-63066158D01*
X155435512Y-63131670D01*
X155425031Y-63231396D01*
X155423496Y-63246000D01*
X155424186Y-63252565D01*
X155438775Y-63391367D01*
X155443458Y-63435928D01*
X155502473Y-63617556D01*
X155505776Y-63623278D01*
X155505777Y-63623279D01*
X155509443Y-63629628D01*
X155597960Y-63782944D01*
X155725747Y-63924866D01*
X155880248Y-64037118D01*
X155886276Y-64039802D01*
X155886278Y-64039803D01*
X156048681Y-64112109D01*
X156054712Y-64114794D01*
X156118888Y-64128435D01*
X156235056Y-64153128D01*
X156235061Y-64153128D01*
X156241513Y-64154500D01*
X156432487Y-64154500D01*
X156438939Y-64153128D01*
X156438944Y-64153128D01*
X156555112Y-64128435D01*
X156619288Y-64114794D01*
X156625319Y-64112109D01*
X156787722Y-64039803D01*
X156787724Y-64039802D01*
X156793752Y-64037118D01*
X156948253Y-63924866D01*
X157076040Y-63782944D01*
X157164557Y-63629628D01*
X157168223Y-63623279D01*
X157168224Y-63623278D01*
X157171527Y-63617556D01*
X157230542Y-63435928D01*
X157235226Y-63391367D01*
X157249814Y-63252565D01*
X157250504Y-63246000D01*
X157248969Y-63231396D01*
X157238488Y-63131670D01*
X157251260Y-63061832D01*
X157299763Y-63009985D01*
X157363798Y-62992500D01*
X160207585Y-62992500D01*
X160275706Y-63012502D01*
X160322199Y-63066158D01*
X160332303Y-63136432D01*
X160302809Y-63201012D01*
X160243083Y-63239396D01*
X160233783Y-63241747D01*
X160118712Y-63266206D01*
X160112682Y-63268891D01*
X160112681Y-63268891D01*
X159950278Y-63341197D01*
X159950276Y-63341198D01*
X159944248Y-63343882D01*
X159789747Y-63456134D01*
X159785326Y-63461044D01*
X159785325Y-63461045D01*
X159741747Y-63509444D01*
X159661960Y-63598056D01*
X159566473Y-63763444D01*
X159507458Y-63945072D01*
X159506768Y-63951633D01*
X159506768Y-63951635D01*
X159488186Y-64128435D01*
X159487496Y-64135000D01*
X159488186Y-64141565D01*
X159489546Y-64154500D01*
X159507458Y-64324928D01*
X159566473Y-64506556D01*
X159661960Y-64671944D01*
X159666378Y-64676851D01*
X159666379Y-64676852D01*
X159729639Y-64747109D01*
X159789747Y-64813866D01*
X159944248Y-64926118D01*
X159950276Y-64928802D01*
X159950278Y-64928803D01*
X160112681Y-65001109D01*
X160118712Y-65003794D01*
X160195322Y-65020078D01*
X160299056Y-65042128D01*
X160299061Y-65042128D01*
X160305513Y-65043500D01*
X160496487Y-65043500D01*
X160502939Y-65042128D01*
X160502944Y-65042128D01*
X160606678Y-65020078D01*
X160683288Y-65003794D01*
X160689319Y-65001109D01*
X160851722Y-64928803D01*
X160851724Y-64928802D01*
X160857752Y-64926118D01*
X161012253Y-64813866D01*
X161072361Y-64747109D01*
X161135621Y-64676852D01*
X161135622Y-64676851D01*
X161140040Y-64671944D01*
X161235527Y-64506556D01*
X161294542Y-64324928D01*
X161312455Y-64154500D01*
X161313814Y-64141565D01*
X161314504Y-64135000D01*
X161313814Y-64128435D01*
X161295232Y-63951635D01*
X161295232Y-63951633D01*
X161294542Y-63945072D01*
X161235527Y-63763444D01*
X161140040Y-63598056D01*
X161060254Y-63509444D01*
X161016675Y-63461045D01*
X161016674Y-63461044D01*
X161012253Y-63456134D01*
X160857752Y-63343882D01*
X160851724Y-63341198D01*
X160851722Y-63341197D01*
X160689319Y-63268891D01*
X160689318Y-63268891D01*
X160683288Y-63266206D01*
X160568218Y-63241747D01*
X160505745Y-63208018D01*
X160471423Y-63145869D01*
X160476151Y-63075030D01*
X160518427Y-63017992D01*
X160584828Y-62992865D01*
X160594415Y-62992500D01*
X167315502Y-62992500D01*
X167383623Y-63012502D01*
X167430116Y-63066158D01*
X167440220Y-63136432D01*
X167409138Y-63202810D01*
X167352056Y-63266206D01*
X167281960Y-63344056D01*
X167278659Y-63349774D01*
X167191975Y-63499915D01*
X167186473Y-63509444D01*
X167127458Y-63691072D01*
X167107496Y-63881000D01*
X167108186Y-63887565D01*
X167124187Y-64039803D01*
X167127458Y-64070928D01*
X167186473Y-64252556D01*
X167281960Y-64417944D01*
X167286378Y-64422851D01*
X167286379Y-64422852D01*
X167397478Y-64546240D01*
X167409747Y-64559866D01*
X167564248Y-64672118D01*
X167570276Y-64674802D01*
X167570278Y-64674803D01*
X167676321Y-64722016D01*
X167738712Y-64749794D01*
X167832113Y-64769647D01*
X167919056Y-64788128D01*
X167919061Y-64788128D01*
X167925513Y-64789500D01*
X168116487Y-64789500D01*
X168122939Y-64788128D01*
X168122944Y-64788128D01*
X168209887Y-64769647D01*
X168303288Y-64749794D01*
X168365679Y-64722016D01*
X168471722Y-64674803D01*
X168471724Y-64674802D01*
X168477752Y-64672118D01*
X168632253Y-64559866D01*
X168644522Y-64546240D01*
X168755621Y-64422852D01*
X168755622Y-64422851D01*
X168760040Y-64417944D01*
X168855527Y-64252556D01*
X168914542Y-64070928D01*
X168917814Y-64039803D01*
X168933814Y-63887565D01*
X168934504Y-63881000D01*
X168914542Y-63691072D01*
X168855527Y-63509444D01*
X168850026Y-63499915D01*
X168763341Y-63349774D01*
X168760040Y-63344056D01*
X168689944Y-63266206D01*
X168632862Y-63202810D01*
X168602144Y-63138803D01*
X168610909Y-63068349D01*
X168656372Y-63013818D01*
X168726498Y-62992500D01*
X184100633Y-62992500D01*
X184120018Y-62994000D01*
X184134852Y-62996310D01*
X184134855Y-62996310D01*
X184143724Y-62997691D01*
X184152626Y-62996527D01*
X184152750Y-62996511D01*
X184183192Y-62996240D01*
X184277084Y-63006819D01*
X184304592Y-63013098D01*
X184411898Y-63050646D01*
X184437319Y-63062888D01*
X184533585Y-63123376D01*
X184555644Y-63140968D01*
X184636032Y-63221356D01*
X184653624Y-63243415D01*
X184714112Y-63339681D01*
X184726354Y-63365100D01*
X184759927Y-63461045D01*
X184763902Y-63472406D01*
X184770181Y-63499915D01*
X184780018Y-63587226D01*
X184779923Y-63602868D01*
X184780800Y-63602879D01*
X184780690Y-63611851D01*
X184779309Y-63620724D01*
X184780473Y-63629626D01*
X184780473Y-63629628D01*
X184783436Y-63652283D01*
X184784500Y-63668621D01*
X184784500Y-69021403D01*
X184764498Y-69089524D01*
X184710842Y-69136017D01*
X184640568Y-69146121D01*
X184576669Y-69117214D01*
X184481581Y-69036000D01*
X184473608Y-69030208D01*
X184262879Y-68901073D01*
X184254085Y-68896592D01*
X184025758Y-68802016D01*
X184016373Y-68798967D01*
X183776060Y-68741272D01*
X183766313Y-68739729D01*
X183519930Y-68720338D01*
X183510070Y-68720338D01*
X183263687Y-68739729D01*
X183253940Y-68741272D01*
X183013627Y-68798967D01*
X183004242Y-68802016D01*
X182775915Y-68896592D01*
X182767121Y-68901073D01*
X182561072Y-69027340D01*
X182555810Y-69035401D01*
X182561817Y-69045607D01*
X183785115Y-70268905D01*
X183819141Y-70331217D01*
X183814076Y-70402032D01*
X183785115Y-70447095D01*
X182563276Y-71668934D01*
X182555884Y-71682471D01*
X182559570Y-71687740D01*
X182767121Y-71814927D01*
X182775915Y-71819408D01*
X183004242Y-71913984D01*
X183013627Y-71917033D01*
X183253940Y-71974728D01*
X183263687Y-71976271D01*
X183510070Y-71995662D01*
X183519930Y-71995662D01*
X183766313Y-71976271D01*
X183776060Y-71974728D01*
X184016373Y-71917033D01*
X184025758Y-71913984D01*
X184254085Y-71819408D01*
X184262879Y-71814927D01*
X184473608Y-71685792D01*
X184481581Y-71680000D01*
X184576669Y-71598786D01*
X184641459Y-71569755D01*
X184711659Y-71580360D01*
X184764981Y-71627234D01*
X184784500Y-71694597D01*
X184784500Y-74101403D01*
X184764498Y-74169524D01*
X184710842Y-74216017D01*
X184640568Y-74226121D01*
X184576669Y-74197214D01*
X184481581Y-74116000D01*
X184473608Y-74110208D01*
X184262879Y-73981073D01*
X184254085Y-73976592D01*
X184025758Y-73882016D01*
X184016373Y-73878967D01*
X183776060Y-73821272D01*
X183766313Y-73819729D01*
X183519930Y-73800338D01*
X183510070Y-73800338D01*
X183263687Y-73819729D01*
X183253940Y-73821272D01*
X183013627Y-73878967D01*
X183004242Y-73882016D01*
X182775915Y-73976592D01*
X182767121Y-73981073D01*
X182561072Y-74107340D01*
X182555810Y-74115401D01*
X182561817Y-74125607D01*
X183785115Y-75348905D01*
X183819141Y-75411217D01*
X183814076Y-75482032D01*
X183785115Y-75527095D01*
X182563276Y-76748934D01*
X182555884Y-76762471D01*
X182559570Y-76767740D01*
X182767121Y-76894927D01*
X182775915Y-76899408D01*
X183004242Y-76993984D01*
X183013627Y-76997033D01*
X183253940Y-77054728D01*
X183263687Y-77056271D01*
X183510070Y-77075662D01*
X183519930Y-77075662D01*
X183766313Y-77056271D01*
X183776060Y-77054728D01*
X184016373Y-76997033D01*
X184025758Y-76993984D01*
X184254085Y-76899408D01*
X184262879Y-76894927D01*
X184473608Y-76765792D01*
X184481581Y-76760000D01*
X184576669Y-76678786D01*
X184641459Y-76649755D01*
X184711659Y-76660360D01*
X184764981Y-76707234D01*
X184784500Y-76774597D01*
X184784500Y-79071633D01*
X184783000Y-79091018D01*
X184779309Y-79114724D01*
X184780473Y-79123626D01*
X184780489Y-79123750D01*
X184780760Y-79154192D01*
X184770181Y-79248084D01*
X184763902Y-79275592D01*
X184726354Y-79382898D01*
X184714112Y-79408319D01*
X184653624Y-79504585D01*
X184636032Y-79526644D01*
X184555644Y-79607032D01*
X184533585Y-79624624D01*
X184437319Y-79685112D01*
X184411900Y-79697354D01*
X184304592Y-79734903D01*
X184277085Y-79741181D01*
X184189774Y-79751018D01*
X184174132Y-79750923D01*
X184174121Y-79751800D01*
X184165149Y-79751690D01*
X184156276Y-79750309D01*
X184147374Y-79751473D01*
X184147372Y-79751473D01*
X184136385Y-79752910D01*
X184124714Y-79754436D01*
X184108379Y-79755500D01*
X140384367Y-79755500D01*
X140364982Y-79754000D01*
X140350148Y-79751690D01*
X140350145Y-79751690D01*
X140341276Y-79750309D01*
X140332374Y-79751473D01*
X140332250Y-79751489D01*
X140301808Y-79751760D01*
X140207916Y-79741181D01*
X140180408Y-79734902D01*
X140073102Y-79697354D01*
X140047681Y-79685112D01*
X139951415Y-79624624D01*
X139929356Y-79607032D01*
X139848968Y-79526644D01*
X139831376Y-79504585D01*
X139770888Y-79408319D01*
X139758646Y-79382898D01*
X139721098Y-79275592D01*
X139714819Y-79248085D01*
X139705170Y-79162451D01*
X139704888Y-79137640D01*
X139705576Y-79133552D01*
X139705729Y-79121000D01*
X139701773Y-79093376D01*
X139700500Y-79075514D01*
X139700500Y-77907975D01*
X139720502Y-77839854D01*
X139774158Y-77793361D01*
X139844432Y-77783257D01*
X139909012Y-77812751D01*
X139930711Y-77837151D01*
X140056544Y-78022307D01*
X140223332Y-78198681D01*
X140227358Y-78201759D01*
X140227359Y-78201760D01*
X140412154Y-78343047D01*
X140412158Y-78343050D01*
X140416174Y-78346120D01*
X140630109Y-78460831D01*
X140859631Y-78539862D01*
X140958978Y-78557022D01*
X141094926Y-78580504D01*
X141094932Y-78580505D01*
X141098836Y-78581179D01*
X141102797Y-78581359D01*
X141102798Y-78581359D01*
X141126506Y-78582436D01*
X141126525Y-78582436D01*
X141127925Y-78582500D01*
X142797001Y-78582500D01*
X142799509Y-78582298D01*
X142799514Y-78582298D01*
X142972924Y-78568346D01*
X142972929Y-78568345D01*
X142977965Y-78567940D01*
X142982873Y-78566734D01*
X142982876Y-78566734D01*
X143208792Y-78511244D01*
X143213706Y-78510037D01*
X143218358Y-78508062D01*
X143218362Y-78508061D01*
X143432498Y-78417165D01*
X143437156Y-78415188D01*
X143543037Y-78348511D01*
X143638288Y-78288528D01*
X143638291Y-78288526D01*
X143642567Y-78285833D01*
X143741422Y-78198681D01*
X143820858Y-78128650D01*
X143820861Y-78128647D01*
X143824655Y-78125302D01*
X143978734Y-77937722D01*
X144051469Y-77812751D01*
X144098299Y-77732290D01*
X144098300Y-77732288D01*
X144100841Y-77727922D01*
X144187833Y-77501298D01*
X144237474Y-77263680D01*
X144248486Y-77021183D01*
X144233878Y-76894927D01*
X144221167Y-76785071D01*
X144221166Y-76785067D01*
X144220585Y-76780044D01*
X144217104Y-76767740D01*
X144215613Y-76762471D01*
X177475884Y-76762471D01*
X177479570Y-76767740D01*
X177687121Y-76894927D01*
X177695915Y-76899408D01*
X177924242Y-76993984D01*
X177933627Y-76997033D01*
X178173940Y-77054728D01*
X178183687Y-77056271D01*
X178430070Y-77075662D01*
X178439930Y-77075662D01*
X178686313Y-77056271D01*
X178696060Y-77054728D01*
X178936373Y-76997033D01*
X178945758Y-76993984D01*
X179174085Y-76899408D01*
X179182879Y-76894927D01*
X179388928Y-76768660D01*
X179394190Y-76760599D01*
X179388183Y-76750393D01*
X178447812Y-75810022D01*
X178433868Y-75802408D01*
X178432035Y-75802539D01*
X178425420Y-75806790D01*
X177483276Y-76748934D01*
X177475884Y-76762471D01*
X144215613Y-76762471D01*
X144155866Y-76551331D01*
X144154490Y-76546468D01*
X144152356Y-76541892D01*
X144152354Y-76541886D01*
X144101375Y-76432562D01*
X144090714Y-76362370D01*
X144119694Y-76297557D01*
X144179114Y-76258701D01*
X144199560Y-76254333D01*
X144369504Y-76232563D01*
X144369505Y-76232563D01*
X144374632Y-76231906D01*
X144432136Y-76214654D01*
X144587591Y-76168015D01*
X144587592Y-76168014D01*
X144592537Y-76166531D01*
X144796839Y-76066444D01*
X144801043Y-76063446D01*
X144801047Y-76063443D01*
X144977847Y-75937333D01*
X144977849Y-75937331D01*
X144982051Y-75934334D01*
X145143199Y-75773747D01*
X145183806Y-75717237D01*
X145272938Y-75593198D01*
X145272942Y-75593192D01*
X145275956Y-75588997D01*
X145356916Y-75425188D01*
X145374461Y-75389688D01*
X145374462Y-75389686D01*
X145376755Y-75385046D01*
X145437021Y-75186687D01*
X145441388Y-75172314D01*
X145441388Y-75172313D01*
X145442890Y-75167370D01*
X145443565Y-75162244D01*
X145472148Y-74945136D01*
X145472148Y-74945132D01*
X145472585Y-74941815D01*
X145472874Y-74930000D01*
X148946496Y-74930000D01*
X148947186Y-74936565D01*
X148964863Y-75104749D01*
X148966458Y-75119928D01*
X149025473Y-75301556D01*
X149120960Y-75466944D01*
X149125378Y-75471851D01*
X149125379Y-75471852D01*
X149230857Y-75588997D01*
X149248747Y-75608866D01*
X149403248Y-75721118D01*
X149409276Y-75723802D01*
X149409278Y-75723803D01*
X149571681Y-75796109D01*
X149577712Y-75798794D01*
X149671112Y-75818647D01*
X149758056Y-75837128D01*
X149758061Y-75837128D01*
X149764513Y-75838500D01*
X149955487Y-75838500D01*
X149961939Y-75837128D01*
X149961944Y-75837128D01*
X150048888Y-75818647D01*
X150142288Y-75798794D01*
X150148319Y-75796109D01*
X150310722Y-75723803D01*
X150310724Y-75723802D01*
X150316752Y-75721118D01*
X150471253Y-75608866D01*
X150489143Y-75588997D01*
X150594621Y-75471852D01*
X150594622Y-75471851D01*
X150599040Y-75466944D01*
X150612905Y-75442930D01*
X176797338Y-75442930D01*
X176816729Y-75689313D01*
X176818272Y-75699060D01*
X176875967Y-75939373D01*
X176879016Y-75948758D01*
X176973592Y-76177085D01*
X176978073Y-76185879D01*
X177104340Y-76391928D01*
X177112401Y-76397190D01*
X177122607Y-76391183D01*
X178062978Y-75450812D01*
X178069356Y-75439132D01*
X178799408Y-75439132D01*
X178799539Y-75440965D01*
X178803790Y-75447580D01*
X179745934Y-76389724D01*
X179759471Y-76397116D01*
X179764740Y-76393430D01*
X179891927Y-76185879D01*
X179896408Y-76177085D01*
X179990984Y-75948758D01*
X179994033Y-75939373D01*
X180051728Y-75699060D01*
X180053271Y-75689313D01*
X180072662Y-75442930D01*
X181877338Y-75442930D01*
X181896729Y-75689313D01*
X181898272Y-75699060D01*
X181955967Y-75939373D01*
X181959016Y-75948758D01*
X182053592Y-76177085D01*
X182058073Y-76185879D01*
X182184340Y-76391928D01*
X182192401Y-76397190D01*
X182202607Y-76391183D01*
X183142978Y-75450812D01*
X183150592Y-75436868D01*
X183150461Y-75435035D01*
X183146210Y-75428420D01*
X182204066Y-74486276D01*
X182190529Y-74478884D01*
X182185260Y-74482570D01*
X182058073Y-74690121D01*
X182053592Y-74698915D01*
X181959016Y-74927242D01*
X181955967Y-74936627D01*
X181898272Y-75176940D01*
X181896729Y-75186687D01*
X181877338Y-75433070D01*
X181877338Y-75442930D01*
X180072662Y-75442930D01*
X180072662Y-75433070D01*
X180053271Y-75186687D01*
X180051728Y-75176940D01*
X179994033Y-74936627D01*
X179990984Y-74927242D01*
X179896408Y-74698915D01*
X179891927Y-74690121D01*
X179765660Y-74484072D01*
X179757599Y-74478810D01*
X179747393Y-74484817D01*
X178807022Y-75425188D01*
X178799408Y-75439132D01*
X178069356Y-75439132D01*
X178070592Y-75436868D01*
X178070461Y-75435035D01*
X178066210Y-75428420D01*
X177124066Y-74486276D01*
X177110529Y-74478884D01*
X177105260Y-74482570D01*
X176978073Y-74690121D01*
X176973592Y-74698915D01*
X176879016Y-74927242D01*
X176875967Y-74936627D01*
X176818272Y-75176940D01*
X176816729Y-75186687D01*
X176797338Y-75433070D01*
X176797338Y-75442930D01*
X150612905Y-75442930D01*
X150694527Y-75301556D01*
X150753542Y-75119928D01*
X150755138Y-75104749D01*
X150772814Y-74936565D01*
X150773504Y-74930000D01*
X150753542Y-74740072D01*
X150694527Y-74558444D01*
X150615751Y-74422000D01*
X165456496Y-74422000D01*
X165457186Y-74428565D01*
X165473333Y-74582191D01*
X165476458Y-74611928D01*
X165535473Y-74793556D01*
X165630960Y-74958944D01*
X165758747Y-75100866D01*
X165913248Y-75213118D01*
X165919276Y-75215802D01*
X165919278Y-75215803D01*
X166072663Y-75284094D01*
X166087712Y-75290794D01*
X166181112Y-75310647D01*
X166268056Y-75329128D01*
X166268061Y-75329128D01*
X166274513Y-75330500D01*
X166465487Y-75330500D01*
X166471939Y-75329128D01*
X166471944Y-75329128D01*
X166558888Y-75310647D01*
X166652288Y-75290794D01*
X166667337Y-75284094D01*
X166820722Y-75215803D01*
X166820724Y-75215802D01*
X166826752Y-75213118D01*
X166981253Y-75100866D01*
X167109040Y-74958944D01*
X167204527Y-74793556D01*
X167263542Y-74611928D01*
X167266668Y-74582191D01*
X167282814Y-74428565D01*
X167283504Y-74422000D01*
X167266062Y-74256045D01*
X167264232Y-74238635D01*
X167264232Y-74238633D01*
X167263542Y-74232072D01*
X167225633Y-74115401D01*
X177475810Y-74115401D01*
X177481817Y-74125607D01*
X178422188Y-75065978D01*
X178436132Y-75073592D01*
X178437965Y-75073461D01*
X178444580Y-75069210D01*
X179386724Y-74127066D01*
X179394116Y-74113529D01*
X179390430Y-74108260D01*
X179182879Y-73981073D01*
X179174085Y-73976592D01*
X178945758Y-73882016D01*
X178936373Y-73878967D01*
X178696060Y-73821272D01*
X178686313Y-73819729D01*
X178439930Y-73800338D01*
X178430070Y-73800338D01*
X178183687Y-73819729D01*
X178173940Y-73821272D01*
X177933627Y-73878967D01*
X177924242Y-73882016D01*
X177695915Y-73976592D01*
X177687121Y-73981073D01*
X177481072Y-74107340D01*
X177475810Y-74115401D01*
X167225633Y-74115401D01*
X167204527Y-74050444D01*
X167109040Y-73885056D01*
X167103558Y-73878967D01*
X166985675Y-73748045D01*
X166985674Y-73748044D01*
X166981253Y-73743134D01*
X166873391Y-73664767D01*
X166832094Y-73634763D01*
X166832093Y-73634762D01*
X166826752Y-73630882D01*
X166820724Y-73628198D01*
X166820722Y-73628197D01*
X166658319Y-73555891D01*
X166658318Y-73555891D01*
X166652288Y-73553206D01*
X166558887Y-73533353D01*
X166471944Y-73514872D01*
X166471939Y-73514872D01*
X166465487Y-73513500D01*
X166274513Y-73513500D01*
X166268061Y-73514872D01*
X166268056Y-73514872D01*
X166181113Y-73533353D01*
X166087712Y-73553206D01*
X166081682Y-73555891D01*
X166081681Y-73555891D01*
X165919278Y-73628197D01*
X165919276Y-73628198D01*
X165913248Y-73630882D01*
X165907907Y-73634762D01*
X165907906Y-73634763D01*
X165866609Y-73664767D01*
X165758747Y-73743134D01*
X165754326Y-73748044D01*
X165754325Y-73748045D01*
X165636443Y-73878967D01*
X165630960Y-73885056D01*
X165535473Y-74050444D01*
X165476458Y-74232072D01*
X165475768Y-74238633D01*
X165475768Y-74238635D01*
X165473938Y-74256045D01*
X165456496Y-74422000D01*
X150615751Y-74422000D01*
X150599040Y-74393056D01*
X150576499Y-74368021D01*
X150475675Y-74256045D01*
X150475674Y-74256044D01*
X150471253Y-74251134D01*
X150316752Y-74138882D01*
X150310724Y-74136198D01*
X150310722Y-74136197D01*
X150148319Y-74063891D01*
X150148318Y-74063891D01*
X150142288Y-74061206D01*
X150048887Y-74041353D01*
X149961944Y-74022872D01*
X149961939Y-74022872D01*
X149955487Y-74021500D01*
X149764513Y-74021500D01*
X149758061Y-74022872D01*
X149758056Y-74022872D01*
X149671113Y-74041353D01*
X149577712Y-74061206D01*
X149571682Y-74063891D01*
X149571681Y-74063891D01*
X149409278Y-74136197D01*
X149409276Y-74136198D01*
X149403248Y-74138882D01*
X149248747Y-74251134D01*
X149244326Y-74256044D01*
X149244325Y-74256045D01*
X149143502Y-74368021D01*
X149120960Y-74393056D01*
X149025473Y-74558444D01*
X148966458Y-74740072D01*
X148946496Y-74930000D01*
X145472874Y-74930000D01*
X145474242Y-74874000D01*
X145455601Y-74647264D01*
X145400178Y-74426617D01*
X145313000Y-74226121D01*
X145311522Y-74222722D01*
X145311520Y-74222719D01*
X145309462Y-74217985D01*
X145205141Y-74056729D01*
X145188698Y-74031311D01*
X145188696Y-74031308D01*
X145185890Y-74026971D01*
X145032779Y-73858704D01*
X144854241Y-73717704D01*
X144849717Y-73715206D01*
X144849713Y-73715204D01*
X144804122Y-73690036D01*
X144754151Y-73639603D01*
X144739380Y-73570160D01*
X144764497Y-73503755D01*
X144792745Y-73476515D01*
X144794438Y-73475330D01*
X144888708Y-73409321D01*
X144925789Y-73383357D01*
X144925792Y-73383355D01*
X144930300Y-73380198D01*
X145092198Y-73218300D01*
X145203788Y-73058934D01*
X161488239Y-73058934D01*
X161491022Y-73062652D01*
X161622857Y-73111681D01*
X161636448Y-73115070D01*
X161791044Y-73135697D01*
X161805040Y-73135991D01*
X161960360Y-73121855D01*
X161974085Y-73119038D01*
X162122415Y-73070843D01*
X162131055Y-73066924D01*
X162138463Y-73058934D01*
X162488239Y-73058934D01*
X162491022Y-73062652D01*
X162622857Y-73111681D01*
X162636448Y-73115070D01*
X162791044Y-73135697D01*
X162805040Y-73135991D01*
X162960360Y-73121855D01*
X162974085Y-73119038D01*
X163122415Y-73070843D01*
X163131055Y-73066924D01*
X163138463Y-73058934D01*
X163488239Y-73058934D01*
X163491022Y-73062652D01*
X163622857Y-73111681D01*
X163636448Y-73115070D01*
X163791044Y-73135697D01*
X163805040Y-73135991D01*
X163960360Y-73121855D01*
X163974085Y-73119038D01*
X164122415Y-73070843D01*
X164131055Y-73066924D01*
X164139430Y-73057891D01*
X164135925Y-73049478D01*
X163984447Y-72898000D01*
X179436758Y-72898000D01*
X179455696Y-73138634D01*
X179456850Y-73143441D01*
X179456851Y-73143447D01*
X179459785Y-73155667D01*
X179512045Y-73373343D01*
X179513938Y-73377914D01*
X179513939Y-73377916D01*
X179595315Y-73574374D01*
X179604416Y-73596347D01*
X179730536Y-73802156D01*
X179887299Y-73985701D01*
X180070844Y-74142464D01*
X180276653Y-74268584D01*
X180281223Y-74270477D01*
X180281227Y-74270479D01*
X180495084Y-74359061D01*
X180499657Y-74360955D01*
X180582039Y-74380733D01*
X180729553Y-74416149D01*
X180729559Y-74416150D01*
X180734366Y-74417304D01*
X180975000Y-74436242D01*
X181215634Y-74417304D01*
X181220441Y-74416150D01*
X181220447Y-74416149D01*
X181367961Y-74380733D01*
X181450343Y-74360955D01*
X181454916Y-74359061D01*
X181668773Y-74270479D01*
X181668777Y-74270477D01*
X181673347Y-74268584D01*
X181879156Y-74142464D01*
X182062701Y-73985701D01*
X182219464Y-73802156D01*
X182345584Y-73596347D01*
X182354686Y-73574374D01*
X182436061Y-73377916D01*
X182436062Y-73377914D01*
X182437955Y-73373343D01*
X182490215Y-73155667D01*
X182493149Y-73143447D01*
X182493150Y-73143441D01*
X182494304Y-73138634D01*
X182513242Y-72898000D01*
X182494304Y-72657366D01*
X182493150Y-72652559D01*
X182493149Y-72652553D01*
X182454311Y-72490785D01*
X182437955Y-72422657D01*
X182428248Y-72399221D01*
X182347479Y-72204227D01*
X182347477Y-72204223D01*
X182345584Y-72199653D01*
X182219464Y-71993844D01*
X182062701Y-71810299D01*
X181879156Y-71653536D01*
X181673347Y-71527416D01*
X181668777Y-71525523D01*
X181668773Y-71525521D01*
X181454916Y-71436939D01*
X181454914Y-71436938D01*
X181450343Y-71435045D01*
X181367961Y-71415267D01*
X181220447Y-71379851D01*
X181220441Y-71379850D01*
X181215634Y-71378696D01*
X180975000Y-71359758D01*
X180734366Y-71378696D01*
X180729559Y-71379850D01*
X180729553Y-71379851D01*
X180582039Y-71415267D01*
X180499657Y-71435045D01*
X180495086Y-71436938D01*
X180495084Y-71436939D01*
X180281227Y-71525521D01*
X180281223Y-71525523D01*
X180276653Y-71527416D01*
X180070844Y-71653536D01*
X179887299Y-71810299D01*
X179730536Y-71993844D01*
X179604416Y-72199653D01*
X179602523Y-72204223D01*
X179602521Y-72204227D01*
X179521752Y-72399221D01*
X179512045Y-72422657D01*
X179495689Y-72490785D01*
X179456851Y-72652553D01*
X179456850Y-72652559D01*
X179455696Y-72657366D01*
X179436758Y-72898000D01*
X163984447Y-72898000D01*
X163826812Y-72740365D01*
X163812868Y-72732751D01*
X163811035Y-72732882D01*
X163804420Y-72737133D01*
X163494999Y-73046554D01*
X163488239Y-73058934D01*
X163138463Y-73058934D01*
X163139430Y-73057891D01*
X163135925Y-73049478D01*
X162826812Y-72740365D01*
X162812868Y-72732751D01*
X162811035Y-72732882D01*
X162804420Y-72737133D01*
X162494999Y-73046554D01*
X162488239Y-73058934D01*
X162138463Y-73058934D01*
X162139430Y-73057891D01*
X162135925Y-73049478D01*
X161826812Y-72740365D01*
X161812868Y-72732751D01*
X161811035Y-72732882D01*
X161804420Y-72737133D01*
X161494999Y-73046554D01*
X161488239Y-73058934D01*
X145203788Y-73058934D01*
X145223523Y-73030749D01*
X145225846Y-73025767D01*
X145225849Y-73025762D01*
X145317961Y-72828225D01*
X145317961Y-72828224D01*
X145320284Y-72823243D01*
X145326481Y-72800118D01*
X145378119Y-72607402D01*
X145378119Y-72607400D01*
X145379543Y-72602087D01*
X145399498Y-72374000D01*
X145379543Y-72145913D01*
X145378119Y-72140598D01*
X145342857Y-72009000D01*
X157455496Y-72009000D01*
X157475458Y-72198928D01*
X157534473Y-72380556D01*
X157629960Y-72545944D01*
X157634378Y-72550851D01*
X157634379Y-72550852D01*
X157725951Y-72652553D01*
X157757747Y-72687866D01*
X157912248Y-72800118D01*
X157918276Y-72802802D01*
X157918278Y-72802803D01*
X158080681Y-72875109D01*
X158086712Y-72877794D01*
X158158580Y-72893070D01*
X158267056Y-72916128D01*
X158267061Y-72916128D01*
X158273513Y-72917500D01*
X158464487Y-72917500D01*
X158470939Y-72916128D01*
X158470944Y-72916128D01*
X158579420Y-72893070D01*
X158651288Y-72877794D01*
X158657319Y-72875109D01*
X158819722Y-72802803D01*
X158819724Y-72802802D01*
X158825752Y-72800118D01*
X158980253Y-72687866D01*
X159012049Y-72652553D01*
X159103621Y-72550852D01*
X159103622Y-72550851D01*
X159108040Y-72545944D01*
X159203527Y-72380556D01*
X159206839Y-72370362D01*
X161051966Y-72370362D01*
X161067186Y-72525585D01*
X161070097Y-72539280D01*
X161119327Y-72687270D01*
X161121729Y-72692468D01*
X161129717Y-72699772D01*
X161138338Y-72696109D01*
X161447635Y-72386812D01*
X161454013Y-72375132D01*
X162172751Y-72375132D01*
X162172882Y-72376965D01*
X162177133Y-72383580D01*
X162301188Y-72507635D01*
X162315132Y-72515249D01*
X162316965Y-72515118D01*
X162323580Y-72510867D01*
X162447635Y-72386812D01*
X162454013Y-72375132D01*
X163172751Y-72375132D01*
X163172882Y-72376965D01*
X163177133Y-72383580D01*
X163301188Y-72507635D01*
X163315132Y-72515249D01*
X163316965Y-72515118D01*
X163323580Y-72510867D01*
X163447635Y-72386812D01*
X163454013Y-72375132D01*
X164172751Y-72375132D01*
X164172882Y-72376965D01*
X164177133Y-72383580D01*
X164486178Y-72692625D01*
X164498558Y-72699385D01*
X164502374Y-72696528D01*
X164550331Y-72570283D01*
X164553811Y-72556727D01*
X164575948Y-72399221D01*
X164576554Y-72391338D01*
X164576741Y-72377962D01*
X164576354Y-72370062D01*
X164558625Y-72212003D01*
X164555523Y-72198350D01*
X164504700Y-72052407D01*
X164499141Y-72047467D01*
X164490088Y-72051465D01*
X164180365Y-72361188D01*
X164172751Y-72375132D01*
X163454013Y-72375132D01*
X163455249Y-72372868D01*
X163455118Y-72371035D01*
X163450867Y-72364420D01*
X163326812Y-72240365D01*
X163312868Y-72232751D01*
X163311035Y-72232882D01*
X163304420Y-72237133D01*
X163180365Y-72361188D01*
X163172751Y-72375132D01*
X162454013Y-72375132D01*
X162455249Y-72372868D01*
X162455118Y-72371035D01*
X162450867Y-72364420D01*
X162326812Y-72240365D01*
X162312868Y-72232751D01*
X162311035Y-72232882D01*
X162304420Y-72237133D01*
X162180365Y-72361188D01*
X162172751Y-72375132D01*
X161454013Y-72375132D01*
X161455249Y-72372868D01*
X161455118Y-72371035D01*
X161450867Y-72364420D01*
X161141039Y-72054592D01*
X161128659Y-72047832D01*
X161125037Y-72050543D01*
X161075001Y-72188016D01*
X161071709Y-72201625D01*
X161052162Y-72356356D01*
X161051966Y-72370362D01*
X159206839Y-72370362D01*
X159262542Y-72198928D01*
X159282504Y-72009000D01*
X159268434Y-71875132D01*
X161672751Y-71875132D01*
X161672882Y-71876965D01*
X161677133Y-71883580D01*
X161801188Y-72007635D01*
X161815132Y-72015249D01*
X161816965Y-72015118D01*
X161823580Y-72010867D01*
X161947635Y-71886812D01*
X161954013Y-71875132D01*
X162672751Y-71875132D01*
X162672882Y-71876965D01*
X162677133Y-71883580D01*
X162801188Y-72007635D01*
X162815132Y-72015249D01*
X162816965Y-72015118D01*
X162823580Y-72010867D01*
X162947635Y-71886812D01*
X162954013Y-71875132D01*
X163672751Y-71875132D01*
X163672882Y-71876965D01*
X163677133Y-71883580D01*
X163801188Y-72007635D01*
X163815132Y-72015249D01*
X163816965Y-72015118D01*
X163823580Y-72010867D01*
X163947635Y-71886812D01*
X163955249Y-71872868D01*
X163955118Y-71871035D01*
X163950867Y-71864420D01*
X163826812Y-71740365D01*
X163812868Y-71732751D01*
X163811035Y-71732882D01*
X163804420Y-71737133D01*
X163680365Y-71861188D01*
X163672751Y-71875132D01*
X162954013Y-71875132D01*
X162955249Y-71872868D01*
X162955118Y-71871035D01*
X162950867Y-71864420D01*
X162826812Y-71740365D01*
X162812868Y-71732751D01*
X162811035Y-71732882D01*
X162804420Y-71737133D01*
X162680365Y-71861188D01*
X162672751Y-71875132D01*
X161954013Y-71875132D01*
X161955249Y-71872868D01*
X161955118Y-71871035D01*
X161950867Y-71864420D01*
X161826812Y-71740365D01*
X161812868Y-71732751D01*
X161811035Y-71732882D01*
X161804420Y-71737133D01*
X161680365Y-71861188D01*
X161672751Y-71875132D01*
X159268434Y-71875132D01*
X159268196Y-71872868D01*
X159263232Y-71825635D01*
X159263232Y-71825633D01*
X159262542Y-71819072D01*
X159203527Y-71637444D01*
X159108040Y-71472056D01*
X159099972Y-71463095D01*
X159016475Y-71370362D01*
X161051966Y-71370362D01*
X161067186Y-71525585D01*
X161070097Y-71539280D01*
X161119327Y-71687270D01*
X161121729Y-71692468D01*
X161129717Y-71699772D01*
X161138338Y-71696109D01*
X161447635Y-71386812D01*
X161454013Y-71375132D01*
X162172751Y-71375132D01*
X162172882Y-71376965D01*
X162177133Y-71383580D01*
X162301188Y-71507635D01*
X162315132Y-71515249D01*
X162316965Y-71515118D01*
X162323580Y-71510867D01*
X162447635Y-71386812D01*
X162454013Y-71375132D01*
X163172751Y-71375132D01*
X163172882Y-71376965D01*
X163177133Y-71383580D01*
X163301188Y-71507635D01*
X163315132Y-71515249D01*
X163316965Y-71515118D01*
X163323580Y-71510867D01*
X163447635Y-71386812D01*
X163454013Y-71375132D01*
X164172751Y-71375132D01*
X164172882Y-71376965D01*
X164177133Y-71383580D01*
X164486178Y-71692625D01*
X164498558Y-71699385D01*
X164502374Y-71696528D01*
X164507714Y-71682471D01*
X177475884Y-71682471D01*
X177479570Y-71687740D01*
X177687121Y-71814927D01*
X177695915Y-71819408D01*
X177924242Y-71913984D01*
X177933627Y-71917033D01*
X178173940Y-71974728D01*
X178183687Y-71976271D01*
X178430070Y-71995662D01*
X178439930Y-71995662D01*
X178686313Y-71976271D01*
X178696060Y-71974728D01*
X178936373Y-71917033D01*
X178945758Y-71913984D01*
X179174085Y-71819408D01*
X179182879Y-71814927D01*
X179388928Y-71688660D01*
X179394190Y-71680599D01*
X179388183Y-71670393D01*
X178447812Y-70730022D01*
X178433868Y-70722408D01*
X178432035Y-70722539D01*
X178425420Y-70726790D01*
X177483276Y-71668934D01*
X177475884Y-71682471D01*
X164507714Y-71682471D01*
X164550331Y-71570283D01*
X164553811Y-71556727D01*
X164575948Y-71399221D01*
X164576554Y-71391338D01*
X164576741Y-71377962D01*
X164576354Y-71370062D01*
X164558625Y-71212003D01*
X164555523Y-71198350D01*
X164504700Y-71052407D01*
X164499141Y-71047467D01*
X164490088Y-71051465D01*
X164180365Y-71361188D01*
X164172751Y-71375132D01*
X163454013Y-71375132D01*
X163455249Y-71372868D01*
X163455118Y-71371035D01*
X163450867Y-71364420D01*
X163326812Y-71240365D01*
X163312868Y-71232751D01*
X163311035Y-71232882D01*
X163304420Y-71237133D01*
X163180365Y-71361188D01*
X163172751Y-71375132D01*
X162454013Y-71375132D01*
X162455249Y-71372868D01*
X162455118Y-71371035D01*
X162450867Y-71364420D01*
X162326812Y-71240365D01*
X162312868Y-71232751D01*
X162311035Y-71232882D01*
X162304420Y-71237133D01*
X162180365Y-71361188D01*
X162172751Y-71375132D01*
X161454013Y-71375132D01*
X161455249Y-71372868D01*
X161455118Y-71371035D01*
X161450867Y-71364420D01*
X161141039Y-71054592D01*
X161128659Y-71047832D01*
X161125037Y-71050543D01*
X161075001Y-71188016D01*
X161071709Y-71201625D01*
X161052162Y-71356356D01*
X161051966Y-71370362D01*
X159016475Y-71370362D01*
X158984675Y-71335045D01*
X158984674Y-71335044D01*
X158980253Y-71330134D01*
X158846398Y-71232882D01*
X158831094Y-71221763D01*
X158831093Y-71221762D01*
X158825752Y-71217882D01*
X158819724Y-71215198D01*
X158819722Y-71215197D01*
X158657319Y-71142891D01*
X158657318Y-71142891D01*
X158651288Y-71140206D01*
X158557887Y-71120353D01*
X158470944Y-71101872D01*
X158470939Y-71101872D01*
X158464487Y-71100500D01*
X158273513Y-71100500D01*
X158267061Y-71101872D01*
X158267056Y-71101872D01*
X158180113Y-71120353D01*
X158086712Y-71140206D01*
X158080682Y-71142891D01*
X158080681Y-71142891D01*
X157918278Y-71215197D01*
X157918276Y-71215198D01*
X157912248Y-71217882D01*
X157906907Y-71221762D01*
X157906906Y-71221763D01*
X157891602Y-71232882D01*
X157757747Y-71330134D01*
X157753326Y-71335044D01*
X157753325Y-71335045D01*
X157638029Y-71463095D01*
X157629960Y-71472056D01*
X157534473Y-71637444D01*
X157475458Y-71819072D01*
X157474768Y-71825633D01*
X157474768Y-71825635D01*
X157469804Y-71872868D01*
X157455496Y-72009000D01*
X145342857Y-72009000D01*
X145321707Y-71930067D01*
X145321706Y-71930065D01*
X145320284Y-71924757D01*
X145301083Y-71883580D01*
X145225849Y-71722238D01*
X145225846Y-71722233D01*
X145223523Y-71717251D01*
X145092198Y-71529700D01*
X145025593Y-71463095D01*
X144991567Y-71400783D01*
X144996632Y-71329968D01*
X145025593Y-71284905D01*
X145092198Y-71218300D01*
X145096608Y-71212003D01*
X145206828Y-71054592D01*
X145223523Y-71030749D01*
X145225846Y-71025767D01*
X145225849Y-71025762D01*
X145296088Y-70875132D01*
X161672751Y-70875132D01*
X161672882Y-70876965D01*
X161677133Y-70883580D01*
X161801188Y-71007635D01*
X161815132Y-71015249D01*
X161816965Y-71015118D01*
X161823580Y-71010867D01*
X161947635Y-70886812D01*
X161954013Y-70875132D01*
X162672751Y-70875132D01*
X162672882Y-70876965D01*
X162677133Y-70883580D01*
X162801188Y-71007635D01*
X162815132Y-71015249D01*
X162816965Y-71015118D01*
X162823580Y-71010867D01*
X162947635Y-70886812D01*
X162954013Y-70875132D01*
X163672751Y-70875132D01*
X163672882Y-70876965D01*
X163677133Y-70883580D01*
X163801188Y-71007635D01*
X163815132Y-71015249D01*
X163816965Y-71015118D01*
X163823580Y-71010867D01*
X163947635Y-70886812D01*
X163955249Y-70872868D01*
X163955118Y-70871035D01*
X163950867Y-70864420D01*
X163826812Y-70740365D01*
X163812868Y-70732751D01*
X163811035Y-70732882D01*
X163804420Y-70737133D01*
X163680365Y-70861188D01*
X163672751Y-70875132D01*
X162954013Y-70875132D01*
X162955249Y-70872868D01*
X162955118Y-70871035D01*
X162950867Y-70864420D01*
X162826812Y-70740365D01*
X162812868Y-70732751D01*
X162811035Y-70732882D01*
X162804420Y-70737133D01*
X162680365Y-70861188D01*
X162672751Y-70875132D01*
X161954013Y-70875132D01*
X161955249Y-70872868D01*
X161955118Y-70871035D01*
X161950867Y-70864420D01*
X161826812Y-70740365D01*
X161812868Y-70732751D01*
X161811035Y-70732882D01*
X161804420Y-70737133D01*
X161680365Y-70861188D01*
X161672751Y-70875132D01*
X145296088Y-70875132D01*
X145317961Y-70828225D01*
X145317961Y-70828224D01*
X145320284Y-70823243D01*
X145344497Y-70732882D01*
X145378119Y-70607402D01*
X145378119Y-70607400D01*
X145379543Y-70602087D01*
X145399498Y-70374000D01*
X145379543Y-70145913D01*
X145378119Y-70140598D01*
X145321707Y-69930067D01*
X145321706Y-69930065D01*
X145320284Y-69924757D01*
X145293828Y-69868021D01*
X145225849Y-69722238D01*
X145225846Y-69722233D01*
X145223523Y-69717251D01*
X145140023Y-69598001D01*
X145095357Y-69534211D01*
X145095355Y-69534208D01*
X145092198Y-69529700D01*
X145031498Y-69469000D01*
X148565496Y-69469000D01*
X148566186Y-69475565D01*
X148582809Y-69633720D01*
X148585458Y-69658928D01*
X148644473Y-69840556D01*
X148647776Y-69846278D01*
X148647777Y-69846279D01*
X148660330Y-69868021D01*
X148739960Y-70005944D01*
X148744378Y-70010851D01*
X148744379Y-70010852D01*
X148860617Y-70139947D01*
X148867747Y-70147866D01*
X148923009Y-70188016D01*
X149007122Y-70249128D01*
X149022248Y-70260118D01*
X149028276Y-70262802D01*
X149028278Y-70262803D01*
X149190681Y-70335109D01*
X149196712Y-70337794D01*
X149260888Y-70351435D01*
X149377056Y-70376128D01*
X149377061Y-70376128D01*
X149383513Y-70377500D01*
X149574487Y-70377500D01*
X149580939Y-70376128D01*
X149580944Y-70376128D01*
X149608070Y-70370362D01*
X161051966Y-70370362D01*
X161067186Y-70525585D01*
X161070097Y-70539280D01*
X161119327Y-70687270D01*
X161121729Y-70692468D01*
X161129717Y-70699772D01*
X161138338Y-70696109D01*
X161447635Y-70386812D01*
X161454013Y-70375132D01*
X162172751Y-70375132D01*
X162172882Y-70376965D01*
X162177133Y-70383580D01*
X162301188Y-70507635D01*
X162315132Y-70515249D01*
X162316965Y-70515118D01*
X162323580Y-70510867D01*
X162447635Y-70386812D01*
X162454013Y-70375132D01*
X163172751Y-70375132D01*
X163172882Y-70376965D01*
X163177133Y-70383580D01*
X163301188Y-70507635D01*
X163315132Y-70515249D01*
X163316965Y-70515118D01*
X163323580Y-70510867D01*
X163447635Y-70386812D01*
X163454013Y-70375132D01*
X164172751Y-70375132D01*
X164172882Y-70376965D01*
X164177133Y-70383580D01*
X164486178Y-70692625D01*
X164498558Y-70699385D01*
X164502374Y-70696528D01*
X164550331Y-70570283D01*
X164553811Y-70556727D01*
X164575948Y-70399221D01*
X164576554Y-70391338D01*
X164576741Y-70377962D01*
X164576354Y-70370062D01*
X164558625Y-70212003D01*
X164555523Y-70198350D01*
X164504700Y-70052407D01*
X164499141Y-70047467D01*
X164490088Y-70051465D01*
X164180365Y-70361188D01*
X164172751Y-70375132D01*
X163454013Y-70375132D01*
X163455249Y-70372868D01*
X163455118Y-70371035D01*
X163450867Y-70364420D01*
X163326812Y-70240365D01*
X163312868Y-70232751D01*
X163311035Y-70232882D01*
X163304420Y-70237133D01*
X163180365Y-70361188D01*
X163172751Y-70375132D01*
X162454013Y-70375132D01*
X162455249Y-70372868D01*
X162455118Y-70371035D01*
X162450867Y-70364420D01*
X162326812Y-70240365D01*
X162312868Y-70232751D01*
X162311035Y-70232882D01*
X162304420Y-70237133D01*
X162180365Y-70361188D01*
X162172751Y-70375132D01*
X161454013Y-70375132D01*
X161455249Y-70372868D01*
X161455118Y-70371035D01*
X161450867Y-70364420D01*
X161141039Y-70054592D01*
X161128659Y-70047832D01*
X161125037Y-70050543D01*
X161075001Y-70188016D01*
X161071709Y-70201625D01*
X161052162Y-70356356D01*
X161051966Y-70370362D01*
X149608070Y-70370362D01*
X149697112Y-70351435D01*
X149761288Y-70337794D01*
X149767319Y-70335109D01*
X149929722Y-70262803D01*
X149929724Y-70262802D01*
X149935752Y-70260118D01*
X149950879Y-70249128D01*
X150034991Y-70188016D01*
X150090253Y-70147866D01*
X150097383Y-70139947D01*
X150213621Y-70010852D01*
X150213622Y-70010851D01*
X150218040Y-70005944D01*
X150297670Y-69868021D01*
X150310223Y-69846279D01*
X150310224Y-69846278D01*
X150313527Y-69840556D01*
X150372542Y-69658928D01*
X150375192Y-69633720D01*
X150391814Y-69475565D01*
X150392504Y-69469000D01*
X150379156Y-69342000D01*
X152248496Y-69342000D01*
X152268458Y-69531928D01*
X152327473Y-69713556D01*
X152330776Y-69719278D01*
X152330777Y-69719279D01*
X152346335Y-69746226D01*
X152422960Y-69878944D01*
X152550747Y-70020866D01*
X152705248Y-70133118D01*
X152711276Y-70135802D01*
X152711278Y-70135803D01*
X152873681Y-70208109D01*
X152879712Y-70210794D01*
X152973113Y-70230647D01*
X153060056Y-70249128D01*
X153060061Y-70249128D01*
X153066513Y-70250500D01*
X153257487Y-70250500D01*
X153263939Y-70249128D01*
X153263944Y-70249128D01*
X153350887Y-70230647D01*
X153444288Y-70210794D01*
X153461325Y-70203209D01*
X153480724Y-70194572D01*
X153555252Y-70161390D01*
X153625618Y-70151956D01*
X153657746Y-70161389D01*
X153732276Y-70194572D01*
X153751676Y-70203209D01*
X153768712Y-70210794D01*
X153862113Y-70230647D01*
X153949056Y-70249128D01*
X153949061Y-70249128D01*
X153955513Y-70250500D01*
X154146487Y-70250500D01*
X154152939Y-70249128D01*
X154152944Y-70249128D01*
X154239887Y-70230647D01*
X154333288Y-70210794D01*
X154350325Y-70203209D01*
X154369724Y-70194572D01*
X154444252Y-70161390D01*
X154514618Y-70151956D01*
X154546746Y-70161389D01*
X154621276Y-70194572D01*
X154640676Y-70203209D01*
X154657712Y-70210794D01*
X154751113Y-70230647D01*
X154838056Y-70249128D01*
X154838061Y-70249128D01*
X154844513Y-70250500D01*
X155035487Y-70250500D01*
X155041939Y-70249128D01*
X155041944Y-70249128D01*
X155128887Y-70230647D01*
X155222288Y-70210794D01*
X155228319Y-70208109D01*
X155390722Y-70135803D01*
X155390724Y-70135802D01*
X155396752Y-70133118D01*
X155551253Y-70020866D01*
X155679040Y-69878944D01*
X155755665Y-69746226D01*
X155771223Y-69719279D01*
X155771224Y-69719278D01*
X155774527Y-69713556D01*
X155782408Y-69689302D01*
X161487860Y-69689302D01*
X161491684Y-69698131D01*
X161801188Y-70007635D01*
X161815132Y-70015249D01*
X161816965Y-70015118D01*
X161823580Y-70010867D01*
X162133847Y-69700600D01*
X162140016Y-69689302D01*
X162487860Y-69689302D01*
X162491684Y-69698131D01*
X162801188Y-70007635D01*
X162815132Y-70015249D01*
X162816965Y-70015118D01*
X162823580Y-70010867D01*
X163133847Y-69700600D01*
X163140016Y-69689302D01*
X163487860Y-69689302D01*
X163491684Y-69698131D01*
X163801188Y-70007635D01*
X163815132Y-70015249D01*
X163816965Y-70015118D01*
X163823580Y-70010867D01*
X164133847Y-69700600D01*
X164140607Y-69688220D01*
X164138022Y-69684766D01*
X164137722Y-69684606D01*
X163994820Y-69633720D01*
X163981195Y-69630524D01*
X163826318Y-69612057D01*
X163812321Y-69611959D01*
X163657207Y-69628262D01*
X163643533Y-69631268D01*
X163495884Y-69681532D01*
X163494113Y-69682366D01*
X163487860Y-69689302D01*
X163140016Y-69689302D01*
X163140607Y-69688220D01*
X163138022Y-69684766D01*
X163137722Y-69684606D01*
X162994820Y-69633720D01*
X162981195Y-69630524D01*
X162826318Y-69612057D01*
X162812321Y-69611959D01*
X162657207Y-69628262D01*
X162643533Y-69631268D01*
X162495884Y-69681532D01*
X162494113Y-69682366D01*
X162487860Y-69689302D01*
X162140016Y-69689302D01*
X162140607Y-69688220D01*
X162138022Y-69684766D01*
X162137722Y-69684606D01*
X161994820Y-69633720D01*
X161981195Y-69630524D01*
X161826318Y-69612057D01*
X161812321Y-69611959D01*
X161657207Y-69628262D01*
X161643533Y-69631268D01*
X161495884Y-69681532D01*
X161494113Y-69682366D01*
X161487860Y-69689302D01*
X155782408Y-69689302D01*
X155833542Y-69531928D01*
X155853504Y-69342000D01*
X155846890Y-69279072D01*
X155840156Y-69215000D01*
X165837496Y-69215000D01*
X165838186Y-69221565D01*
X165853966Y-69371699D01*
X165857458Y-69404928D01*
X165916473Y-69586556D01*
X165919776Y-69592278D01*
X165919777Y-69592279D01*
X165943703Y-69633720D01*
X166011960Y-69751944D01*
X166052400Y-69796858D01*
X166083116Y-69860863D01*
X166074352Y-69931317D01*
X166067882Y-69944166D01*
X166043473Y-69986444D01*
X165984458Y-70168072D01*
X165983768Y-70174633D01*
X165983768Y-70174635D01*
X165965843Y-70345188D01*
X165964496Y-70358000D01*
X165965186Y-70364565D01*
X165982110Y-70525585D01*
X165984458Y-70547928D01*
X166043473Y-70729556D01*
X166046776Y-70735278D01*
X166046777Y-70735279D01*
X166080686Y-70794010D01*
X166138960Y-70894944D01*
X166266747Y-71036866D01*
X166291145Y-71054592D01*
X166408982Y-71140206D01*
X166421248Y-71149118D01*
X166427276Y-71151802D01*
X166427278Y-71151803D01*
X166575695Y-71217882D01*
X166595712Y-71226794D01*
X166689113Y-71246647D01*
X166776056Y-71265128D01*
X166776061Y-71265128D01*
X166782513Y-71266500D01*
X166973487Y-71266500D01*
X166979939Y-71265128D01*
X166979944Y-71265128D01*
X167066887Y-71246647D01*
X167160288Y-71226794D01*
X167180305Y-71217882D01*
X167328722Y-71151803D01*
X167328724Y-71151802D01*
X167334752Y-71149118D01*
X167347019Y-71140206D01*
X167464855Y-71054592D01*
X167489253Y-71036866D01*
X167617040Y-70894944D01*
X167675314Y-70794010D01*
X167709223Y-70735279D01*
X167709224Y-70735278D01*
X167712527Y-70729556D01*
X167771542Y-70547928D01*
X167773891Y-70525585D01*
X167790814Y-70364565D01*
X167790986Y-70362930D01*
X176797338Y-70362930D01*
X176816729Y-70609313D01*
X176818272Y-70619060D01*
X176875967Y-70859373D01*
X176879016Y-70868758D01*
X176973592Y-71097085D01*
X176978073Y-71105879D01*
X177104340Y-71311928D01*
X177112401Y-71317190D01*
X177122607Y-71311183D01*
X178062978Y-70370812D01*
X178069356Y-70359132D01*
X178799408Y-70359132D01*
X178799539Y-70360965D01*
X178803790Y-70367580D01*
X179745934Y-71309724D01*
X179759471Y-71317116D01*
X179764740Y-71313430D01*
X179891927Y-71105879D01*
X179896408Y-71097085D01*
X179990984Y-70868758D01*
X179994033Y-70859373D01*
X180051728Y-70619060D01*
X180053271Y-70609313D01*
X180072662Y-70362930D01*
X181877338Y-70362930D01*
X181896729Y-70609313D01*
X181898272Y-70619060D01*
X181955967Y-70859373D01*
X181959016Y-70868758D01*
X182053592Y-71097085D01*
X182058073Y-71105879D01*
X182184340Y-71311928D01*
X182192401Y-71317190D01*
X182202607Y-71311183D01*
X183142978Y-70370812D01*
X183150592Y-70356868D01*
X183150461Y-70355035D01*
X183146210Y-70348420D01*
X182204066Y-69406276D01*
X182190529Y-69398884D01*
X182185260Y-69402570D01*
X182058073Y-69610121D01*
X182053592Y-69618915D01*
X181959016Y-69847242D01*
X181955967Y-69856627D01*
X181898272Y-70096940D01*
X181896729Y-70106687D01*
X181877338Y-70353070D01*
X181877338Y-70362930D01*
X180072662Y-70362930D01*
X180072662Y-70353070D01*
X180053271Y-70106687D01*
X180051728Y-70096940D01*
X179994033Y-69856627D01*
X179990984Y-69847242D01*
X179896408Y-69618915D01*
X179891927Y-69610121D01*
X179765660Y-69404072D01*
X179757599Y-69398810D01*
X179747393Y-69404817D01*
X178807022Y-70345188D01*
X178799408Y-70359132D01*
X178069356Y-70359132D01*
X178070592Y-70356868D01*
X178070461Y-70355035D01*
X178066210Y-70348420D01*
X177124066Y-69406276D01*
X177110529Y-69398884D01*
X177105260Y-69402570D01*
X176978073Y-69610121D01*
X176973592Y-69618915D01*
X176879016Y-69847242D01*
X176875967Y-69856627D01*
X176818272Y-70096940D01*
X176816729Y-70106687D01*
X176797338Y-70353070D01*
X176797338Y-70362930D01*
X167790986Y-70362930D01*
X167791504Y-70358000D01*
X167790157Y-70345188D01*
X167772232Y-70174635D01*
X167772232Y-70174633D01*
X167771542Y-70168072D01*
X167712527Y-69986444D01*
X167617040Y-69821056D01*
X167576600Y-69776142D01*
X167545884Y-69712137D01*
X167554648Y-69641683D01*
X167561118Y-69628834D01*
X167582223Y-69592279D01*
X167582224Y-69592278D01*
X167585527Y-69586556D01*
X167644542Y-69404928D01*
X167648035Y-69371699D01*
X167663814Y-69221565D01*
X167664504Y-69215000D01*
X167660786Y-69179623D01*
X167645628Y-69035401D01*
X177475810Y-69035401D01*
X177481817Y-69045607D01*
X178422188Y-69985978D01*
X178436132Y-69993592D01*
X178437965Y-69993461D01*
X178444580Y-69989210D01*
X179386724Y-69047066D01*
X179394116Y-69033529D01*
X179390430Y-69028260D01*
X179182879Y-68901073D01*
X179174085Y-68896592D01*
X178945758Y-68802016D01*
X178936373Y-68798967D01*
X178696060Y-68741272D01*
X178686313Y-68739729D01*
X178439930Y-68720338D01*
X178430070Y-68720338D01*
X178183687Y-68739729D01*
X178173940Y-68741272D01*
X177933627Y-68798967D01*
X177924242Y-68802016D01*
X177695915Y-68896592D01*
X177687121Y-68901073D01*
X177481072Y-69027340D01*
X177475810Y-69035401D01*
X167645628Y-69035401D01*
X167645232Y-69031635D01*
X167645232Y-69031633D01*
X167644542Y-69025072D01*
X167585527Y-68843444D01*
X167561609Y-68802016D01*
X167525647Y-68739729D01*
X167490040Y-68678056D01*
X167464778Y-68649999D01*
X167366675Y-68541045D01*
X167366674Y-68541044D01*
X167362253Y-68536134D01*
X167255053Y-68458248D01*
X167213094Y-68427763D01*
X167213093Y-68427762D01*
X167207752Y-68423882D01*
X167201724Y-68421198D01*
X167201722Y-68421197D01*
X167039319Y-68348891D01*
X167039318Y-68348891D01*
X167033288Y-68346206D01*
X166939888Y-68326353D01*
X166852944Y-68307872D01*
X166852939Y-68307872D01*
X166846487Y-68306500D01*
X166655513Y-68306500D01*
X166649061Y-68307872D01*
X166649056Y-68307872D01*
X166562112Y-68326353D01*
X166468712Y-68346206D01*
X166462682Y-68348891D01*
X166462681Y-68348891D01*
X166300278Y-68421197D01*
X166300276Y-68421198D01*
X166294248Y-68423882D01*
X166288907Y-68427762D01*
X166288906Y-68427763D01*
X166246947Y-68458248D01*
X166139747Y-68536134D01*
X166135326Y-68541044D01*
X166135325Y-68541045D01*
X166037223Y-68649999D01*
X166011960Y-68678056D01*
X165976353Y-68739729D01*
X165940392Y-68802016D01*
X165916473Y-68843444D01*
X165857458Y-69025072D01*
X165856768Y-69031633D01*
X165856768Y-69031635D01*
X165841214Y-69179623D01*
X165837496Y-69215000D01*
X155840156Y-69215000D01*
X155834232Y-69158635D01*
X155834232Y-69158633D01*
X155833542Y-69152072D01*
X155774527Y-68970444D01*
X155679040Y-68805056D01*
X155673558Y-68798967D01*
X155555675Y-68668045D01*
X155555674Y-68668044D01*
X155551253Y-68663134D01*
X155442477Y-68584103D01*
X155402094Y-68554763D01*
X155402093Y-68554762D01*
X155396752Y-68550882D01*
X155390724Y-68548198D01*
X155390722Y-68548197D01*
X155228319Y-68475891D01*
X155228318Y-68475891D01*
X155222288Y-68473206D01*
X155128888Y-68453353D01*
X155041944Y-68434872D01*
X155041939Y-68434872D01*
X155035487Y-68433500D01*
X154844513Y-68433500D01*
X154838061Y-68434872D01*
X154838056Y-68434872D01*
X154751112Y-68453353D01*
X154657712Y-68473206D01*
X154546748Y-68522610D01*
X154476382Y-68532044D01*
X154444254Y-68522611D01*
X154333288Y-68473206D01*
X154239888Y-68453353D01*
X154152944Y-68434872D01*
X154152939Y-68434872D01*
X154146487Y-68433500D01*
X153955513Y-68433500D01*
X153949061Y-68434872D01*
X153949056Y-68434872D01*
X153862112Y-68453353D01*
X153768712Y-68473206D01*
X153657748Y-68522610D01*
X153587382Y-68532044D01*
X153555254Y-68522611D01*
X153444288Y-68473206D01*
X153350888Y-68453353D01*
X153263944Y-68434872D01*
X153263939Y-68434872D01*
X153257487Y-68433500D01*
X153066513Y-68433500D01*
X153060061Y-68434872D01*
X153060056Y-68434872D01*
X152973112Y-68453353D01*
X152879712Y-68473206D01*
X152873682Y-68475891D01*
X152873681Y-68475891D01*
X152711278Y-68548197D01*
X152711276Y-68548198D01*
X152705248Y-68550882D01*
X152699907Y-68554762D01*
X152699906Y-68554763D01*
X152659523Y-68584103D01*
X152550747Y-68663134D01*
X152546326Y-68668044D01*
X152546325Y-68668045D01*
X152428443Y-68798967D01*
X152422960Y-68805056D01*
X152327473Y-68970444D01*
X152268458Y-69152072D01*
X152267768Y-69158633D01*
X152267768Y-69158635D01*
X152255110Y-69279072D01*
X152248496Y-69342000D01*
X150379156Y-69342000D01*
X150376227Y-69314132D01*
X150373232Y-69285635D01*
X150373232Y-69285633D01*
X150372542Y-69279072D01*
X150313527Y-69097444D01*
X150308955Y-69089524D01*
X150221341Y-68937774D01*
X150218040Y-68932056D01*
X150138254Y-68843444D01*
X150094675Y-68795045D01*
X150094674Y-68795044D01*
X150090253Y-68790134D01*
X149935752Y-68677882D01*
X149929724Y-68675198D01*
X149929722Y-68675197D01*
X149767319Y-68602891D01*
X149767318Y-68602891D01*
X149761288Y-68600206D01*
X149667887Y-68580353D01*
X149580944Y-68561872D01*
X149580939Y-68561872D01*
X149574487Y-68560500D01*
X149383513Y-68560500D01*
X149377061Y-68561872D01*
X149377056Y-68561872D01*
X149290113Y-68580353D01*
X149196712Y-68600206D01*
X149190682Y-68602891D01*
X149190681Y-68602891D01*
X149028278Y-68675197D01*
X149028276Y-68675198D01*
X149022248Y-68677882D01*
X148867747Y-68790134D01*
X148863326Y-68795044D01*
X148863325Y-68795045D01*
X148819747Y-68843444D01*
X148739960Y-68932056D01*
X148736659Y-68937774D01*
X148649046Y-69089524D01*
X148644473Y-69097444D01*
X148585458Y-69279072D01*
X148584768Y-69285633D01*
X148584768Y-69285635D01*
X148581773Y-69314132D01*
X148565496Y-69469000D01*
X145031498Y-69469000D01*
X144930300Y-69367802D01*
X144925792Y-69364645D01*
X144925789Y-69364643D01*
X144795169Y-69273182D01*
X144750841Y-69217725D01*
X144743532Y-69147105D01*
X144775563Y-69083745D01*
X144796957Y-69066538D01*
X144796582Y-69066013D01*
X144853172Y-69025648D01*
X144861572Y-69014948D01*
X144854585Y-69001795D01*
X143815885Y-67963095D01*
X143781859Y-67900783D01*
X143783694Y-67875132D01*
X144450408Y-67875132D01*
X144450539Y-67876965D01*
X144454790Y-67883580D01*
X145214388Y-68643178D01*
X145226398Y-68649736D01*
X145238138Y-68640768D01*
X145272507Y-68592940D01*
X145277816Y-68584103D01*
X145373994Y-68389503D01*
X145377792Y-68379910D01*
X145440897Y-68172208D01*
X145443074Y-68162138D01*
X145471646Y-67945113D01*
X145472165Y-67938438D01*
X145473658Y-67877364D01*
X145473464Y-67870646D01*
X145455530Y-67652507D01*
X145453845Y-67642327D01*
X145434171Y-67564000D01*
X155423496Y-67564000D01*
X155443458Y-67753928D01*
X155502473Y-67935556D01*
X155505776Y-67941278D01*
X155505777Y-67941279D01*
X155534360Y-67990785D01*
X155597960Y-68100944D01*
X155602378Y-68105851D01*
X155602379Y-68105852D01*
X155714885Y-68230803D01*
X155725747Y-68242866D01*
X155808664Y-68303109D01*
X155867982Y-68346206D01*
X155880248Y-68355118D01*
X155886276Y-68357802D01*
X155886278Y-68357803D01*
X156034695Y-68423882D01*
X156054712Y-68432794D01*
X156148112Y-68452647D01*
X156235056Y-68471128D01*
X156235061Y-68471128D01*
X156241513Y-68472500D01*
X156432487Y-68472500D01*
X156438939Y-68471128D01*
X156438944Y-68471128D01*
X156525888Y-68452647D01*
X156619288Y-68432794D01*
X156639305Y-68423882D01*
X156787722Y-68357803D01*
X156787724Y-68357802D01*
X156793752Y-68355118D01*
X156806019Y-68346206D01*
X156865336Y-68303109D01*
X156948253Y-68242866D01*
X156959115Y-68230803D01*
X157071621Y-68105852D01*
X157071622Y-68105851D01*
X157076040Y-68100944D01*
X157139640Y-67990785D01*
X157168223Y-67941279D01*
X157168224Y-67941278D01*
X157171527Y-67935556D01*
X157230542Y-67753928D01*
X157250504Y-67564000D01*
X157237156Y-67437000D01*
X160757496Y-67437000D01*
X160758186Y-67443565D01*
X160775572Y-67608979D01*
X160777458Y-67626928D01*
X160836473Y-67808556D01*
X160839776Y-67814278D01*
X160839777Y-67814279D01*
X160857658Y-67845250D01*
X160931960Y-67973944D01*
X160936378Y-67978851D01*
X160936379Y-67978852D01*
X160962242Y-68007576D01*
X161059747Y-68115866D01*
X161214248Y-68228118D01*
X161220276Y-68230802D01*
X161220278Y-68230803D01*
X161256094Y-68246749D01*
X161388712Y-68305794D01*
X161482113Y-68325647D01*
X161569056Y-68344128D01*
X161569061Y-68344128D01*
X161575513Y-68345500D01*
X161766487Y-68345500D01*
X161772939Y-68344128D01*
X161772944Y-68344128D01*
X161859887Y-68325647D01*
X161953288Y-68305794D01*
X162085906Y-68246749D01*
X162121722Y-68230803D01*
X162121724Y-68230802D01*
X162127752Y-68228118D01*
X162168439Y-68198557D01*
X162235306Y-68174699D01*
X162304458Y-68190779D01*
X162316561Y-68198557D01*
X162357248Y-68228118D01*
X162363276Y-68230802D01*
X162363278Y-68230803D01*
X162399094Y-68246749D01*
X162531712Y-68305794D01*
X162625113Y-68325647D01*
X162712056Y-68344128D01*
X162712061Y-68344128D01*
X162718513Y-68345500D01*
X162909487Y-68345500D01*
X162915939Y-68344128D01*
X162915944Y-68344128D01*
X163002887Y-68325647D01*
X163096288Y-68305794D01*
X163228906Y-68246749D01*
X163264722Y-68230803D01*
X163264724Y-68230802D01*
X163270752Y-68228118D01*
X163425253Y-68115866D01*
X163522758Y-68007576D01*
X163548621Y-67978852D01*
X163548622Y-67978851D01*
X163553040Y-67973944D01*
X163627342Y-67845250D01*
X163645223Y-67814279D01*
X163645224Y-67814278D01*
X163648527Y-67808556D01*
X163707542Y-67626928D01*
X163709429Y-67608979D01*
X163726814Y-67443565D01*
X163727504Y-67437000D01*
X163707542Y-67247072D01*
X163648527Y-67065444D01*
X163553040Y-66900056D01*
X163425253Y-66758134D01*
X163311439Y-66675443D01*
X163276094Y-66649763D01*
X163276093Y-66649762D01*
X163270752Y-66645882D01*
X163264724Y-66643198D01*
X163264722Y-66643197D01*
X163102319Y-66570891D01*
X163102318Y-66570891D01*
X163096288Y-66568206D01*
X163002887Y-66548353D01*
X162915944Y-66529872D01*
X162915939Y-66529872D01*
X162909487Y-66528500D01*
X162718513Y-66528500D01*
X162712061Y-66529872D01*
X162712056Y-66529872D01*
X162625113Y-66548353D01*
X162531712Y-66568206D01*
X162525682Y-66570891D01*
X162525681Y-66570891D01*
X162363278Y-66643197D01*
X162363276Y-66643198D01*
X162357248Y-66645882D01*
X162351907Y-66649762D01*
X162351906Y-66649763D01*
X162316561Y-66675443D01*
X162249694Y-66699301D01*
X162180542Y-66683221D01*
X162168439Y-66675443D01*
X162133094Y-66649763D01*
X162133093Y-66649762D01*
X162127752Y-66645882D01*
X162121724Y-66643198D01*
X162121722Y-66643197D01*
X161959319Y-66570891D01*
X161959318Y-66570891D01*
X161953288Y-66568206D01*
X161859887Y-66548353D01*
X161772944Y-66529872D01*
X161772939Y-66529872D01*
X161766487Y-66528500D01*
X161575513Y-66528500D01*
X161569061Y-66529872D01*
X161569056Y-66529872D01*
X161482113Y-66548353D01*
X161388712Y-66568206D01*
X161382682Y-66570891D01*
X161382681Y-66570891D01*
X161220278Y-66643197D01*
X161220276Y-66643198D01*
X161214248Y-66645882D01*
X161208907Y-66649762D01*
X161208906Y-66649763D01*
X161173561Y-66675443D01*
X161059747Y-66758134D01*
X160931960Y-66900056D01*
X160836473Y-67065444D01*
X160777458Y-67247072D01*
X160757496Y-67437000D01*
X157237156Y-67437000D01*
X157231232Y-67380635D01*
X157231232Y-67380633D01*
X157230542Y-67374072D01*
X157171527Y-67192444D01*
X157164634Y-67180504D01*
X157119493Y-67102319D01*
X157076040Y-67027056D01*
X156948253Y-66885134D01*
X156793752Y-66772882D01*
X156787724Y-66770198D01*
X156787722Y-66770197D01*
X156625319Y-66697891D01*
X156625318Y-66697891D01*
X156619288Y-66695206D01*
X156525887Y-66675353D01*
X156438944Y-66656872D01*
X156438939Y-66656872D01*
X156432487Y-66655500D01*
X156241513Y-66655500D01*
X156235061Y-66656872D01*
X156235056Y-66656872D01*
X156148113Y-66675353D01*
X156054712Y-66695206D01*
X156048682Y-66697891D01*
X156048681Y-66697891D01*
X155886278Y-66770197D01*
X155886276Y-66770198D01*
X155880248Y-66772882D01*
X155725747Y-66885134D01*
X155597960Y-67027056D01*
X155554507Y-67102319D01*
X155509367Y-67180504D01*
X155502473Y-67192444D01*
X155443458Y-67374072D01*
X155442768Y-67380633D01*
X155442768Y-67380635D01*
X155436844Y-67437000D01*
X155423496Y-67564000D01*
X145434171Y-67564000D01*
X145400962Y-67431791D01*
X145397642Y-67422040D01*
X145311080Y-67222959D01*
X145306213Y-67213884D01*
X145237144Y-67107118D01*
X145226458Y-67097915D01*
X145216891Y-67102319D01*
X144458022Y-67861188D01*
X144450408Y-67875132D01*
X143783694Y-67875132D01*
X143786924Y-67829968D01*
X143815885Y-67784905D01*
X144857190Y-66743600D01*
X144864211Y-66730744D01*
X144856718Y-66720461D01*
X144849435Y-66715622D01*
X144659398Y-66610715D01*
X144649989Y-66606487D01*
X144445364Y-66534026D01*
X144435401Y-66531394D01*
X144221689Y-66493326D01*
X144209057Y-66492131D01*
X144143123Y-66465803D01*
X144101890Y-66408007D01*
X144098448Y-66337094D01*
X144103292Y-66321537D01*
X144186020Y-66106022D01*
X144186021Y-66106018D01*
X144187833Y-66101298D01*
X144237474Y-65863680D01*
X144248486Y-65621183D01*
X144247905Y-65616159D01*
X144221167Y-65385071D01*
X144221166Y-65385067D01*
X144220585Y-65380044D01*
X144154490Y-65146468D01*
X144152356Y-65141892D01*
X144152354Y-65141886D01*
X144054038Y-64931046D01*
X144054036Y-64931042D01*
X144051901Y-64926464D01*
X143915456Y-64725693D01*
X143748668Y-64549319D01*
X143700222Y-64512279D01*
X143559846Y-64404953D01*
X143559842Y-64404950D01*
X143555826Y-64401880D01*
X143341891Y-64287169D01*
X143112369Y-64208138D01*
X143013022Y-64190978D01*
X142877074Y-64167496D01*
X142877068Y-64167495D01*
X142873164Y-64166821D01*
X142869203Y-64166641D01*
X142869202Y-64166641D01*
X142845494Y-64165564D01*
X142845475Y-64165564D01*
X142844075Y-64165500D01*
X141174999Y-64165500D01*
X141172491Y-64165702D01*
X141172486Y-64165702D01*
X140999076Y-64179654D01*
X140999071Y-64179655D01*
X140994035Y-64180060D01*
X140989127Y-64181266D01*
X140989124Y-64181266D01*
X140873007Y-64209787D01*
X140758294Y-64237963D01*
X140753642Y-64239938D01*
X140753638Y-64239939D01*
X140646252Y-64285522D01*
X140534844Y-64332812D01*
X140530560Y-64335510D01*
X140333712Y-64459472D01*
X140333709Y-64459474D01*
X140329433Y-64462167D01*
X140325639Y-64465512D01*
X140151142Y-64619350D01*
X140151139Y-64619353D01*
X140147345Y-64622698D01*
X140144135Y-64626606D01*
X140144134Y-64626607D01*
X140042948Y-64749794D01*
X139993266Y-64810278D01*
X139990725Y-64814644D01*
X139990718Y-64814654D01*
X139935398Y-64909703D01*
X139883845Y-64958516D01*
X139814085Y-64971709D01*
X139748267Y-64945092D01*
X139707287Y-64887116D01*
X139700500Y-64846322D01*
X139700500Y-63680250D01*
X139702246Y-63659345D01*
X139704770Y-63644344D01*
X139704770Y-63644341D01*
X139705576Y-63639552D01*
X139705729Y-63627000D01*
X139705040Y-63622188D01*
X139704723Y-63617327D01*
X139705008Y-63617308D01*
X139704607Y-63590550D01*
X139714819Y-63499915D01*
X139721098Y-63472406D01*
X139725074Y-63461045D01*
X139758646Y-63365100D01*
X139770888Y-63339681D01*
X139831376Y-63243415D01*
X139848968Y-63221356D01*
X139929356Y-63140968D01*
X139951415Y-63123376D01*
X140047681Y-63062888D01*
X140073101Y-63050646D01*
X140180408Y-63013097D01*
X140207915Y-63006819D01*
X140295226Y-62996982D01*
X140310868Y-62997077D01*
X140310879Y-62996200D01*
X140319851Y-62996310D01*
X140328724Y-62997691D01*
X140337626Y-62996527D01*
X140337628Y-62996527D01*
X140352951Y-62994523D01*
X140360286Y-62993564D01*
X140376621Y-62992500D01*
X155310202Y-62992500D01*
X155378323Y-63012502D01*
G37*
G04 #@! TD.AperFunction*
M02*
