M48
INCH,TZ
T1C0.0079
T2C0.0157
T3C0.0413
T4C0.0433
T5C0.0591
T6C0.0669
%
G90
G05
T1
X63706Y-27706
X63706Y-28100
X63706Y-28494
X64100Y-27706
X64100Y-28100
X64100Y-28494
X64494Y-27706
X64494Y-28100
X64494Y-28494
T2
X57900Y-25300
X58500Y-26950
X58750Y-25500
X58850Y-27350
X59000Y-29500
X59750Y-27300
X60300Y-27300
X60650Y-24850
X60650Y-26850
X60650Y-27300
X61000Y-27300
X61550Y-24900
X61550Y-26600
X61700Y-28350
X62050Y-26150
X62350Y-28350
X62900Y-30700
X62900Y-31200
X63150Y-25250
X63200Y-30200
X63650Y-26550
X63700Y-29950
X63850Y-29550
X63950Y-31200
X64100Y-26550
X64300Y-29950
X64950Y-31200
X65500Y-29300
X65650Y-27250
X65700Y-27700
X65750Y-25350
X66000Y-29100
X66150Y-25150
X66150Y-28450
X66450Y-27950
X66450Y-29450
X66600Y-29100
X66950Y-29950
X66950Y-30450
X67450Y-26450
X67450Y-29450
X67450Y-30450
X67650Y-28050
X68250Y-31200
X68450Y-24950
X69250Y-29750
X69450Y-24950
X69450Y-31200
X70450Y-24950
X70450Y-31200
X71450Y-24950
X71450Y-31200
X72450Y-25450
X72450Y-26950
X72450Y-30450
T3
X56727Y-26722
X56727Y-27706
X56727Y-28494
X56727Y-29478
T5
X71250Y-28700
T6
X70250Y-27700
X70250Y-29700
X72250Y-27700
X72250Y-29700
T4
G00X56205Y-25856
M15
G01X55595Y-25856
M16
G05
G00X56205Y-30344
M15
G01X55595Y-30344
M16
G05
T0
M30
