G04 #@! TF.GenerationSoftware,KiCad,Pcbnew,6.0.4+dfsg-1+b1*
G04 #@! TF.CreationDate,2022-05-02T16:53:39-04:00*
G04 #@! TF.ProjectId,PortaNet,506f7274-614e-4657-942e-6b696361645f,4.0*
G04 #@! TF.SameCoordinates,Original*
G04 #@! TF.FileFunction,Legend,Top*
G04 #@! TF.FilePolarity,Positive*
%FSLAX46Y46*%
G04 Gerber Fmt 4.6, Leading zero omitted, Abs format (unit mm)*
G04 Created by KiCad (PCBNEW 6.0.4+dfsg-1+b1) date 2022-05-02 16:53:39*
%MOMM*%
%LPD*%
G01*
G04 APERTURE LIST*
%ADD10C,0.150000*%
%ADD11C,0.100000*%
%ADD12C,0.120000*%
G04 APERTURE END LIST*
D10*
X172974619Y-65179380D02*
X172974619Y-64179380D01*
X173355571Y-64179380D01*
X173450809Y-64227000D01*
X173498428Y-64274619D01*
X173546047Y-64369857D01*
X173546047Y-64512714D01*
X173498428Y-64607952D01*
X173450809Y-64655571D01*
X173355571Y-64703190D01*
X172974619Y-64703190D01*
X174117476Y-65179380D02*
X174022238Y-65131761D01*
X173974619Y-65084142D01*
X173927000Y-64988904D01*
X173927000Y-64703190D01*
X173974619Y-64607952D01*
X174022238Y-64560333D01*
X174117476Y-64512714D01*
X174260333Y-64512714D01*
X174355571Y-64560333D01*
X174403190Y-64607952D01*
X174450809Y-64703190D01*
X174450809Y-64988904D01*
X174403190Y-65084142D01*
X174355571Y-65131761D01*
X174260333Y-65179380D01*
X174117476Y-65179380D01*
X174879380Y-65179380D02*
X174879380Y-64512714D01*
X174879380Y-64703190D02*
X174927000Y-64607952D01*
X174974619Y-64560333D01*
X175069857Y-64512714D01*
X175165095Y-64512714D01*
X175355571Y-64512714D02*
X175736523Y-64512714D01*
X175498428Y-64179380D02*
X175498428Y-65036523D01*
X175546047Y-65131761D01*
X175641285Y-65179380D01*
X175736523Y-65179380D01*
X176498428Y-65179380D02*
X176498428Y-64655571D01*
X176450809Y-64560333D01*
X176355571Y-64512714D01*
X176165095Y-64512714D01*
X176069857Y-64560333D01*
X176498428Y-65131761D02*
X176403190Y-65179380D01*
X176165095Y-65179380D01*
X176069857Y-65131761D01*
X176022238Y-65036523D01*
X176022238Y-64941285D01*
X176069857Y-64846047D01*
X176165095Y-64798428D01*
X176403190Y-64798428D01*
X176498428Y-64750809D01*
X176974619Y-65179380D02*
X176974619Y-64179380D01*
X177546047Y-65179380D01*
X177546047Y-64179380D01*
X178403190Y-65131761D02*
X178307952Y-65179380D01*
X178117476Y-65179380D01*
X178022238Y-65131761D01*
X177974619Y-65036523D01*
X177974619Y-64655571D01*
X178022238Y-64560333D01*
X178117476Y-64512714D01*
X178307952Y-64512714D01*
X178403190Y-64560333D01*
X178450809Y-64655571D01*
X178450809Y-64750809D01*
X177974619Y-64846047D01*
X178736523Y-64512714D02*
X179117476Y-64512714D01*
X178879380Y-64179380D02*
X178879380Y-65036523D01*
X178927000Y-65131761D01*
X179022238Y-65179380D01*
X179117476Y-65179380D01*
X180117476Y-64512714D02*
X180355571Y-65179380D01*
X180593666Y-64512714D01*
X181403190Y-64512714D02*
X181403190Y-65179380D01*
X181165095Y-64131761D02*
X180927000Y-64846047D01*
X181546047Y-64846047D01*
X181927000Y-65084142D02*
X181974619Y-65131761D01*
X181927000Y-65179380D01*
X181879380Y-65131761D01*
X181927000Y-65084142D01*
X181927000Y-65179380D01*
X182593666Y-64179380D02*
X182688904Y-64179380D01*
X182784142Y-64227000D01*
X182831761Y-64274619D01*
X182879380Y-64369857D01*
X182927000Y-64560333D01*
X182927000Y-64798428D01*
X182879380Y-64988904D01*
X182831761Y-65084142D01*
X182784142Y-65131761D01*
X182688904Y-65179380D01*
X182593666Y-65179380D01*
X182498428Y-65131761D01*
X182450809Y-65084142D01*
X182403190Y-64988904D01*
X182355571Y-64798428D01*
X182355571Y-64560333D01*
X182403190Y-64369857D01*
X182450809Y-64274619D01*
X182498428Y-64227000D01*
X182593666Y-64179380D01*
X173069857Y-66503666D02*
X173546047Y-66503666D01*
X172974619Y-66789380D02*
X173307952Y-65789380D01*
X173641285Y-66789380D01*
X175022238Y-65789380D02*
X175022238Y-66503666D01*
X174974619Y-66646523D01*
X174879380Y-66741761D01*
X174736523Y-66789380D01*
X174641285Y-66789380D01*
X175927000Y-66741761D02*
X175831761Y-66789380D01*
X175641285Y-66789380D01*
X175546047Y-66741761D01*
X175498428Y-66694142D01*
X175450809Y-66598904D01*
X175450809Y-66313190D01*
X175498428Y-66217952D01*
X175546047Y-66170333D01*
X175641285Y-66122714D01*
X175831761Y-66122714D01*
X175927000Y-66170333D01*
X176355571Y-66789380D02*
X176355571Y-65789380D01*
X176688904Y-66503666D01*
X177022238Y-65789380D01*
X177022238Y-66789380D01*
X178260333Y-66789380D02*
X178260333Y-65789380D01*
X178498428Y-65789380D01*
X178641285Y-65837000D01*
X178736523Y-65932238D01*
X178784142Y-66027476D01*
X178831761Y-66217952D01*
X178831761Y-66360809D01*
X178784142Y-66551285D01*
X178736523Y-66646523D01*
X178641285Y-66741761D01*
X178498428Y-66789380D01*
X178260333Y-66789380D01*
X179641285Y-66741761D02*
X179546047Y-66789380D01*
X179355571Y-66789380D01*
X179260333Y-66741761D01*
X179212714Y-66646523D01*
X179212714Y-66265571D01*
X179260333Y-66170333D01*
X179355571Y-66122714D01*
X179546047Y-66122714D01*
X179641285Y-66170333D01*
X179688904Y-66265571D01*
X179688904Y-66360809D01*
X179212714Y-66456047D01*
X180069857Y-66741761D02*
X180165095Y-66789380D01*
X180355571Y-66789380D01*
X180450809Y-66741761D01*
X180498428Y-66646523D01*
X180498428Y-66598904D01*
X180450809Y-66503666D01*
X180355571Y-66456047D01*
X180212714Y-66456047D01*
X180117476Y-66408428D01*
X180069857Y-66313190D01*
X180069857Y-66265571D01*
X180117476Y-66170333D01*
X180212714Y-66122714D01*
X180355571Y-66122714D01*
X180450809Y-66170333D01*
X180927000Y-66789380D02*
X180927000Y-66122714D01*
X180927000Y-65789380D02*
X180879380Y-65837000D01*
X180927000Y-65884619D01*
X180974619Y-65837000D01*
X180927000Y-65789380D01*
X180927000Y-65884619D01*
X181831761Y-66122714D02*
X181831761Y-66932238D01*
X181784142Y-67027476D01*
X181736523Y-67075095D01*
X181641285Y-67122714D01*
X181498428Y-67122714D01*
X181403190Y-67075095D01*
X181831761Y-66741761D02*
X181736523Y-66789380D01*
X181546047Y-66789380D01*
X181450809Y-66741761D01*
X181403190Y-66694142D01*
X181355571Y-66598904D01*
X181355571Y-66313190D01*
X181403190Y-66217952D01*
X181450809Y-66170333D01*
X181546047Y-66122714D01*
X181736523Y-66122714D01*
X181831761Y-66170333D01*
X182307952Y-66122714D02*
X182307952Y-66789380D01*
X182307952Y-66217952D02*
X182355571Y-66170333D01*
X182450809Y-66122714D01*
X182593666Y-66122714D01*
X182688904Y-66170333D01*
X182736523Y-66265571D01*
X182736523Y-66789380D01*
D11*
X151894000Y-77936285D02*
X151644000Y-77579142D01*
X151465428Y-77936285D02*
X151465428Y-77186285D01*
X151751142Y-77186285D01*
X151822571Y-77222000D01*
X151858285Y-77257714D01*
X151894000Y-77329142D01*
X151894000Y-77436285D01*
X151858285Y-77507714D01*
X151822571Y-77543428D01*
X151751142Y-77579142D01*
X151465428Y-77579142D01*
X152572571Y-77186285D02*
X152215428Y-77186285D01*
X152179714Y-77543428D01*
X152215428Y-77507714D01*
X152286857Y-77472000D01*
X152465428Y-77472000D01*
X152536857Y-77507714D01*
X152572571Y-77543428D01*
X152608285Y-77614857D01*
X152608285Y-77793428D01*
X152572571Y-77864857D01*
X152536857Y-77900571D01*
X152465428Y-77936285D01*
X152286857Y-77936285D01*
X152215428Y-77900571D01*
X152179714Y-77864857D01*
X153926000Y-78825285D02*
X153676000Y-78468142D01*
X153497428Y-78825285D02*
X153497428Y-78075285D01*
X153783142Y-78075285D01*
X153854571Y-78111000D01*
X153890285Y-78146714D01*
X153926000Y-78218142D01*
X153926000Y-78325285D01*
X153890285Y-78396714D01*
X153854571Y-78432428D01*
X153783142Y-78468142D01*
X153497428Y-78468142D01*
X154568857Y-78325285D02*
X154568857Y-78825285D01*
X154390285Y-78039571D02*
X154211714Y-78575285D01*
X154676000Y-78575285D01*
X156489857Y-67577857D02*
X156454142Y-67613571D01*
X156347000Y-67649285D01*
X156275571Y-67649285D01*
X156168428Y-67613571D01*
X156097000Y-67542142D01*
X156061285Y-67470714D01*
X156025571Y-67327857D01*
X156025571Y-67220714D01*
X156061285Y-67077857D01*
X156097000Y-67006428D01*
X156168428Y-66935000D01*
X156275571Y-66899285D01*
X156347000Y-66899285D01*
X156454142Y-66935000D01*
X156489857Y-66970714D01*
X157204142Y-67649285D02*
X156775571Y-67649285D01*
X156989857Y-67649285D02*
X156989857Y-66899285D01*
X156918428Y-67006428D01*
X156847000Y-67077857D01*
X156775571Y-67113571D01*
X157847000Y-67149285D02*
X157847000Y-67649285D01*
X157668428Y-66863571D02*
X157489857Y-67399285D01*
X157954142Y-67399285D01*
X156489857Y-66053857D02*
X156454142Y-66089571D01*
X156347000Y-66125285D01*
X156275571Y-66125285D01*
X156168428Y-66089571D01*
X156097000Y-66018142D01*
X156061285Y-65946714D01*
X156025571Y-65803857D01*
X156025571Y-65696714D01*
X156061285Y-65553857D01*
X156097000Y-65482428D01*
X156168428Y-65411000D01*
X156275571Y-65375285D01*
X156347000Y-65375285D01*
X156454142Y-65411000D01*
X156489857Y-65446714D01*
X157204142Y-66125285D02*
X156775571Y-66125285D01*
X156989857Y-66125285D02*
X156989857Y-65375285D01*
X156918428Y-65482428D01*
X156847000Y-65553857D01*
X156775571Y-65589571D01*
X157454142Y-65375285D02*
X157918428Y-65375285D01*
X157668428Y-65661000D01*
X157775571Y-65661000D01*
X157847000Y-65696714D01*
X157882714Y-65732428D01*
X157918428Y-65803857D01*
X157918428Y-65982428D01*
X157882714Y-66053857D01*
X157847000Y-66089571D01*
X157775571Y-66125285D01*
X157561285Y-66125285D01*
X157489857Y-66089571D01*
X157454142Y-66053857D01*
X164213000Y-67450857D02*
X164177285Y-67486571D01*
X164070142Y-67522285D01*
X163998714Y-67522285D01*
X163891571Y-67486571D01*
X163820142Y-67415142D01*
X163784428Y-67343714D01*
X163748714Y-67200857D01*
X163748714Y-67093714D01*
X163784428Y-66950857D01*
X163820142Y-66879428D01*
X163891571Y-66808000D01*
X163998714Y-66772285D01*
X164070142Y-66772285D01*
X164177285Y-66808000D01*
X164213000Y-66843714D01*
X164641571Y-67093714D02*
X164570142Y-67058000D01*
X164534428Y-67022285D01*
X164498714Y-66950857D01*
X164498714Y-66915142D01*
X164534428Y-66843714D01*
X164570142Y-66808000D01*
X164641571Y-66772285D01*
X164784428Y-66772285D01*
X164855857Y-66808000D01*
X164891571Y-66843714D01*
X164927285Y-66915142D01*
X164927285Y-66950857D01*
X164891571Y-67022285D01*
X164855857Y-67058000D01*
X164784428Y-67093714D01*
X164641571Y-67093714D01*
X164570142Y-67129428D01*
X164534428Y-67165142D01*
X164498714Y-67236571D01*
X164498714Y-67379428D01*
X164534428Y-67450857D01*
X164570142Y-67486571D01*
X164641571Y-67522285D01*
X164784428Y-67522285D01*
X164855857Y-67486571D01*
X164891571Y-67450857D01*
X164927285Y-67379428D01*
X164927285Y-67236571D01*
X164891571Y-67165142D01*
X164855857Y-67129428D01*
X164784428Y-67093714D01*
X164213000Y-65926857D02*
X164177285Y-65962571D01*
X164070142Y-65998285D01*
X163998714Y-65998285D01*
X163891571Y-65962571D01*
X163820142Y-65891142D01*
X163784428Y-65819714D01*
X163748714Y-65676857D01*
X163748714Y-65569714D01*
X163784428Y-65426857D01*
X163820142Y-65355428D01*
X163891571Y-65284000D01*
X163998714Y-65248285D01*
X164070142Y-65248285D01*
X164177285Y-65284000D01*
X164213000Y-65319714D01*
X164463000Y-65248285D02*
X164963000Y-65248285D01*
X164641571Y-65998285D01*
X180725000Y-67737285D02*
X180725000Y-68273000D01*
X180689285Y-68380142D01*
X180617857Y-68451571D01*
X180510714Y-68487285D01*
X180439285Y-68487285D01*
X181475000Y-68487285D02*
X181046428Y-68487285D01*
X181260714Y-68487285D02*
X181260714Y-67737285D01*
X181189285Y-67844428D01*
X181117857Y-67915857D01*
X181046428Y-67951571D01*
X173103000Y-71587285D02*
X172745857Y-71587285D01*
X172745857Y-70837285D01*
X173745857Y-71587285D02*
X173317285Y-71587285D01*
X173531571Y-71587285D02*
X173531571Y-70837285D01*
X173460142Y-70944428D01*
X173388714Y-71015857D01*
X173317285Y-71051571D01*
X156847000Y-72403857D02*
X156811285Y-72439571D01*
X156704142Y-72475285D01*
X156632714Y-72475285D01*
X156525571Y-72439571D01*
X156454142Y-72368142D01*
X156418428Y-72296714D01*
X156382714Y-72153857D01*
X156382714Y-72046714D01*
X156418428Y-71903857D01*
X156454142Y-71832428D01*
X156525571Y-71761000D01*
X156632714Y-71725285D01*
X156704142Y-71725285D01*
X156811285Y-71761000D01*
X156847000Y-71796714D01*
X157489857Y-71975285D02*
X157489857Y-72475285D01*
X157311285Y-71689571D02*
X157132714Y-72225285D01*
X157597000Y-72225285D01*
X144784000Y-64105285D02*
X144784000Y-64641000D01*
X144748285Y-64748142D01*
X144676857Y-64819571D01*
X144569714Y-64855285D01*
X144498285Y-64855285D01*
X145105428Y-64176714D02*
X145141142Y-64141000D01*
X145212571Y-64105285D01*
X145391142Y-64105285D01*
X145462571Y-64141000D01*
X145498285Y-64176714D01*
X145534000Y-64248142D01*
X145534000Y-64319571D01*
X145498285Y-64426714D01*
X145069714Y-64855285D01*
X145534000Y-64855285D01*
X174246000Y-74943857D02*
X174210285Y-74979571D01*
X174103142Y-75015285D01*
X174031714Y-75015285D01*
X173924571Y-74979571D01*
X173853142Y-74908142D01*
X173817428Y-74836714D01*
X173781714Y-74693857D01*
X173781714Y-74586714D01*
X173817428Y-74443857D01*
X173853142Y-74372428D01*
X173924571Y-74301000D01*
X174031714Y-74265285D01*
X174103142Y-74265285D01*
X174210285Y-74301000D01*
X174246000Y-74336714D01*
X174888857Y-74265285D02*
X174746000Y-74265285D01*
X174674571Y-74301000D01*
X174638857Y-74336714D01*
X174567428Y-74443857D01*
X174531714Y-74586714D01*
X174531714Y-74872428D01*
X174567428Y-74943857D01*
X174603142Y-74979571D01*
X174674571Y-75015285D01*
X174817428Y-75015285D01*
X174888857Y-74979571D01*
X174924571Y-74943857D01*
X174960285Y-74872428D01*
X174960285Y-74693857D01*
X174924571Y-74622428D01*
X174888857Y-74586714D01*
X174817428Y-74551000D01*
X174674571Y-74551000D01*
X174603142Y-74586714D01*
X174567428Y-74622428D01*
X174531714Y-74693857D01*
X156096857Y-69467000D02*
X156132571Y-69502714D01*
X156168285Y-69609857D01*
X156168285Y-69681285D01*
X156132571Y-69788428D01*
X156061142Y-69859857D01*
X155989714Y-69895571D01*
X155846857Y-69931285D01*
X155739714Y-69931285D01*
X155596857Y-69895571D01*
X155525428Y-69859857D01*
X155454000Y-69788428D01*
X155418285Y-69681285D01*
X155418285Y-69609857D01*
X155454000Y-69502714D01*
X155489714Y-69467000D01*
X155418285Y-69217000D02*
X155418285Y-68752714D01*
X155704000Y-69002714D01*
X155704000Y-68895571D01*
X155739714Y-68824142D01*
X155775428Y-68788428D01*
X155846857Y-68752714D01*
X156025428Y-68752714D01*
X156096857Y-68788428D01*
X156132571Y-68824142D01*
X156168285Y-68895571D01*
X156168285Y-69109857D01*
X156132571Y-69181285D01*
X156096857Y-69217000D01*
X166179571Y-68296285D02*
X166179571Y-68903428D01*
X166215285Y-68974857D01*
X166251000Y-69010571D01*
X166322428Y-69046285D01*
X166465285Y-69046285D01*
X166536714Y-69010571D01*
X166572428Y-68974857D01*
X166608142Y-68903428D01*
X166608142Y-68296285D01*
X167358142Y-69046285D02*
X166929571Y-69046285D01*
X167143857Y-69046285D02*
X167143857Y-68296285D01*
X167072428Y-68403428D01*
X167001000Y-68474857D01*
X166929571Y-68510571D01*
X147333857Y-72110142D02*
X147369571Y-72145857D01*
X147405285Y-72253000D01*
X147405285Y-72324428D01*
X147369571Y-72431571D01*
X147298142Y-72503000D01*
X147226714Y-72538714D01*
X147083857Y-72574428D01*
X146976714Y-72574428D01*
X146833857Y-72538714D01*
X146762428Y-72503000D01*
X146691000Y-72431571D01*
X146655285Y-72324428D01*
X146655285Y-72253000D01*
X146691000Y-72145857D01*
X146726714Y-72110142D01*
X147405285Y-71395857D02*
X147405285Y-71824428D01*
X147405285Y-71610142D02*
X146655285Y-71610142D01*
X146762428Y-71681571D01*
X146833857Y-71753000D01*
X146869571Y-71824428D01*
X146655285Y-70931571D02*
X146655285Y-70860142D01*
X146691000Y-70788714D01*
X146726714Y-70753000D01*
X146798142Y-70717285D01*
X146941000Y-70681571D01*
X147119571Y-70681571D01*
X147262428Y-70717285D01*
X147333857Y-70753000D01*
X147369571Y-70788714D01*
X147405285Y-70860142D01*
X147405285Y-70931571D01*
X147369571Y-71003000D01*
X147333857Y-71038714D01*
X147262428Y-71074428D01*
X147119571Y-71110142D01*
X146941000Y-71110142D01*
X146798142Y-71074428D01*
X146726714Y-71038714D01*
X146691000Y-71003000D01*
X146655285Y-70931571D01*
X154114571Y-63851285D02*
X154114571Y-64458428D01*
X154150285Y-64529857D01*
X154186000Y-64565571D01*
X154257428Y-64601285D01*
X154400285Y-64601285D01*
X154471714Y-64565571D01*
X154507428Y-64529857D01*
X154543142Y-64458428D01*
X154543142Y-63851285D01*
X154864571Y-63922714D02*
X154900285Y-63887000D01*
X154971714Y-63851285D01*
X155150285Y-63851285D01*
X155221714Y-63887000D01*
X155257428Y-63922714D01*
X155293142Y-63994142D01*
X155293142Y-64065571D01*
X155257428Y-64172714D01*
X154828857Y-64601285D01*
X155293142Y-64601285D01*
X170436000Y-70498857D02*
X170400285Y-70534571D01*
X170293142Y-70570285D01*
X170221714Y-70570285D01*
X170114571Y-70534571D01*
X170043142Y-70463142D01*
X170007428Y-70391714D01*
X169971714Y-70248857D01*
X169971714Y-70141714D01*
X170007428Y-69998857D01*
X170043142Y-69927428D01*
X170114571Y-69856000D01*
X170221714Y-69820285D01*
X170293142Y-69820285D01*
X170400285Y-69856000D01*
X170436000Y-69891714D01*
X171114571Y-69820285D02*
X170757428Y-69820285D01*
X170721714Y-70177428D01*
X170757428Y-70141714D01*
X170828857Y-70106000D01*
X171007428Y-70106000D01*
X171078857Y-70141714D01*
X171114571Y-70177428D01*
X171150285Y-70248857D01*
X171150285Y-70427428D01*
X171114571Y-70498857D01*
X171078857Y-70534571D01*
X171007428Y-70570285D01*
X170828857Y-70570285D01*
X170757428Y-70534571D01*
X170721714Y-70498857D01*
X166520857Y-74785142D02*
X166520857Y-75142285D01*
X166270857Y-74392285D02*
X166520857Y-74785142D01*
X166770857Y-74392285D01*
X167413714Y-75142285D02*
X166985142Y-75142285D01*
X167199428Y-75142285D02*
X167199428Y-74392285D01*
X167128000Y-74499428D01*
X167056571Y-74570857D01*
X166985142Y-74606571D01*
X168554857Y-75451857D02*
X168519142Y-75487571D01*
X168412000Y-75523285D01*
X168340571Y-75523285D01*
X168233428Y-75487571D01*
X168162000Y-75416142D01*
X168126285Y-75344714D01*
X168090571Y-75201857D01*
X168090571Y-75094714D01*
X168126285Y-74951857D01*
X168162000Y-74880428D01*
X168233428Y-74809000D01*
X168340571Y-74773285D01*
X168412000Y-74773285D01*
X168519142Y-74809000D01*
X168554857Y-74844714D01*
X169269142Y-75523285D02*
X168840571Y-75523285D01*
X169054857Y-75523285D02*
X169054857Y-74773285D01*
X168983428Y-74880428D01*
X168912000Y-74951857D01*
X168840571Y-74987571D01*
X169554857Y-74844714D02*
X169590571Y-74809000D01*
X169662000Y-74773285D01*
X169840571Y-74773285D01*
X169912000Y-74809000D01*
X169947714Y-74844714D01*
X169983428Y-74916142D01*
X169983428Y-74987571D01*
X169947714Y-75094714D01*
X169519142Y-75523285D01*
X169983428Y-75523285D01*
X159029857Y-78372857D02*
X158994142Y-78408571D01*
X158887000Y-78444285D01*
X158815571Y-78444285D01*
X158708428Y-78408571D01*
X158637000Y-78337142D01*
X158601285Y-78265714D01*
X158565571Y-78122857D01*
X158565571Y-78015714D01*
X158601285Y-77872857D01*
X158637000Y-77801428D01*
X158708428Y-77730000D01*
X158815571Y-77694285D01*
X158887000Y-77694285D01*
X158994142Y-77730000D01*
X159029857Y-77765714D01*
X159744142Y-78444285D02*
X159315571Y-78444285D01*
X159529857Y-78444285D02*
X159529857Y-77694285D01*
X159458428Y-77801428D01*
X159387000Y-77872857D01*
X159315571Y-77908571D01*
X160458428Y-78444285D02*
X160029857Y-78444285D01*
X160244142Y-78444285D02*
X160244142Y-77694285D01*
X160172714Y-77801428D01*
X160101285Y-77872857D01*
X160029857Y-77908571D01*
X146941000Y-64402857D02*
X146905285Y-64438571D01*
X146798142Y-64474285D01*
X146726714Y-64474285D01*
X146619571Y-64438571D01*
X146548142Y-64367142D01*
X146512428Y-64295714D01*
X146476714Y-64152857D01*
X146476714Y-64045714D01*
X146512428Y-63902857D01*
X146548142Y-63831428D01*
X146619571Y-63760000D01*
X146726714Y-63724285D01*
X146798142Y-63724285D01*
X146905285Y-63760000D01*
X146941000Y-63795714D01*
X147298142Y-64474285D02*
X147441000Y-64474285D01*
X147512428Y-64438571D01*
X147548142Y-64402857D01*
X147619571Y-64295714D01*
X147655285Y-64152857D01*
X147655285Y-63867142D01*
X147619571Y-63795714D01*
X147583857Y-63760000D01*
X147512428Y-63724285D01*
X147369571Y-63724285D01*
X147298142Y-63760000D01*
X147262428Y-63795714D01*
X147226714Y-63867142D01*
X147226714Y-64045714D01*
X147262428Y-64117142D01*
X147298142Y-64152857D01*
X147369571Y-64188571D01*
X147512428Y-64188571D01*
X147583857Y-64152857D01*
X147619571Y-64117142D01*
X147655285Y-64045714D01*
X147020428Y-78698285D02*
X147020428Y-77948285D01*
X147199000Y-77948285D01*
X147306142Y-77984000D01*
X147377571Y-78055428D01*
X147413285Y-78126857D01*
X147449000Y-78269714D01*
X147449000Y-78376857D01*
X147413285Y-78519714D01*
X147377571Y-78591142D01*
X147306142Y-78662571D01*
X147199000Y-78698285D01*
X147020428Y-78698285D01*
X148163285Y-78698285D02*
X147734714Y-78698285D01*
X147949000Y-78698285D02*
X147949000Y-77948285D01*
X147877571Y-78055428D01*
X147806142Y-78126857D01*
X147734714Y-78162571D01*
D12*
X153135000Y-75665064D02*
X153135000Y-75210936D01*
X151665000Y-75665064D02*
X151665000Y-75210936D01*
X153697000Y-76554064D02*
X153697000Y-76099936D01*
X155167000Y-76554064D02*
X155167000Y-76099936D01*
X159652580Y-66800000D02*
X159371420Y-66800000D01*
X159652580Y-67820000D02*
X159371420Y-67820000D01*
X159652580Y-65149000D02*
X159371420Y-65149000D01*
X159652580Y-66169000D02*
X159371420Y-66169000D01*
X166637580Y-66673000D02*
X166356420Y-66673000D01*
X166637580Y-67693000D02*
X166356420Y-67693000D01*
X166637580Y-66169000D02*
X166356420Y-66169000D01*
X166637580Y-65149000D02*
X166356420Y-65149000D01*
X177295000Y-71098000D02*
X177295000Y-74698000D01*
X179175000Y-76578000D02*
X182775000Y-76578000D01*
X184655000Y-71098000D02*
X184655000Y-74698000D01*
X179175000Y-69218000D02*
X182775000Y-69218000D01*
X172966748Y-73608000D02*
X173489252Y-73608000D01*
X172966748Y-72188000D02*
X173489252Y-72188000D01*
X157747580Y-70356000D02*
X157466420Y-70356000D01*
X157747580Y-71376000D02*
X157466420Y-71376000D01*
X146066000Y-63754000D02*
X139446000Y-63754000D01*
X146066000Y-78994000D02*
X146066000Y-63754000D01*
X139446000Y-78994000D02*
X146066000Y-78994000D01*
X139446000Y-63754000D02*
X139446000Y-78994000D01*
X175385000Y-73519420D02*
X175385000Y-73800580D01*
X176405000Y-73519420D02*
X176405000Y-73800580D01*
X157747580Y-69852000D02*
X157466420Y-69852000D01*
X157747580Y-68832000D02*
X157466420Y-68832000D01*
X160204000Y-73984000D02*
X160204000Y-73509000D01*
X164949000Y-73984000D02*
X165424000Y-73984000D01*
X160679000Y-68764000D02*
X160204000Y-68764000D01*
X160204000Y-68764000D02*
X160204000Y-69239000D01*
X164949000Y-68764000D02*
X165424000Y-68764000D01*
X165424000Y-68764000D02*
X165424000Y-69239000D01*
X160679000Y-73984000D02*
X160204000Y-73984000D01*
X147576000Y-69355580D02*
X147576000Y-69074420D01*
X146556000Y-69355580D02*
X146556000Y-69074420D01*
X148355000Y-72045000D02*
X148355000Y-66035000D01*
X155175000Y-66035000D02*
X153915000Y-66035000D01*
X148355000Y-66035000D02*
X149615000Y-66035000D01*
X155175000Y-69795000D02*
X155175000Y-66035000D01*
X170051000Y-72276580D02*
X170051000Y-71995420D01*
X171071000Y-72276580D02*
X171071000Y-71995420D01*
X163735000Y-75185000D02*
X163735000Y-78485000D01*
X163735000Y-78485000D02*
X167735000Y-78485000D01*
X169293000Y-76948420D02*
X169293000Y-77229580D01*
X168273000Y-76948420D02*
X168273000Y-77229580D01*
X162192580Y-77341000D02*
X161911420Y-77341000D01*
X162192580Y-78361000D02*
X161911420Y-78361000D01*
X146556000Y-66307580D02*
X146556000Y-66026420D01*
X147576000Y-66307580D02*
X147576000Y-66026420D01*
X150663000Y-75581000D02*
X146813000Y-75581000D01*
X150663000Y-77581000D02*
X150663000Y-75581000D01*
X150663000Y-77581000D02*
X146813000Y-77581000D01*
M02*
