G04 #@! TF.GenerationSoftware,KiCad,Pcbnew,6.0.4+dfsg-1+b1*
G04 #@! TF.CreationDate,2022-05-02T16:53:39-04:00*
G04 #@! TF.ProjectId,PortaNet,506f7274-614e-4657-942e-6b696361645f,4.0*
G04 #@! TF.SameCoordinates,Original*
G04 #@! TF.FileFunction,Paste,Top*
G04 #@! TF.FilePolarity,Positive*
%FSLAX46Y46*%
G04 Gerber Fmt 4.6, Leading zero omitted, Abs format (unit mm)*
G04 Created by KiCad (PCBNEW 6.0.4+dfsg-1+b1) date 2022-05-02 16:53:39*
%MOMM*%
%LPD*%
G01*
G04 APERTURE LIST*
G04 Aperture macros list*
%AMRoundRect*
0 Rectangle with rounded corners*
0 $1 Rounding radius*
0 $2 $3 $4 $5 $6 $7 $8 $9 X,Y pos of 4 corners*
0 Add a 4 corners polygon primitive as box body*
4,1,4,$2,$3,$4,$5,$6,$7,$8,$9,$2,$3,0*
0 Add four circle primitives for the rounded corners*
1,1,$1+$1,$2,$3*
1,1,$1+$1,$4,$5*
1,1,$1+$1,$6,$7*
1,1,$1+$1,$8,$9*
0 Add four rect primitives between the rounded corners*
20,1,$1+$1,$2,$3,$4,$5,0*
20,1,$1+$1,$4,$5,$6,$7,0*
20,1,$1+$1,$6,$7,$8,$9,0*
20,1,$1+$1,$8,$9,$2,$3,0*%
%AMFreePoly0*
4,1,51,0.327450,0.260031,0.331254,0.260702,0.334599,0.258771,0.345896,0.256779,0.363205,0.242255,0.382768,0.230960,0.385451,0.223587,0.391463,0.218543,0.395386,0.196292,0.403113,0.175064,0.403113,-0.103025,0.402175,-0.108344,0.402781,-0.110605,0.401166,-0.114069,0.397869,-0.132767,0.385665,-0.147310,0.377643,-0.164515,0.305603,-0.236554,0.301181,-0.239651,0.300010,-0.241678,
0.296417,-0.242986,0.280864,-0.253876,0.261952,-0.255530,0.244114,-0.262023,-0.244114,-0.262023,-0.249430,-0.261086,-0.251692,-0.261692,-0.255158,-0.260076,-0.273856,-0.256779,-0.288398,-0.244576,-0.305603,-0.236554,-0.377643,-0.164515,-0.380740,-0.160092,-0.382768,-0.158921,-0.384076,-0.155329,-0.394966,-0.139776,-0.396621,-0.120862,-0.403113,-0.103025,-0.403113,0.175064,-0.401121,0.186360,
-0.401792,0.190164,-0.399861,0.193509,-0.397869,0.204806,-0.383345,0.222115,-0.372050,0.241678,-0.364677,0.244361,-0.359633,0.250373,-0.337382,0.254296,-0.316154,0.262023,0.316154,0.262023,0.327450,0.260031,0.327450,0.260031,$1*%
%AMFreePoly1*
4,1,48,0.167798,0.256593,0.185367,0.256593,0.199581,0.246266,0.216293,0.240836,0.226621,0.226621,0.240836,0.216293,0.246266,0.199581,0.256593,0.185367,0.256593,0.167798,0.262023,0.151086,0.262023,-0.059182,0.259257,-0.067696,0.260657,-0.076536,0.248864,-0.099680,0.240836,-0.124389,0.233594,-0.129651,0.229530,-0.137626,0.137626,-0.229530,0.129651,-0.233594,0.124389,-0.240836,
0.099682,-0.248864,0.076537,-0.260657,0.067696,-0.259257,0.059182,-0.262023,-0.151086,-0.262023,-0.167798,-0.256593,-0.185367,-0.256593,-0.199581,-0.246266,-0.216293,-0.240836,-0.226621,-0.226621,-0.240836,-0.216293,-0.246266,-0.199581,-0.256593,-0.185367,-0.256593,-0.167798,-0.262023,-0.151086,-0.262023,0.151086,-0.256593,0.167798,-0.256593,0.185367,-0.246266,0.199581,-0.240836,0.216293,
-0.226621,0.226621,-0.216293,0.240836,-0.199581,0.246266,-0.185367,0.256593,-0.167798,0.256593,-0.151086,0.262023,0.151086,0.262023,0.167798,0.256593,0.167798,0.256593,$1*%
%AMFreePoly2*
4,1,51,0.108341,0.402176,0.110604,0.402782,0.114071,0.401165,0.132767,0.397869,0.147310,0.385666,0.164515,0.377643,0.236554,0.305603,0.239651,0.301181,0.241678,0.300010,0.242986,0.296417,0.253876,0.280864,0.255530,0.261953,0.262023,0.244114,0.262023,-0.244114,0.261086,-0.249430,0.261692,-0.251692,0.260076,-0.255158,0.256779,-0.273856,0.244576,-0.288398,0.236554,-0.305603,
0.164515,-0.377643,0.160092,-0.380740,0.158921,-0.382768,0.155329,-0.384076,0.139776,-0.394966,0.120862,-0.396621,0.103025,-0.403113,-0.175064,-0.403113,-0.186360,-0.401121,-0.190164,-0.401792,-0.193509,-0.399861,-0.204806,-0.397869,-0.222115,-0.383345,-0.241678,-0.372050,-0.244361,-0.364677,-0.250373,-0.359633,-0.254296,-0.337382,-0.262023,-0.316154,-0.262023,0.316154,-0.260031,0.327450,
-0.260702,0.331254,-0.258771,0.334599,-0.256779,0.345896,-0.242255,0.363205,-0.230960,0.382768,-0.223587,0.385451,-0.218543,0.391463,-0.196292,0.395386,-0.175064,0.403113,0.103025,0.403113,0.108341,0.402176,0.108341,0.402176,$1*%
%AMFreePoly3*
4,1,48,0.067696,0.259257,0.076537,0.260657,0.099682,0.248864,0.124389,0.240836,0.129651,0.233594,0.137626,0.229530,0.229530,0.137626,0.233594,0.129651,0.240836,0.124389,0.248864,0.099680,0.260657,0.076536,0.259257,0.067696,0.262023,0.059182,0.262023,-0.151086,0.256593,-0.167798,0.256593,-0.185367,0.246266,-0.199581,0.240836,-0.216293,0.226621,-0.226621,0.216293,-0.240836,
0.199581,-0.246266,0.185367,-0.256593,0.167798,-0.256593,0.151086,-0.262023,-0.151086,-0.262023,-0.167798,-0.256593,-0.185367,-0.256593,-0.199581,-0.246266,-0.216293,-0.240836,-0.226621,-0.226621,-0.240836,-0.216293,-0.246266,-0.199581,-0.256593,-0.185367,-0.256593,-0.167798,-0.262023,-0.151086,-0.262023,0.151086,-0.256593,0.167798,-0.256593,0.185367,-0.246266,0.199581,-0.240836,0.216293,
-0.226621,0.226621,-0.216293,0.240836,-0.199581,0.246266,-0.185367,0.256593,-0.167798,0.256593,-0.151086,0.262023,0.059182,0.262023,0.067696,0.259257,0.067696,0.259257,$1*%
%AMFreePoly4*
4,1,51,0.186360,0.401121,0.190164,0.401792,0.193509,0.399861,0.204806,0.397869,0.222115,0.383345,0.241678,0.372050,0.244361,0.364677,0.250373,0.359633,0.254296,0.337382,0.262023,0.316154,0.262023,-0.316154,0.260031,-0.327450,0.260702,-0.331254,0.258771,-0.334599,0.256779,-0.345896,0.242255,-0.363205,0.230960,-0.382768,0.223587,-0.385451,0.218543,-0.391463,0.196292,-0.395386,
0.175064,-0.403113,-0.103025,-0.403113,-0.108344,-0.402175,-0.110605,-0.402781,-0.114069,-0.401166,-0.132767,-0.397869,-0.147310,-0.385665,-0.164515,-0.377643,-0.236554,-0.305603,-0.239651,-0.301181,-0.241678,-0.300010,-0.242986,-0.296417,-0.253876,-0.280864,-0.255530,-0.261952,-0.262023,-0.244114,-0.262023,0.244114,-0.261086,0.249430,-0.261692,0.251692,-0.260076,0.255158,-0.256779,0.273856,
-0.244576,0.288398,-0.236554,0.305603,-0.164515,0.377643,-0.160092,0.380740,-0.158921,0.382768,-0.155329,0.384076,-0.139776,0.394966,-0.120862,0.396621,-0.103025,0.403113,0.175064,0.403113,0.186360,0.401121,0.186360,0.401121,$1*%
%AMFreePoly5*
4,1,51,0.249430,0.261086,0.251692,0.261692,0.255158,0.260076,0.273856,0.256779,0.288398,0.244576,0.305603,0.236554,0.377643,0.164515,0.380740,0.160092,0.382768,0.158921,0.384076,0.155329,0.394966,0.139776,0.396621,0.120862,0.403113,0.103025,0.403113,-0.175064,0.401121,-0.186360,0.401792,-0.190164,0.399861,-0.193509,0.397869,-0.204806,0.383345,-0.222115,0.372050,-0.241678,
0.364677,-0.244361,0.359633,-0.250373,0.337382,-0.254296,0.316154,-0.262023,-0.316154,-0.262023,-0.327450,-0.260031,-0.331254,-0.260702,-0.334599,-0.258771,-0.345896,-0.256779,-0.363205,-0.242255,-0.382768,-0.230960,-0.385451,-0.223587,-0.391463,-0.218543,-0.395386,-0.196292,-0.403113,-0.175064,-0.403113,0.103025,-0.402176,0.108341,-0.402782,0.110604,-0.401165,0.114071,-0.397869,0.132767,
-0.385666,0.147310,-0.377643,0.164515,-0.305603,0.236554,-0.301181,0.239651,-0.300010,0.241678,-0.296417,0.242986,-0.280864,0.253876,-0.261953,0.255530,-0.244114,0.262023,0.244114,0.262023,0.249430,0.261086,0.249430,0.261086,$1*%
%AMFreePoly6*
4,1,48,0.167798,0.256593,0.185367,0.256593,0.199581,0.246266,0.216293,0.240836,0.226621,0.226621,0.240836,0.216293,0.246266,0.199581,0.256593,0.185367,0.256593,0.167798,0.262023,0.151086,0.262023,-0.151086,0.256593,-0.167798,0.256593,-0.185367,0.246266,-0.199581,0.240836,-0.216293,0.226621,-0.226621,0.216293,-0.240836,0.199581,-0.246266,0.185367,-0.256593,0.167798,-0.256593,
0.151086,-0.262023,-0.059182,-0.262023,-0.067696,-0.259257,-0.076536,-0.260657,-0.099680,-0.248864,-0.124389,-0.240836,-0.129651,-0.233594,-0.137626,-0.229530,-0.229530,-0.137626,-0.233594,-0.129651,-0.240836,-0.124389,-0.248864,-0.099682,-0.260657,-0.076537,-0.259257,-0.067696,-0.262023,-0.059182,-0.262023,0.151086,-0.256593,0.167798,-0.256593,0.185367,-0.246266,0.199581,-0.240836,0.216293,
-0.226621,0.226621,-0.216293,0.240836,-0.199581,0.246266,-0.185367,0.256593,-0.167798,0.256593,-0.151086,0.262023,0.151086,0.262023,0.167798,0.256593,0.167798,0.256593,$1*%
%AMFreePoly7*
4,1,48,0.167798,0.256593,0.185367,0.256593,0.199581,0.246266,0.216293,0.240836,0.226621,0.226621,0.240836,0.216293,0.246266,0.199581,0.256593,0.185367,0.256593,0.167798,0.262023,0.151086,0.262023,-0.151086,0.256593,-0.167798,0.256593,-0.185367,0.246266,-0.199581,0.240836,-0.216293,0.226621,-0.226621,0.216293,-0.240836,0.199581,-0.246266,0.185367,-0.256593,0.167798,-0.256593,
0.151086,-0.262023,-0.151086,-0.262023,-0.167798,-0.256593,-0.185367,-0.256593,-0.199581,-0.246266,-0.216293,-0.240836,-0.226621,-0.226621,-0.240836,-0.216293,-0.246266,-0.199581,-0.256593,-0.185367,-0.256593,-0.167798,-0.262023,-0.151086,-0.262023,0.059182,-0.259257,0.067696,-0.260657,0.076537,-0.248864,0.099682,-0.240836,0.124389,-0.233594,0.129651,-0.229530,0.137626,-0.137626,0.229530,
-0.129651,0.233594,-0.124389,0.240836,-0.099680,0.248864,-0.076536,0.260657,-0.067696,0.259257,-0.059182,0.262023,0.151086,0.262023,0.167798,0.256593,0.167798,0.256593,$1*%
G04 Aperture macros list end*
%ADD10RoundRect,0.250000X0.450000X-0.262500X0.450000X0.262500X-0.450000X0.262500X-0.450000X-0.262500X0*%
%ADD11RoundRect,0.225000X0.225000X0.250000X-0.225000X0.250000X-0.225000X-0.250000X0.225000X-0.250000X0*%
%ADD12RoundRect,0.250000X-0.325000X-0.450000X0.325000X-0.450000X0.325000X0.450000X-0.325000X0.450000X0*%
%ADD13RoundRect,0.225000X-0.250000X0.225000X-0.250000X-0.225000X0.250000X-0.225000X0.250000X0.225000X0*%
%ADD14FreePoly0,180.000000*%
%ADD15RoundRect,0.201557X0.201556X0.201556X-0.201556X0.201556X-0.201556X-0.201556X0.201556X-0.201556X0*%
%ADD16FreePoly1,180.000000*%
%ADD17FreePoly2,180.000000*%
%ADD18FreePoly3,180.000000*%
%ADD19FreePoly4,180.000000*%
%ADD20FreePoly5,180.000000*%
%ADD21FreePoly6,180.000000*%
%ADD22FreePoly7,180.000000*%
%ADD23RoundRect,0.062500X0.375000X0.062500X-0.375000X0.062500X-0.375000X-0.062500X0.375000X-0.062500X0*%
%ADD24RoundRect,0.062500X0.062500X0.375000X-0.062500X0.375000X-0.062500X-0.375000X0.062500X-0.375000X0*%
%ADD25RoundRect,0.225000X0.250000X-0.225000X0.250000X0.225000X-0.250000X0.225000X-0.250000X-0.225000X0*%
%ADD26R,1.500000X2.000000*%
%ADD27R,3.800000X2.000000*%
%ADD28R,1.400000X1.200000*%
%ADD29R,1.100000X1.100000*%
G04 APERTURE END LIST*
D10*
X152400000Y-74525500D03*
X152400000Y-76350500D03*
X154432000Y-77239500D03*
X154432000Y-75414500D03*
D11*
X160287000Y-67310000D03*
X158737000Y-67310000D03*
X160287000Y-65659000D03*
X158737000Y-65659000D03*
X167272000Y-67183000D03*
X165722000Y-67183000D03*
X165722000Y-65659000D03*
X167272000Y-65659000D03*
D12*
X174253000Y-72898000D03*
X172203000Y-72898000D03*
D11*
X158382000Y-70866000D03*
X156832000Y-70866000D03*
D13*
X175895000Y-72885000D03*
X175895000Y-74435000D03*
D11*
X158382000Y-69342000D03*
X156832000Y-69342000D03*
D14*
X162314000Y-72699000D03*
D15*
X162314000Y-71874000D03*
D14*
X163314000Y-72699000D03*
D15*
X163314000Y-70874000D03*
D16*
X164139000Y-72699000D03*
D17*
X164139000Y-71874000D03*
D18*
X164139000Y-70049000D03*
D19*
X161489000Y-70874000D03*
X161489000Y-71874000D03*
D15*
X162314000Y-70874000D03*
D20*
X163314000Y-70049000D03*
D21*
X161489000Y-72699000D03*
D17*
X164139000Y-70874000D03*
D20*
X162314000Y-70049000D03*
D15*
X163314000Y-71874000D03*
D22*
X161489000Y-70049000D03*
D23*
X165251500Y-73124000D03*
X165251500Y-72624000D03*
X165251500Y-72124000D03*
X165251500Y-71624000D03*
X165251500Y-71124000D03*
X165251500Y-70624000D03*
X165251500Y-70124000D03*
X165251500Y-69624000D03*
D24*
X164564000Y-68936500D03*
X164064000Y-68936500D03*
X163564000Y-68936500D03*
X163064000Y-68936500D03*
X162564000Y-68936500D03*
X162064000Y-68936500D03*
X161564000Y-68936500D03*
X161064000Y-68936500D03*
D23*
X160376500Y-69624000D03*
X160376500Y-70124000D03*
X160376500Y-70624000D03*
X160376500Y-71124000D03*
X160376500Y-71624000D03*
X160376500Y-72124000D03*
X160376500Y-72624000D03*
X160376500Y-73124000D03*
D24*
X161064000Y-73811500D03*
X161564000Y-73811500D03*
X162064000Y-73811500D03*
X162564000Y-73811500D03*
X163064000Y-73811500D03*
X163564000Y-73811500D03*
X164064000Y-73811500D03*
X164564000Y-73811500D03*
D25*
X147066000Y-68440000D03*
X147066000Y-69990000D03*
D26*
X154065000Y-71095000D03*
D27*
X151765000Y-64795000D03*
D26*
X151765000Y-71095000D03*
X149465000Y-71095000D03*
D25*
X170561000Y-71361000D03*
X170561000Y-72911000D03*
D28*
X164635000Y-77685000D03*
X166835000Y-77685000D03*
X166835000Y-75985000D03*
X164635000Y-75985000D03*
D13*
X168783000Y-76314000D03*
X168783000Y-77864000D03*
D11*
X162827000Y-77851000D03*
X161277000Y-77851000D03*
D25*
X147066000Y-66942000D03*
X147066000Y-65392000D03*
D29*
X149863000Y-76581000D03*
X147063000Y-76581000D03*
M02*
